%
M48
M72
T01C0.0157
T02C0.0236
T03C0.0276
T04C0.0320
T05C0.0394
T06C0.0472
T07C0.1772
%
T01
X4150Y3413
X4962Y3408
X6861Y1213
X9450Y2513
X7637Y4587
X10059Y9283
X8764Y10200
X9193Y10623
X8130Y9953
X10065Y13137
X12781Y11956
X13738Y11348
X14626Y11803
X16477Y12157
X18380Y10793
X17579Y10307
X20124Y8145
X17816Y5146
X16400Y5539
X12933Y14559
X14787Y15855
X15256Y16528
X15610Y17079
X15099Y18220
X13217Y16407
X12382Y16882
T02
X20433Y13378
T03
X15400Y8539
X15400Y8039
X15400Y7539
X15400Y7039
X15400Y6539
X15400Y6039
X15400Y5539
X15400Y5039
X14368Y9429
X13868Y9429
X13368Y9429
X12868Y9429
X12368Y9429
X11868Y9429
X11368Y9429
X10868Y9429
X9837Y8539
X9837Y8039
X9837Y7539
X9837Y7039
X9837Y6539
X9837Y6039
X9837Y5539
X9837Y5039
T04
X19672Y11815
X19672Y12815
X19351Y14571
X19351Y15571
T05
X17258Y14382
X17258Y17374
X6235Y17374
X4366Y16448
X2366Y16448
X6235Y11390
X16840Y2264
X17547Y1557
X18254Y2264
X18961Y2971
X19668Y3678
X18961Y4385
X18254Y3678
X17547Y2971
X16133Y1557
X16840Y850
T06
X19001Y6468
X19001Y8437
X17032Y9421
X17032Y7453
X8008Y8830
X7008Y8830
X4008Y8830
X2815Y10578
X1008Y8830
X1008Y5830
X4008Y5830
X6043Y3791
X8012Y2807
X6043Y1823
X8012Y839
X8008Y5830
X7008Y5830
X2815Y12546
X2815Y14515
T07
X8794Y14382
X14699Y14382
M30
