G75*
%MOIN*%
%OFA0B0*%
%FSLAX24Y24*%
%IPPOS*%
%LPD*%
%AMOC8*
5,1,8,0,0,1.08239X$1,22.5*
%
%ADD10C,0.0000*%
%ADD11C,0.0354*%
%ADD12C,0.0866*%
%ADD13C,0.0787*%
%ADD14C,0.1000*%
%ADD15C,0.0760*%
%ADD16R,0.0512X0.0591*%
%ADD17OC8,0.0630*%
%ADD18C,0.0630*%
%ADD19R,0.0591X0.0512*%
%ADD20C,0.0138*%
%ADD21R,0.0394X0.0551*%
%ADD22R,0.0591X0.0591*%
%ADD23R,0.0709X0.0630*%
%ADD24R,0.0630X0.0709*%
%ADD25R,0.0260X0.0120*%
%ADD26R,0.0120X0.0260*%
%ADD27OC8,0.0399*%
%ADD28C,0.0787*%
%ADD29C,0.1181*%
%ADD30C,0.0283*%
%ADD31C,0.0320*%
%ADD32C,0.0240*%
%ADD33C,0.0160*%
%ADD34C,0.0120*%
%ADD35C,0.0425*%
D10*
X004154Y000307D02*
X009036Y000307D01*
X009090Y000309D01*
X009143Y000314D01*
X009196Y000323D01*
X009248Y000336D01*
X009300Y000352D01*
X009350Y000372D01*
X009398Y000395D01*
X009445Y000422D01*
X009490Y000451D01*
X009533Y000484D01*
X009573Y000519D01*
X009611Y000557D01*
X009646Y000597D01*
X009679Y000640D01*
X009708Y000685D01*
X009735Y000732D01*
X009758Y000780D01*
X009778Y000830D01*
X009794Y000882D01*
X009807Y000934D01*
X009816Y000987D01*
X009821Y001040D01*
X009823Y001094D01*
X009823Y002316D01*
X009825Y002370D01*
X009830Y002423D01*
X009839Y002476D01*
X009852Y002528D01*
X009868Y002580D01*
X009888Y002630D01*
X009911Y002678D01*
X009938Y002725D01*
X009967Y002770D01*
X010000Y002813D01*
X010035Y002853D01*
X010073Y002891D01*
X010113Y002926D01*
X010156Y002959D01*
X010201Y002988D01*
X010248Y003015D01*
X010296Y003038D01*
X010346Y003058D01*
X010398Y003074D01*
X010450Y003087D01*
X010503Y003096D01*
X010556Y003101D01*
X010610Y003103D01*
X010610Y003104D02*
X014626Y003104D01*
X014626Y003103D02*
X014680Y003101D01*
X014733Y003096D01*
X014786Y003087D01*
X014838Y003074D01*
X014890Y003058D01*
X014940Y003038D01*
X014988Y003015D01*
X015035Y002988D01*
X015080Y002959D01*
X015123Y002926D01*
X015163Y002891D01*
X015201Y002853D01*
X015236Y002813D01*
X015269Y002770D01*
X015298Y002725D01*
X015325Y002678D01*
X015348Y002630D01*
X015368Y002580D01*
X015384Y002528D01*
X015397Y002476D01*
X015406Y002423D01*
X015411Y002370D01*
X015413Y002316D01*
X015414Y002316D02*
X015414Y001094D01*
X015416Y001040D01*
X015421Y000987D01*
X015430Y000934D01*
X015443Y000882D01*
X015459Y000830D01*
X015479Y000780D01*
X015502Y000732D01*
X015529Y000685D01*
X015558Y000640D01*
X015591Y000597D01*
X015626Y000557D01*
X015664Y000519D01*
X015704Y000484D01*
X015747Y000451D01*
X015792Y000422D01*
X015839Y000395D01*
X015887Y000372D01*
X015937Y000352D01*
X015989Y000336D01*
X016041Y000323D01*
X016094Y000314D01*
X016147Y000309D01*
X016201Y000307D01*
X017140Y000307D01*
X017419Y000422D02*
X020492Y003496D01*
X021083Y005701D02*
X021083Y013496D01*
X018189Y018811D02*
X005374Y018811D01*
X008573Y017759D02*
X008573Y016184D01*
X008572Y016184D02*
X008574Y016158D01*
X008579Y016133D01*
X008587Y016109D01*
X008598Y016085D01*
X008613Y016064D01*
X008630Y016045D01*
X008649Y016028D01*
X008671Y016013D01*
X008694Y016002D01*
X008718Y015994D01*
X008743Y015989D01*
X008769Y015987D01*
X008795Y015989D01*
X008820Y015994D01*
X008844Y016002D01*
X008868Y016013D01*
X008889Y016028D01*
X008908Y016045D01*
X008925Y016064D01*
X008940Y016086D01*
X008951Y016109D01*
X008959Y016133D01*
X008964Y016158D01*
X008966Y016184D01*
X008966Y017759D01*
X008769Y017956D02*
X008743Y017954D01*
X008718Y017949D01*
X008694Y017941D01*
X008671Y017930D01*
X008649Y017915D01*
X008630Y017898D01*
X008613Y017879D01*
X008598Y017858D01*
X008587Y017834D01*
X008579Y017810D01*
X008574Y017785D01*
X008572Y017759D01*
X008769Y017956D02*
X008795Y017954D01*
X008820Y017949D01*
X008844Y017941D01*
X008868Y017930D01*
X008889Y017915D01*
X008908Y017898D01*
X008925Y017879D01*
X008940Y017857D01*
X008951Y017834D01*
X008959Y017810D01*
X008964Y017785D01*
X008966Y017759D01*
X007908Y014382D02*
X007910Y014441D01*
X007916Y014500D01*
X007926Y014558D01*
X007939Y014616D01*
X007957Y014673D01*
X007978Y014728D01*
X008003Y014782D01*
X008032Y014834D01*
X008064Y014883D01*
X008099Y014931D01*
X008137Y014976D01*
X008178Y015019D01*
X008222Y015059D01*
X008268Y015095D01*
X008317Y015129D01*
X008368Y015159D01*
X008421Y015186D01*
X008476Y015209D01*
X008531Y015228D01*
X008589Y015244D01*
X008647Y015256D01*
X008705Y015264D01*
X008764Y015268D01*
X008824Y015268D01*
X008883Y015264D01*
X008941Y015256D01*
X008999Y015244D01*
X009057Y015228D01*
X009112Y015209D01*
X009167Y015186D01*
X009220Y015159D01*
X009271Y015129D01*
X009320Y015095D01*
X009366Y015059D01*
X009410Y015019D01*
X009451Y014976D01*
X009489Y014931D01*
X009524Y014883D01*
X009556Y014834D01*
X009585Y014782D01*
X009610Y014728D01*
X009631Y014673D01*
X009649Y014616D01*
X009662Y014558D01*
X009672Y014500D01*
X009678Y014441D01*
X009680Y014382D01*
X009678Y014323D01*
X009672Y014264D01*
X009662Y014206D01*
X009649Y014148D01*
X009631Y014091D01*
X009610Y014036D01*
X009585Y013982D01*
X009556Y013930D01*
X009524Y013881D01*
X009489Y013833D01*
X009451Y013788D01*
X009410Y013745D01*
X009366Y013705D01*
X009320Y013669D01*
X009271Y013635D01*
X009220Y013605D01*
X009167Y013578D01*
X009112Y013555D01*
X009057Y013536D01*
X008999Y013520D01*
X008941Y013508D01*
X008883Y013500D01*
X008824Y013496D01*
X008764Y013496D01*
X008705Y013500D01*
X008647Y013508D01*
X008589Y013520D01*
X008531Y013536D01*
X008476Y013555D01*
X008421Y013578D01*
X008368Y013605D01*
X008317Y013635D01*
X008268Y013669D01*
X008222Y013705D01*
X008178Y013745D01*
X008137Y013788D01*
X008099Y013833D01*
X008064Y013881D01*
X008032Y013930D01*
X008003Y013982D01*
X007978Y014036D01*
X007957Y014091D01*
X007939Y014148D01*
X007926Y014206D01*
X007916Y014264D01*
X007910Y014323D01*
X007908Y014382D01*
X005375Y018812D02*
X005226Y018803D01*
X005078Y018791D01*
X004930Y018774D01*
X004783Y018754D01*
X004636Y018730D01*
X004490Y018702D01*
X004345Y018669D01*
X004201Y018634D01*
X004057Y018594D01*
X003915Y018550D01*
X003774Y018503D01*
X003634Y018452D01*
X003496Y018397D01*
X003359Y018338D01*
X003224Y018276D01*
X003091Y018210D01*
X002959Y018141D01*
X002830Y018068D01*
X002702Y017992D01*
X002576Y017913D01*
X002453Y017830D01*
X002332Y017743D01*
X002213Y017654D01*
X002096Y017562D01*
X001982Y017466D01*
X001871Y017367D01*
X001762Y017266D01*
X001657Y017161D01*
X001554Y017054D01*
X001453Y016944D01*
X001356Y016832D01*
X001262Y016717D01*
X001171Y016599D01*
X001083Y016479D01*
X000998Y016357D01*
X000917Y016232D01*
X000839Y016106D01*
X000765Y015977D01*
X000693Y015846D01*
X000626Y015714D01*
X000562Y015580D01*
X000501Y015444D01*
X000445Y015306D01*
X000392Y015167D01*
X000342Y015027D01*
X000297Y014885D01*
X000255Y014743D01*
X000217Y014599D01*
X000217Y014598D02*
X000217Y005307D01*
X002894Y004913D02*
X004272Y004913D01*
X005099Y005740D01*
X005099Y009084D01*
X005156Y009223D02*
X006301Y010368D01*
X006440Y010425D02*
X007046Y010425D01*
X008644Y012023D01*
X008778Y012079D02*
X008803Y012077D01*
X008827Y012073D01*
X008851Y012065D01*
X008873Y012054D01*
X008894Y012040D01*
X008912Y012023D01*
X008913Y012023D02*
X008919Y012016D01*
X008936Y011998D01*
X008950Y011977D01*
X008961Y011955D01*
X008969Y011931D01*
X008973Y011907D01*
X008975Y011882D01*
X008919Y011747D02*
X007261Y010089D01*
X007122Y010031D02*
X006516Y010031D01*
X005492Y009008D01*
X005492Y005664D01*
X005435Y005525D02*
X004487Y004577D01*
X004348Y004520D02*
X002894Y004520D01*
X002868Y004522D01*
X002843Y004527D01*
X002819Y004535D01*
X002795Y004546D01*
X002774Y004561D01*
X002755Y004578D01*
X002738Y004597D01*
X002723Y004619D01*
X002712Y004642D01*
X002704Y004666D01*
X002699Y004691D01*
X002697Y004717D01*
X002699Y004743D01*
X002704Y004768D01*
X002712Y004792D01*
X002723Y004816D01*
X002738Y004837D01*
X002755Y004856D01*
X002774Y004873D01*
X002796Y004888D01*
X002819Y004899D01*
X002843Y004907D01*
X002868Y004912D01*
X002894Y004914D01*
X004348Y004520D02*
X004374Y004522D01*
X004399Y004527D01*
X004423Y004535D01*
X004447Y004546D01*
X004468Y004561D01*
X004487Y004578D01*
X005434Y005525D02*
X005451Y005544D01*
X005466Y005565D01*
X005477Y005589D01*
X005485Y005613D01*
X005490Y005638D01*
X005492Y005664D01*
X021083Y013496D02*
X020963Y013857D01*
X020834Y014215D01*
X020697Y014570D01*
X020552Y014922D01*
X020398Y015270D01*
X020236Y015614D01*
X020066Y015955D01*
X019888Y016291D01*
X019702Y016623D01*
X019509Y016951D01*
X019307Y017273D01*
X019098Y017591D01*
X018882Y017904D01*
X018658Y018212D01*
X018427Y018515D01*
X018189Y018811D01*
X013813Y014382D02*
X013815Y014441D01*
X013821Y014500D01*
X013831Y014558D01*
X013844Y014616D01*
X013862Y014673D01*
X013883Y014728D01*
X013908Y014782D01*
X013937Y014834D01*
X013969Y014883D01*
X014004Y014931D01*
X014042Y014976D01*
X014083Y015019D01*
X014127Y015059D01*
X014173Y015095D01*
X014222Y015129D01*
X014273Y015159D01*
X014326Y015186D01*
X014381Y015209D01*
X014436Y015228D01*
X014494Y015244D01*
X014552Y015256D01*
X014610Y015264D01*
X014669Y015268D01*
X014729Y015268D01*
X014788Y015264D01*
X014846Y015256D01*
X014904Y015244D01*
X014962Y015228D01*
X015017Y015209D01*
X015072Y015186D01*
X015125Y015159D01*
X015176Y015129D01*
X015225Y015095D01*
X015271Y015059D01*
X015315Y015019D01*
X015356Y014976D01*
X015394Y014931D01*
X015429Y014883D01*
X015461Y014834D01*
X015490Y014782D01*
X015515Y014728D01*
X015536Y014673D01*
X015554Y014616D01*
X015567Y014558D01*
X015577Y014500D01*
X015583Y014441D01*
X015585Y014382D01*
X015583Y014323D01*
X015577Y014264D01*
X015567Y014206D01*
X015554Y014148D01*
X015536Y014091D01*
X015515Y014036D01*
X015490Y013982D01*
X015461Y013930D01*
X015429Y013881D01*
X015394Y013833D01*
X015356Y013788D01*
X015315Y013745D01*
X015271Y013705D01*
X015225Y013669D01*
X015176Y013635D01*
X015125Y013605D01*
X015072Y013578D01*
X015017Y013555D01*
X014962Y013536D01*
X014904Y013520D01*
X014846Y013508D01*
X014788Y013500D01*
X014729Y013496D01*
X014669Y013496D01*
X014610Y013500D01*
X014552Y013508D01*
X014494Y013520D01*
X014436Y013536D01*
X014381Y013555D01*
X014326Y013578D01*
X014273Y013605D01*
X014222Y013635D01*
X014173Y013669D01*
X014127Y013705D01*
X014083Y013745D01*
X014042Y013788D01*
X014004Y013833D01*
X013969Y013881D01*
X013937Y013930D01*
X013908Y013982D01*
X013883Y014036D01*
X013862Y014091D01*
X013844Y014148D01*
X013831Y014206D01*
X013821Y014264D01*
X013815Y014323D01*
X013813Y014382D01*
X008975Y011882D02*
X008973Y011857D01*
X008969Y011833D01*
X008961Y011809D01*
X008950Y011787D01*
X008936Y011766D01*
X008919Y011748D01*
X008778Y012079D02*
X008753Y012077D01*
X008729Y012073D01*
X008705Y012065D01*
X008683Y012054D01*
X008662Y012040D01*
X008644Y012023D01*
X007261Y010089D02*
X007242Y010072D01*
X007221Y010057D01*
X007197Y010046D01*
X007173Y010038D01*
X007148Y010033D01*
X007122Y010031D01*
X006440Y010425D02*
X006414Y010423D01*
X006389Y010418D01*
X006365Y010410D01*
X006341Y010399D01*
X006320Y010384D01*
X006301Y010367D01*
X005156Y009223D02*
X005139Y009204D01*
X005124Y009183D01*
X005113Y009159D01*
X005105Y009135D01*
X005100Y009110D01*
X005098Y009084D01*
X000217Y005307D02*
X000313Y005067D01*
X000415Y004830D01*
X000522Y004595D01*
X000635Y004362D01*
X000754Y004133D01*
X000878Y003906D01*
X001007Y003682D01*
X001141Y003462D01*
X001281Y003245D01*
X001426Y003031D01*
X001576Y002820D01*
X001731Y002614D01*
X001891Y002411D01*
X002056Y002212D01*
X002225Y002016D01*
X002399Y001825D01*
X002577Y001639D01*
X002760Y001456D01*
X002947Y001278D01*
X003138Y001104D01*
X003334Y000935D01*
X003533Y000771D01*
X003736Y000611D01*
X003943Y000457D01*
X004154Y000307D01*
X020492Y003496D02*
X020554Y003625D01*
X020614Y003756D01*
X020670Y003888D01*
X020723Y004022D01*
X020772Y004157D01*
X020818Y004293D01*
X020860Y004430D01*
X020899Y004569D01*
X020935Y004708D01*
X020967Y004848D01*
X020995Y004989D01*
X021020Y005130D01*
X021041Y005272D01*
X021058Y005415D01*
X021072Y005558D01*
X021082Y005701D01*
X017419Y000422D02*
X017390Y000396D01*
X017359Y000373D01*
X017326Y000354D01*
X017291Y000337D01*
X017254Y000324D01*
X017217Y000315D01*
X017179Y000309D01*
X017140Y000307D01*
D11*
X015577Y005039D02*
X015223Y005039D01*
X015223Y005539D02*
X015577Y005539D01*
X015577Y006039D02*
X015223Y006039D01*
X015223Y006539D02*
X015577Y006539D01*
X015577Y007039D02*
X015223Y007039D01*
X015223Y007539D02*
X015577Y007539D01*
X015577Y008039D02*
X015223Y008039D01*
X015223Y008539D02*
X015577Y008539D01*
X014368Y009252D02*
X014368Y009606D01*
X013868Y009606D02*
X013868Y009252D01*
X013368Y009252D02*
X013368Y009606D01*
X012868Y009606D02*
X012868Y009252D01*
X012368Y009252D02*
X012368Y009606D01*
X011868Y009606D02*
X011868Y009252D01*
X011368Y009252D02*
X011368Y009606D01*
X010868Y009606D02*
X010868Y009252D01*
X010014Y008539D02*
X009660Y008539D01*
X009660Y008039D02*
X010014Y008039D01*
X010014Y007539D02*
X009660Y007539D01*
X009660Y007039D02*
X010014Y007039D01*
X010014Y006539D02*
X009660Y006539D01*
X009660Y006039D02*
X010014Y006039D01*
X010014Y005539D02*
X009660Y005539D01*
X009660Y005039D02*
X010014Y005039D01*
D12*
X004008Y005830D03*
X001008Y005830D03*
X001008Y008830D03*
X004008Y008830D03*
D13*
X006235Y011390D03*
X007008Y008830D03*
X008008Y008830D03*
X008008Y005830D03*
X007008Y005830D03*
X017258Y014382D03*
X017258Y017374D03*
X006235Y017374D03*
X004366Y016448D03*
X002366Y016448D03*
D14*
X002815Y014515D03*
X002815Y012546D03*
X002815Y010578D03*
D15*
X006043Y003791D03*
X008012Y002807D03*
X006043Y001823D03*
X008012Y000839D03*
X017032Y007453D03*
X017032Y009421D03*
X019001Y008437D03*
X019001Y006468D03*
D16*
X016890Y012927D03*
X016142Y012927D03*
X011941Y013575D03*
X011193Y013575D03*
X011969Y018024D03*
X012717Y018024D03*
X015748Y018063D03*
X016496Y018063D03*
X006811Y002709D03*
X006063Y002709D03*
D17*
X019672Y012815D03*
D18*
X019672Y011815D03*
D19*
X019001Y009972D03*
X019001Y009224D03*
X018051Y009224D03*
X018051Y009972D03*
X016216Y008172D03*
X016216Y007424D03*
X016400Y004924D03*
X016400Y004176D03*
X013227Y007645D03*
X012479Y007645D03*
X011731Y007645D03*
X010983Y007645D03*
X010983Y008393D03*
X011731Y008393D03*
X012479Y008393D03*
X013227Y008393D03*
X011477Y006178D03*
X010728Y006178D03*
X010728Y005430D03*
X011477Y005430D03*
X006201Y007421D03*
X006201Y008169D03*
X009964Y011559D03*
X009964Y012307D03*
X012461Y015563D03*
X012461Y016311D03*
X016437Y016232D03*
X017225Y016232D03*
X017225Y015484D03*
X016437Y015484D03*
X018130Y015524D03*
X018130Y016272D03*
D20*
X018755Y004341D02*
X018686Y004272D01*
X018686Y004498D01*
X018848Y004660D01*
X019074Y004660D01*
X019236Y004498D01*
X019236Y004272D01*
X019074Y004110D01*
X018848Y004110D01*
X018686Y004272D01*
X018790Y004314D01*
X018790Y004456D01*
X018890Y004556D01*
X019032Y004556D01*
X019132Y004456D01*
X019132Y004314D01*
X019032Y004214D01*
X018890Y004214D01*
X018790Y004314D01*
X018893Y004357D01*
X018893Y004413D01*
X018933Y004453D01*
X018989Y004453D01*
X019029Y004413D01*
X019029Y004357D01*
X018989Y004317D01*
X018933Y004317D01*
X018893Y004357D01*
X018048Y003634D02*
X017979Y003565D01*
X017979Y003791D01*
X018141Y003953D01*
X018367Y003953D01*
X018529Y003791D01*
X018529Y003565D01*
X018367Y003403D01*
X018141Y003403D01*
X017979Y003565D01*
X018083Y003607D01*
X018083Y003749D01*
X018183Y003849D01*
X018325Y003849D01*
X018425Y003749D01*
X018425Y003607D01*
X018325Y003507D01*
X018183Y003507D01*
X018083Y003607D01*
X018186Y003650D01*
X018186Y003706D01*
X018226Y003746D01*
X018282Y003746D01*
X018322Y003706D01*
X018322Y003650D01*
X018282Y003610D01*
X018226Y003610D01*
X018186Y003650D01*
X017341Y002927D02*
X017272Y002858D01*
X017272Y003084D01*
X017434Y003246D01*
X017660Y003246D01*
X017822Y003084D01*
X017822Y002858D01*
X017660Y002696D01*
X017434Y002696D01*
X017272Y002858D01*
X017376Y002900D01*
X017376Y003042D01*
X017476Y003142D01*
X017618Y003142D01*
X017718Y003042D01*
X017718Y002900D01*
X017618Y002800D01*
X017476Y002800D01*
X017376Y002900D01*
X017479Y002943D01*
X017479Y002999D01*
X017519Y003039D01*
X017575Y003039D01*
X017615Y002999D01*
X017615Y002943D01*
X017575Y002903D01*
X017519Y002903D01*
X017479Y002943D01*
X016634Y002220D02*
X016565Y002151D01*
X016565Y002377D01*
X016727Y002539D01*
X016953Y002539D01*
X017115Y002377D01*
X017115Y002151D01*
X016953Y001989D01*
X016727Y001989D01*
X016565Y002151D01*
X016669Y002193D01*
X016669Y002335D01*
X016769Y002435D01*
X016911Y002435D01*
X017011Y002335D01*
X017011Y002193D01*
X016911Y002093D01*
X016769Y002093D01*
X016669Y002193D01*
X016772Y002236D01*
X016772Y002292D01*
X016812Y002332D01*
X016868Y002332D01*
X016908Y002292D01*
X016908Y002236D01*
X016868Y002196D01*
X016812Y002196D01*
X016772Y002236D01*
X015927Y001513D02*
X015858Y001444D01*
X015858Y001670D01*
X016020Y001832D01*
X016246Y001832D01*
X016408Y001670D01*
X016408Y001444D01*
X016246Y001282D01*
X016020Y001282D01*
X015858Y001444D01*
X015962Y001486D01*
X015962Y001628D01*
X016062Y001728D01*
X016204Y001728D01*
X016304Y001628D01*
X016304Y001486D01*
X016204Y001386D01*
X016062Y001386D01*
X015962Y001486D01*
X016065Y001529D01*
X016065Y001585D01*
X016105Y001625D01*
X016161Y001625D01*
X016201Y001585D01*
X016201Y001529D01*
X016161Y001489D01*
X016105Y001489D01*
X016065Y001529D01*
X016634Y000806D02*
X016565Y000737D01*
X016565Y000963D01*
X016727Y001125D01*
X016953Y001125D01*
X017115Y000963D01*
X017115Y000737D01*
X016953Y000575D01*
X016727Y000575D01*
X016565Y000737D01*
X016669Y000779D01*
X016669Y000921D01*
X016769Y001021D01*
X016911Y001021D01*
X017011Y000921D01*
X017011Y000779D01*
X016911Y000679D01*
X016769Y000679D01*
X016669Y000779D01*
X016772Y000822D01*
X016772Y000878D01*
X016812Y000918D01*
X016868Y000918D01*
X016908Y000878D01*
X016908Y000822D01*
X016868Y000782D01*
X016812Y000782D01*
X016772Y000822D01*
X017341Y001513D02*
X017272Y001444D01*
X017272Y001670D01*
X017434Y001832D01*
X017660Y001832D01*
X017822Y001670D01*
X017822Y001444D01*
X017660Y001282D01*
X017434Y001282D01*
X017272Y001444D01*
X017376Y001486D01*
X017376Y001628D01*
X017476Y001728D01*
X017618Y001728D01*
X017718Y001628D01*
X017718Y001486D01*
X017618Y001386D01*
X017476Y001386D01*
X017376Y001486D01*
X017479Y001529D01*
X017479Y001585D01*
X017519Y001625D01*
X017575Y001625D01*
X017615Y001585D01*
X017615Y001529D01*
X017575Y001489D01*
X017519Y001489D01*
X017479Y001529D01*
X018048Y002220D02*
X017979Y002151D01*
X017979Y002377D01*
X018141Y002539D01*
X018367Y002539D01*
X018529Y002377D01*
X018529Y002151D01*
X018367Y001989D01*
X018141Y001989D01*
X017979Y002151D01*
X018083Y002193D01*
X018083Y002335D01*
X018183Y002435D01*
X018325Y002435D01*
X018425Y002335D01*
X018425Y002193D01*
X018325Y002093D01*
X018183Y002093D01*
X018083Y002193D01*
X018186Y002236D01*
X018186Y002292D01*
X018226Y002332D01*
X018282Y002332D01*
X018322Y002292D01*
X018322Y002236D01*
X018282Y002196D01*
X018226Y002196D01*
X018186Y002236D01*
X018755Y002927D02*
X018686Y002858D01*
X018686Y003084D01*
X018848Y003246D01*
X019074Y003246D01*
X019236Y003084D01*
X019236Y002858D01*
X019074Y002696D01*
X018848Y002696D01*
X018686Y002858D01*
X018790Y002900D01*
X018790Y003042D01*
X018890Y003142D01*
X019032Y003142D01*
X019132Y003042D01*
X019132Y002900D01*
X019032Y002800D01*
X018890Y002800D01*
X018790Y002900D01*
X018893Y002943D01*
X018893Y002999D01*
X018933Y003039D01*
X018989Y003039D01*
X019029Y002999D01*
X019029Y002943D01*
X018989Y002903D01*
X018933Y002903D01*
X018893Y002943D01*
X019462Y003634D02*
X019393Y003565D01*
X019393Y003791D01*
X019555Y003953D01*
X019781Y003953D01*
X019943Y003791D01*
X019943Y003565D01*
X019781Y003403D01*
X019555Y003403D01*
X019393Y003565D01*
X019497Y003607D01*
X019497Y003749D01*
X019597Y003849D01*
X019739Y003849D01*
X019839Y003749D01*
X019839Y003607D01*
X019739Y003507D01*
X019597Y003507D01*
X019497Y003607D01*
X019600Y003650D01*
X019600Y003706D01*
X019640Y003746D01*
X019696Y003746D01*
X019736Y003706D01*
X019736Y003650D01*
X019696Y003610D01*
X019640Y003610D01*
X019600Y003650D01*
D21*
X013219Y005585D03*
X012471Y005585D03*
X012845Y004718D03*
X009119Y004580D03*
X008371Y004580D03*
X008745Y005446D03*
D22*
X008900Y006363D03*
X008900Y007113D03*
D23*
X008017Y006856D03*
X007117Y006856D03*
X007117Y007958D03*
X008017Y007958D03*
X004967Y002708D03*
X004167Y002708D03*
X004167Y001606D03*
X004967Y001606D03*
X020117Y008842D03*
X020117Y009944D03*
D24*
X020118Y010793D03*
X019015Y010793D03*
X012118Y011657D03*
X012118Y012607D03*
X011015Y012607D03*
X011015Y011657D03*
D25*
X013613Y016886D03*
X013613Y017076D03*
X013613Y017276D03*
X013613Y017476D03*
X013613Y017666D03*
X014773Y017666D03*
X014773Y017476D03*
X014773Y017276D03*
X014773Y017076D03*
X014773Y016886D03*
D26*
X014393Y016696D03*
X014193Y016696D03*
X013993Y016696D03*
X013993Y017856D03*
X014193Y017856D03*
X014393Y017856D03*
D27*
X019351Y015571D03*
X019351Y014571D03*
D28*
X002815Y014515D02*
X002815Y014554D01*
D29*
X002815Y014515D02*
X002366Y014515D01*
X002366Y016448D01*
X004366Y016448D02*
X006235Y014579D01*
X006235Y011390D01*
X004008Y009385D02*
X002815Y010578D01*
X004008Y009385D02*
X004008Y005830D01*
X001008Y005830D02*
X001008Y013423D01*
X002100Y014515D01*
X002366Y014515D01*
D30*
X008130Y009953D03*
X008764Y010200D03*
X009193Y010623D03*
X010059Y009283D03*
X012781Y011956D03*
X013738Y011348D03*
X014626Y011803D03*
X016477Y012157D03*
X018380Y010793D03*
X017579Y010307D03*
X020124Y008145D03*
X017816Y005146D03*
X016400Y005539D03*
X009450Y002513D03*
X007637Y004587D03*
X004962Y003408D03*
X004150Y003413D03*
X006861Y001213D03*
X010065Y013137D03*
X012933Y014559D03*
X014787Y015855D03*
X015256Y016528D03*
X015610Y017079D03*
X015099Y018220D03*
X013217Y016407D03*
X012382Y016882D03*
D31*
X015538Y012927D02*
X015218Y012607D01*
X012118Y012607D01*
X015218Y012607D02*
X017032Y010793D01*
X017032Y009421D01*
X018380Y010793D02*
X019015Y010793D01*
X016142Y012927D02*
X015538Y012927D01*
X015400Y005539D02*
X016400Y005539D01*
X016400Y004924D01*
X017594Y004924D01*
X017816Y005146D01*
D32*
X017003Y007424D02*
X016216Y007424D01*
X016083Y008039D02*
X016216Y008172D01*
X016083Y008039D02*
X015400Y008039D01*
X017003Y007424D02*
X017032Y007453D01*
X019001Y008437D02*
X019001Y009224D01*
X019028Y009944D02*
X020117Y009944D01*
X020665Y009944D01*
X020118Y009946D02*
X020118Y010793D01*
X019028Y009944D02*
X019001Y009972D01*
X013227Y007645D02*
X012479Y007645D01*
X012471Y007716D02*
X012471Y005585D01*
X011477Y005430D02*
X010728Y005430D01*
X010619Y005539D02*
X009837Y005539D01*
X009837Y006539D02*
X009076Y006539D01*
X008900Y006363D01*
X008974Y007039D02*
X008900Y007113D01*
X008974Y007039D02*
X009837Y007039D01*
X010983Y007645D02*
X011731Y007645D01*
X011731Y008393D02*
X011868Y008609D01*
X011868Y009429D01*
X012368Y009429D02*
X012368Y008583D01*
X012479Y008393D01*
X009837Y008539D02*
X009837Y008797D01*
X009547Y009087D01*
X009547Y010048D01*
X009837Y010337D01*
X009837Y011432D01*
X009964Y011559D01*
X010917Y011559D01*
X011015Y011657D01*
X011015Y012607D01*
X011193Y012784D02*
X011193Y013575D01*
X011941Y013575D02*
X011941Y012784D01*
X008008Y008830D02*
X008008Y007967D01*
X007008Y008067D02*
X007008Y008830D01*
X006906Y008169D02*
X006201Y008169D01*
X006906Y008169D02*
X007008Y008067D01*
X008008Y006847D02*
X008008Y005830D01*
X008391Y005446D01*
X008745Y005446D01*
X007008Y005830D02*
X007008Y006747D01*
X004962Y003408D02*
X004962Y002713D01*
X006043Y002689D02*
X006043Y001823D01*
X006655Y001007D02*
X005167Y001007D01*
X004967Y001207D01*
X004967Y001606D01*
X006655Y001007D02*
X006861Y001213D01*
X006861Y002659D01*
X006811Y002709D01*
D33*
X002304Y002229D02*
X001651Y003059D01*
X001520Y003264D01*
X002540Y004283D01*
X003878Y004283D01*
X003915Y004320D01*
X004431Y004320D01*
X004433Y004322D01*
X004566Y004377D01*
X004570Y004377D01*
X005517Y005325D01*
X005534Y005342D01*
X005632Y005439D01*
X005635Y005442D01*
X005635Y005446D01*
X005689Y005579D01*
X005692Y005581D01*
X005692Y008925D01*
X006599Y009831D01*
X007205Y009831D01*
X007207Y009834D01*
X007340Y009889D01*
X007344Y009889D01*
X009002Y011547D01*
X009012Y011557D01*
X009116Y011661D01*
X009119Y011665D01*
X009119Y011670D01*
X009171Y011795D01*
X009175Y011799D01*
X009175Y011879D01*
X009204Y011907D01*
X009204Y013368D01*
X009213Y013370D01*
X009461Y013513D01*
X009663Y013715D01*
X009806Y013963D01*
X009880Y014239D01*
X009880Y014525D01*
X009806Y014801D01*
X009663Y015049D01*
X009461Y015251D01*
X009213Y015394D01*
X009204Y015396D01*
X009204Y018611D01*
X018092Y018611D01*
X018498Y018092D01*
X019337Y016846D01*
X020056Y015527D01*
X020647Y014145D01*
X020883Y013463D01*
X020883Y010180D01*
X020847Y010216D01*
X020729Y010264D01*
X020671Y010264D01*
X020671Y010342D01*
X020633Y010380D01*
X020633Y011230D01*
X020516Y011348D01*
X019889Y011348D01*
X019964Y011378D01*
X020108Y011523D01*
X020187Y011713D01*
X020187Y011917D01*
X020108Y012107D01*
X019964Y012252D01*
X019774Y012330D01*
X019569Y012330D01*
X019380Y012252D01*
X019235Y012107D01*
X019157Y011917D01*
X019157Y011713D01*
X019235Y011523D01*
X019380Y011378D01*
X019569Y011300D01*
X019672Y011300D01*
X019603Y011230D01*
X019603Y010383D01*
X019562Y010342D01*
X019562Y010264D01*
X019496Y010264D01*
X019496Y010311D01*
X019491Y010316D01*
X019530Y010356D01*
X019530Y011230D01*
X019413Y011348D01*
X018618Y011348D01*
X018501Y011230D01*
X018501Y011153D01*
X018309Y011153D01*
X018177Y011098D01*
X018075Y010997D01*
X018020Y010865D01*
X018020Y010722D01*
X018075Y010589D01*
X018177Y010488D01*
X018309Y010433D01*
X018501Y010433D01*
X018501Y010357D01*
X018429Y010428D01*
X018058Y010428D01*
X018038Y010435D01*
X017996Y010451D01*
X017989Y010450D01*
X017874Y010486D01*
X017869Y010501D01*
X017772Y010597D01*
X017647Y010649D01*
X017511Y010649D01*
X017392Y010600D01*
X017392Y010865D01*
X017337Y010997D01*
X017236Y011098D01*
X016519Y011816D01*
X016544Y011816D01*
X016670Y011868D01*
X016700Y011897D01*
X017394Y011897D01*
X017490Y011937D01*
X018277Y012724D01*
X018350Y012798D01*
X018390Y012893D01*
X018390Y015068D01*
X018508Y015068D01*
X018625Y015185D01*
X018625Y015862D01*
X018590Y015898D01*
X018609Y015916D01*
X018951Y015574D01*
X018951Y015405D01*
X019185Y015171D01*
X019516Y015171D01*
X019750Y015405D01*
X019750Y015736D01*
X019516Y015970D01*
X019347Y015970D01*
X018808Y016509D01*
X018705Y016552D01*
X018625Y016552D01*
X018625Y016610D01*
X018508Y016728D01*
X017752Y016728D01*
X017658Y016633D01*
X017603Y016688D01*
X017485Y016688D01*
X017485Y016697D01*
X017445Y016793D01*
X017399Y016839D01*
X017470Y016862D01*
X017548Y016902D01*
X017618Y016953D01*
X017680Y017014D01*
X017731Y017084D01*
X017770Y017162D01*
X017797Y017245D01*
X017811Y017331D01*
X017811Y017356D01*
X017277Y017356D01*
X017277Y017392D01*
X017811Y017392D01*
X017811Y017417D01*
X017797Y017503D01*
X017770Y017586D01*
X017731Y017664D01*
X017680Y017734D01*
X017618Y017795D01*
X017548Y017846D01*
X017470Y017886D01*
X017388Y017913D01*
X017302Y017926D01*
X017277Y017926D01*
X017277Y017392D01*
X017240Y017392D01*
X017240Y017356D01*
X016706Y017356D01*
X016706Y017331D01*
X016720Y017245D01*
X016746Y017162D01*
X016777Y017103D01*
X016348Y017103D01*
X016303Y017147D01*
X016303Y017327D01*
X016264Y017423D01*
X016191Y017496D01*
X016103Y017584D01*
X016154Y017634D01*
X016179Y017620D01*
X016219Y017609D01*
X016448Y017609D01*
X016448Y018015D01*
X016544Y018015D01*
X016544Y017609D01*
X016758Y017609D01*
X016746Y017586D01*
X016720Y017503D01*
X016706Y017417D01*
X016706Y017392D01*
X017240Y017392D01*
X017240Y017926D01*
X017215Y017926D01*
X017129Y017913D01*
X017046Y017886D01*
X016969Y017846D01*
X016911Y017804D01*
X016911Y018015D01*
X016544Y018015D01*
X016544Y018111D01*
X016448Y018111D01*
X016448Y018517D01*
X016219Y018517D01*
X016179Y018506D01*
X016154Y018492D01*
X016087Y018558D01*
X015409Y018558D01*
X015332Y018480D01*
X015322Y018480D01*
X015292Y018510D01*
X015167Y018562D01*
X015031Y018562D01*
X014905Y018510D01*
X014875Y018480D01*
X013094Y018480D01*
X013055Y018519D01*
X012378Y018519D01*
X012311Y018452D01*
X012286Y018467D01*
X012245Y018478D01*
X012017Y018478D01*
X012017Y018072D01*
X011921Y018072D01*
X011921Y018478D01*
X011692Y018478D01*
X011651Y018467D01*
X011615Y018446D01*
X011586Y018416D01*
X011565Y018380D01*
X011554Y018340D01*
X011554Y018072D01*
X011921Y018072D01*
X011921Y017976D01*
X011554Y017976D01*
X011554Y017707D01*
X011565Y017667D01*
X011586Y017631D01*
X011615Y017601D01*
X011651Y017580D01*
X011692Y017570D01*
X011921Y017570D01*
X011921Y017976D01*
X012017Y017976D01*
X012017Y017570D01*
X012245Y017570D01*
X012286Y017580D01*
X012311Y017595D01*
X012371Y017536D01*
X012133Y017536D01*
X012038Y017496D01*
X011762Y017220D01*
X011689Y017147D01*
X011650Y017052D01*
X011650Y014744D01*
X011689Y014648D01*
X011762Y014575D01*
X011925Y014412D01*
X011999Y014339D01*
X012094Y014299D01*
X012710Y014299D01*
X012740Y014269D01*
X012865Y014217D01*
X013001Y014217D01*
X013127Y014269D01*
X013223Y014365D01*
X013275Y014491D01*
X013275Y014627D01*
X013223Y014753D01*
X013127Y014849D01*
X013001Y014901D01*
X012865Y014901D01*
X012740Y014849D01*
X012710Y014819D01*
X012253Y014819D01*
X012170Y014903D01*
X012170Y015107D01*
X012839Y015107D01*
X012956Y015224D01*
X012956Y015244D01*
X014026Y015244D01*
X013830Y015049D01*
X013688Y014801D01*
X013614Y014525D01*
X013614Y014239D01*
X013688Y013963D01*
X013830Y013715D01*
X014033Y013513D01*
X014280Y013370D01*
X014556Y013296D01*
X014842Y013296D01*
X015118Y013370D01*
X015366Y013513D01*
X015568Y013715D01*
X015711Y013963D01*
X015785Y014239D01*
X015785Y014525D01*
X015711Y014801D01*
X015568Y015049D01*
X015373Y015244D01*
X015942Y015244D01*
X015942Y015145D01*
X016059Y015028D01*
X016177Y015028D01*
X016177Y014586D01*
X016217Y014491D01*
X016453Y014254D01*
X016526Y014181D01*
X016622Y014142D01*
X016715Y014142D01*
X016755Y014046D01*
X016922Y013879D01*
X017140Y013788D01*
X017376Y013788D01*
X017595Y013879D01*
X017762Y014046D01*
X017852Y014264D01*
X017852Y014500D01*
X017762Y014718D01*
X017595Y014885D01*
X017376Y014976D01*
X017140Y014976D01*
X016922Y014885D01*
X016755Y014718D01*
X016746Y014697D01*
X016697Y014745D01*
X016697Y015028D01*
X016815Y015028D01*
X016868Y015081D01*
X016868Y015080D01*
X016908Y015070D01*
X017177Y015070D01*
X017177Y015436D01*
X017272Y015436D01*
X017272Y015070D01*
X017541Y015070D01*
X017581Y015080D01*
X017617Y015101D01*
X017647Y015131D01*
X017662Y015157D01*
X017752Y015068D01*
X017870Y015068D01*
X017870Y013053D01*
X017235Y012417D01*
X016700Y012417D01*
X016670Y012447D01*
X016600Y012476D01*
X016613Y012473D01*
X016842Y012473D01*
X016842Y012879D01*
X016938Y012879D01*
X016938Y012975D01*
X016842Y012975D01*
X016842Y013381D01*
X016613Y013381D01*
X016573Y013370D01*
X016547Y013355D01*
X016481Y013422D01*
X015803Y013422D01*
X015686Y013305D01*
X015686Y013287D01*
X015466Y013287D01*
X015334Y013232D01*
X015233Y013131D01*
X015069Y012967D01*
X012633Y012967D01*
X012633Y013044D01*
X012516Y013161D01*
X012361Y013161D01*
X012397Y013197D01*
X012397Y013953D01*
X012279Y014070D01*
X011602Y014070D01*
X011567Y014035D01*
X011531Y014070D01*
X010854Y014070D01*
X010737Y013953D01*
X010737Y013197D01*
X010772Y013161D01*
X010618Y013161D01*
X010501Y013044D01*
X010501Y012170D01*
X010538Y012132D01*
X010501Y012094D01*
X010501Y011879D01*
X010459Y011879D01*
X010459Y011897D01*
X010392Y011964D01*
X010407Y011990D01*
X010418Y012030D01*
X010418Y012259D01*
X010011Y012259D01*
X010011Y012355D01*
X009916Y012355D01*
X009916Y012721D01*
X009647Y012721D01*
X009607Y012711D01*
X009571Y012690D01*
X009541Y012660D01*
X009520Y012624D01*
X009510Y012583D01*
X009509Y012355D01*
X009916Y012355D01*
X009916Y012259D01*
X009510Y012259D01*
X009510Y012030D01*
X009520Y011990D01*
X009535Y011964D01*
X009468Y011897D01*
X009468Y011220D01*
X009517Y011171D01*
X009517Y010735D01*
X009483Y010817D01*
X009387Y010913D01*
X009261Y010965D01*
X009125Y010965D01*
X008999Y010913D01*
X008903Y010817D01*
X008851Y010691D01*
X008851Y010555D01*
X008903Y010430D01*
X008933Y010400D01*
X008933Y009517D01*
X008472Y009979D01*
X008472Y010021D01*
X008420Y010146D01*
X008324Y010242D01*
X008198Y010294D01*
X008062Y010294D01*
X007936Y010242D01*
X007840Y010146D01*
X007788Y010021D01*
X007788Y009885D01*
X007840Y009759D01*
X007936Y009663D01*
X008062Y009611D01*
X008104Y009611D01*
X008618Y009097D01*
X008618Y008051D01*
X008658Y007955D01*
X008731Y007882D01*
X009004Y007609D01*
X008571Y007609D01*
X008571Y008356D01*
X008472Y008455D01*
X008511Y008494D01*
X008602Y008712D01*
X008602Y008948D01*
X008511Y009166D01*
X008344Y009333D01*
X008126Y009424D01*
X007890Y009424D01*
X007672Y009333D01*
X007508Y009170D01*
X007344Y009333D01*
X007126Y009424D01*
X006890Y009424D01*
X006672Y009333D01*
X006505Y009166D01*
X006414Y008948D01*
X006414Y008712D01*
X006450Y008625D01*
X005823Y008625D01*
X005706Y008508D01*
X005706Y007830D01*
X005772Y007763D01*
X005758Y007738D01*
X005747Y007698D01*
X005747Y007469D01*
X006153Y007469D01*
X006153Y007373D01*
X005747Y007373D01*
X005747Y007144D01*
X005758Y007104D01*
X005779Y007067D01*
X005808Y007038D01*
X005844Y007017D01*
X005885Y007006D01*
X006153Y007006D01*
X006153Y007373D01*
X006249Y007373D01*
X006249Y007469D01*
X006654Y007469D01*
X006679Y007443D01*
X007554Y007443D01*
X007567Y007456D01*
X007579Y007443D01*
X008404Y007443D01*
X008404Y007371D01*
X007579Y007371D01*
X007567Y007358D01*
X007554Y007371D01*
X006679Y007371D01*
X006655Y007346D01*
X006655Y007373D01*
X006249Y007373D01*
X006249Y007006D01*
X006517Y007006D01*
X006557Y007017D01*
X006562Y007020D01*
X006562Y006458D01*
X006679Y006341D01*
X006688Y006341D01*
X006688Y006340D01*
X006672Y006333D01*
X006505Y006166D01*
X006414Y005948D01*
X006414Y005712D01*
X006505Y005494D01*
X006672Y005327D01*
X006728Y005303D01*
X006728Y004560D01*
X006771Y004457D01*
X006849Y004378D01*
X007558Y003670D01*
X007661Y003627D01*
X009422Y003627D01*
X009525Y003670D01*
X009604Y003748D01*
X009783Y003927D01*
X011771Y003927D01*
X011874Y003970D01*
X012342Y004438D01*
X012448Y004438D01*
X012448Y004360D01*
X012565Y004243D01*
X013125Y004243D01*
X013242Y004360D01*
X013242Y005077D01*
X013168Y005150D01*
X013201Y005150D01*
X013201Y005566D01*
X013237Y005566D01*
X013237Y005150D01*
X013437Y005150D01*
X013477Y005161D01*
X013513Y005182D01*
X013543Y005212D01*
X013564Y005248D01*
X013575Y005288D01*
X013575Y005566D01*
X013237Y005566D01*
X013237Y005603D01*
X013201Y005603D01*
X013201Y006019D01*
X013001Y006019D01*
X012961Y006008D01*
X012925Y005987D01*
X012895Y005958D01*
X012874Y005921D01*
X012868Y005898D01*
X012868Y005943D01*
X012791Y006020D01*
X012791Y007189D01*
X013605Y007189D01*
X013722Y007307D01*
X013722Y007984D01*
X013655Y008051D01*
X013670Y008076D01*
X013681Y008116D01*
X013681Y008345D01*
X013275Y008345D01*
X013275Y008441D01*
X013681Y008441D01*
X013681Y008670D01*
X013670Y008710D01*
X013649Y008747D01*
X013620Y008776D01*
X013583Y008797D01*
X013543Y008808D01*
X013275Y008808D01*
X013275Y008441D01*
X013179Y008441D01*
X013179Y008808D01*
X012911Y008808D01*
X012901Y008805D01*
X012857Y008849D01*
X012688Y008849D01*
X012688Y008918D01*
X012793Y008875D01*
X012943Y008875D01*
X013082Y008932D01*
X013118Y008969D01*
X013155Y008932D01*
X013293Y008875D01*
X013443Y008875D01*
X013582Y008932D01*
X013618Y008969D01*
X013655Y008932D01*
X013793Y008875D01*
X013943Y008875D01*
X014082Y008932D01*
X014118Y008969D01*
X014155Y008932D01*
X014293Y008875D01*
X014443Y008875D01*
X014582Y008932D01*
X014688Y009038D01*
X014745Y009177D01*
X014745Y009681D01*
X014688Y009820D01*
X014675Y009833D01*
X014994Y009833D01*
X016200Y008628D01*
X015948Y008628D01*
X015897Y008753D01*
X015791Y008859D01*
X015652Y008917D01*
X015148Y008917D01*
X015009Y008859D01*
X014903Y008753D01*
X014845Y008614D01*
X014845Y008464D01*
X014903Y008326D01*
X014939Y008289D01*
X014903Y008253D01*
X014845Y008114D01*
X014845Y007964D01*
X014903Y007826D01*
X014939Y007789D01*
X014903Y007753D01*
X014845Y007614D01*
X014845Y007464D01*
X014903Y007326D01*
X014939Y007289D01*
X014903Y007253D01*
X014845Y007114D01*
X014845Y006964D01*
X014846Y006964D02*
X012791Y006964D01*
X012791Y006806D02*
X014923Y006806D01*
X014939Y006789D02*
X014903Y006753D01*
X014845Y006614D01*
X014845Y006464D01*
X014903Y006326D01*
X014939Y006289D01*
X014903Y006253D01*
X014845Y006114D01*
X014845Y005964D01*
X014903Y005826D01*
X014939Y005789D01*
X014903Y005753D01*
X014845Y005614D01*
X014845Y005464D01*
X014903Y005326D01*
X014968Y005260D01*
X014962Y005253D01*
X014925Y005198D01*
X014900Y005137D01*
X014887Y005072D01*
X014887Y005039D01*
X014887Y005006D01*
X014900Y004941D01*
X014925Y004880D01*
X014962Y004825D01*
X015008Y004778D01*
X015063Y004742D01*
X015125Y004716D01*
X015189Y004703D01*
X015400Y004703D01*
X015610Y004703D01*
X015675Y004716D01*
X015736Y004742D01*
X015791Y004778D01*
X015838Y004825D01*
X015875Y004880D01*
X015900Y004941D01*
X015904Y004964D01*
X015904Y004585D01*
X015971Y004518D01*
X015957Y004493D01*
X015946Y004452D01*
X015946Y004224D01*
X016352Y004224D01*
X016352Y004128D01*
X015946Y004128D01*
X015946Y003899D01*
X015957Y003858D01*
X015977Y003822D01*
X016007Y003793D01*
X016043Y003772D01*
X016084Y003761D01*
X016352Y003761D01*
X016352Y004128D01*
X016448Y004128D01*
X016448Y004224D01*
X016854Y004224D01*
X016854Y004452D01*
X016843Y004493D01*
X016828Y004518D01*
X016874Y004564D01*
X017666Y004564D01*
X017798Y004618D01*
X018121Y004942D01*
X018152Y005015D01*
X018312Y004855D01*
X018391Y004776D01*
X018494Y004733D01*
X018639Y004733D01*
X018961Y004411D01*
X018935Y004385D01*
X018592Y004728D01*
X018458Y004594D01*
X018458Y004222D01*
X018028Y004222D01*
X017709Y003903D01*
X017709Y003515D01*
X017321Y003515D01*
X017002Y003196D01*
X017002Y002808D01*
X016691Y002808D01*
X015977Y003522D01*
X015899Y003601D01*
X015796Y003643D01*
X009994Y003643D01*
X009891Y003601D01*
X009291Y003001D01*
X009212Y002922D01*
X009170Y002819D01*
X009170Y002717D01*
X009160Y002707D01*
X009108Y002581D01*
X009108Y002445D01*
X009146Y002354D01*
X009021Y002354D01*
X009021Y000507D01*
X008437Y000507D01*
X008473Y000556D01*
X008511Y000632D01*
X008537Y000712D01*
X008551Y000796D01*
X008551Y000800D01*
X008050Y000800D01*
X008050Y000877D01*
X007974Y000877D01*
X007974Y001377D01*
X007970Y001377D01*
X007886Y001364D01*
X007805Y001338D01*
X007730Y001299D01*
X007661Y001249D01*
X007601Y001190D01*
X007551Y001121D01*
X007513Y001045D01*
X007486Y000965D01*
X007473Y000881D01*
X007473Y000877D01*
X007974Y000877D01*
X007974Y000800D01*
X007473Y000800D01*
X007473Y000796D01*
X007486Y000712D01*
X007513Y000632D01*
X007551Y000556D01*
X007587Y000507D01*
X004219Y000507D01*
X003841Y000783D01*
X003037Y001468D01*
X002304Y002229D01*
X002304Y002229D01*
X002324Y002209D02*
X004514Y002209D01*
X004529Y002193D02*
X005404Y002193D01*
X005521Y002310D01*
X005521Y003106D01*
X005404Y003223D01*
X005282Y003223D01*
X005282Y003288D01*
X005304Y003340D01*
X005304Y003476D01*
X005252Y003602D01*
X005156Y003698D01*
X005030Y003750D01*
X004894Y003750D01*
X004769Y003698D01*
X004673Y003602D01*
X004621Y003476D01*
X004621Y003340D01*
X004642Y003288D01*
X004642Y003223D01*
X004529Y003223D01*
X004488Y003182D01*
X004244Y003182D01*
X004244Y002786D01*
X004089Y002786D01*
X004089Y003182D01*
X003791Y003182D01*
X003751Y003171D01*
X003715Y003150D01*
X003685Y003121D01*
X003664Y003084D01*
X003654Y003044D01*
X003654Y002786D01*
X004089Y002786D01*
X004089Y002631D01*
X003654Y002631D01*
X003654Y002372D01*
X003664Y002332D01*
X003685Y002296D01*
X003715Y002266D01*
X003751Y002245D01*
X003791Y002235D01*
X004089Y002235D01*
X004089Y002631D01*
X004244Y002631D01*
X004244Y002235D01*
X004488Y002235D01*
X004529Y002193D01*
X004244Y002368D02*
X004089Y002368D01*
X004089Y002526D02*
X004244Y002526D01*
X004089Y002685D02*
X001946Y002685D01*
X001821Y002843D02*
X003654Y002843D01*
X003654Y003002D02*
X001696Y003002D01*
X001586Y003160D02*
X003732Y003160D01*
X004089Y003160D02*
X004244Y003160D01*
X004244Y003002D02*
X004089Y003002D01*
X004089Y002843D02*
X004244Y002843D01*
X003654Y002526D02*
X002070Y002526D01*
X002195Y002368D02*
X003655Y002368D01*
X003729Y002121D02*
X003612Y002004D01*
X003612Y001208D01*
X003729Y001091D01*
X004668Y001091D01*
X004695Y001026D01*
X004895Y000826D01*
X004985Y000736D01*
X005103Y000687D01*
X006719Y000687D01*
X006836Y000736D01*
X007002Y000902D01*
X007055Y000924D01*
X007151Y001020D01*
X007203Y001145D01*
X007203Y001281D01*
X007181Y001334D01*
X007181Y002245D01*
X007267Y002331D01*
X007267Y003087D01*
X007150Y003204D01*
X006472Y003204D01*
X006437Y003169D01*
X006402Y003204D01*
X005724Y003204D01*
X005607Y003087D01*
X005607Y002331D01*
X005669Y002269D01*
X005552Y002151D01*
X005499Y002025D01*
X005404Y002121D01*
X003729Y002121D01*
X003659Y002051D02*
X002476Y002051D01*
X002629Y001892D02*
X003612Y001892D01*
X003612Y001734D02*
X002781Y001734D01*
X002934Y001575D02*
X003612Y001575D01*
X003612Y001417D02*
X003097Y001417D01*
X003283Y001258D02*
X003612Y001258D01*
X003721Y001100D02*
X003469Y001100D01*
X003655Y000941D02*
X004780Y000941D01*
X004939Y000783D02*
X003842Y000783D01*
X004059Y000624D02*
X007517Y000624D01*
X007475Y000783D02*
X006883Y000783D01*
X007072Y000941D02*
X007483Y000941D01*
X007540Y001100D02*
X007184Y001100D01*
X007203Y001258D02*
X007673Y001258D01*
X007974Y001258D02*
X008050Y001258D01*
X008050Y001377D02*
X008050Y000877D01*
X008551Y000877D01*
X008551Y000881D01*
X008537Y000965D01*
X008511Y001045D01*
X008473Y001121D01*
X008423Y001190D01*
X008363Y001249D01*
X008294Y001299D01*
X008219Y001338D01*
X008138Y001364D01*
X008054Y001377D01*
X008050Y001377D01*
X008050Y001100D02*
X007974Y001100D01*
X007974Y000941D02*
X008050Y000941D01*
X008351Y001258D02*
X009021Y001258D01*
X009021Y001100D02*
X008484Y001100D01*
X008541Y000941D02*
X009021Y000941D01*
X009021Y000783D02*
X008549Y000783D01*
X008507Y000624D02*
X009021Y000624D01*
X009021Y001417D02*
X007181Y001417D01*
X007181Y001575D02*
X009021Y001575D01*
X009021Y001734D02*
X007181Y001734D01*
X007181Y001892D02*
X009021Y001892D01*
X009021Y002051D02*
X007181Y002051D01*
X007181Y002209D02*
X009021Y002209D01*
X009140Y002368D02*
X008393Y002368D01*
X008340Y002315D02*
X008504Y002479D01*
X008592Y002692D01*
X008592Y002922D01*
X008504Y003136D01*
X008340Y003299D01*
X008127Y003387D01*
X007897Y003387D01*
X007683Y003299D01*
X007520Y003136D01*
X007432Y002922D01*
X007432Y002692D01*
X007520Y002479D01*
X007683Y002315D01*
X007897Y002227D01*
X008127Y002227D01*
X008340Y002315D01*
X008523Y002526D02*
X009108Y002526D01*
X009151Y002685D02*
X008589Y002685D01*
X008592Y002843D02*
X009180Y002843D01*
X009292Y003002D02*
X008559Y003002D01*
X008479Y003160D02*
X009450Y003160D01*
X009609Y003319D02*
X008293Y003319D01*
X007731Y003319D02*
X006391Y003319D01*
X006372Y003300D02*
X006535Y003463D01*
X006623Y003676D01*
X006623Y003907D01*
X006535Y004120D01*
X006372Y004283D01*
X006159Y004371D01*
X005928Y004371D01*
X005715Y004283D01*
X005552Y004120D01*
X005463Y003907D01*
X005463Y003676D01*
X005552Y003463D01*
X005715Y003300D01*
X005928Y003211D01*
X006159Y003211D01*
X006372Y003300D01*
X006541Y003477D02*
X009767Y003477D01*
X009975Y003636D02*
X009443Y003636D01*
X009650Y003794D02*
X016006Y003794D01*
X015946Y003953D02*
X011832Y003953D01*
X012015Y004111D02*
X015946Y004111D01*
X015946Y004270D02*
X013151Y004270D01*
X013242Y004428D02*
X015946Y004428D01*
X015904Y004587D02*
X013242Y004587D01*
X013242Y004745D02*
X015058Y004745D01*
X014915Y004904D02*
X013242Y004904D01*
X013242Y005062D02*
X014887Y005062D01*
X014887Y005039D02*
X015400Y005039D01*
X015400Y004703D01*
X015400Y005039D01*
X015400Y005039D01*
X014887Y005039D01*
X014940Y005221D02*
X013548Y005221D01*
X013575Y005379D02*
X014881Y005379D01*
X014845Y005538D02*
X013575Y005538D01*
X013575Y005603D02*
X013575Y005881D01*
X013564Y005921D01*
X013543Y005958D01*
X013513Y005987D01*
X013477Y006008D01*
X013437Y006019D01*
X013237Y006019D01*
X013237Y005603D01*
X013575Y005603D01*
X013575Y005696D02*
X014879Y005696D01*
X014891Y005855D02*
X013575Y005855D01*
X013459Y006013D02*
X014845Y006013D01*
X014869Y006172D02*
X012791Y006172D01*
X012791Y006330D02*
X014901Y006330D01*
X014845Y006489D02*
X012791Y006489D01*
X012791Y006647D02*
X014859Y006647D01*
X014939Y006789D02*
X014903Y006826D01*
X014845Y006964D01*
X014849Y007123D02*
X012791Y007123D01*
X012479Y007645D02*
X012471Y007716D01*
X011731Y007645D02*
X011731Y007311D01*
X012017Y007024D01*
X012017Y005057D01*
X011540Y004580D01*
X009119Y004580D01*
X009667Y004207D02*
X011715Y004207D01*
X012227Y004718D01*
X012845Y004718D01*
X012448Y004428D02*
X012332Y004428D01*
X012174Y004270D02*
X012539Y004270D01*
X013201Y005221D02*
X013237Y005221D01*
X013237Y005379D02*
X013201Y005379D01*
X013201Y005538D02*
X013237Y005538D01*
X013237Y005696D02*
X013201Y005696D01*
X013201Y005855D02*
X013237Y005855D01*
X013237Y006013D02*
X013201Y006013D01*
X012979Y006013D02*
X012798Y006013D01*
X011737Y006593D02*
X011737Y006908D01*
X011572Y007073D01*
X011493Y007152D01*
X011478Y007189D01*
X010605Y007189D01*
X010488Y007307D01*
X010488Y007984D01*
X010554Y008051D01*
X010540Y008076D01*
X010529Y008116D01*
X010529Y008345D01*
X010935Y008345D01*
X010935Y008441D01*
X010529Y008441D01*
X010529Y008670D01*
X010540Y008710D01*
X010561Y008747D01*
X010590Y008776D01*
X010626Y008797D01*
X010667Y008808D01*
X010935Y008808D01*
X010935Y008441D01*
X011031Y008441D01*
X011031Y008808D01*
X011299Y008808D01*
X011309Y008805D01*
X011353Y008849D01*
X011548Y008849D01*
X011548Y008918D01*
X011443Y008875D01*
X011293Y008875D01*
X011155Y008932D01*
X011118Y008969D01*
X011082Y008932D01*
X010943Y008875D01*
X010793Y008875D01*
X010655Y008932D01*
X010548Y009038D01*
X010491Y009177D01*
X010491Y009681D01*
X010548Y009820D01*
X010655Y009926D01*
X010793Y009983D01*
X010943Y009983D01*
X011082Y009926D01*
X011108Y009900D01*
X011108Y010172D01*
X011148Y010267D01*
X011403Y010522D01*
X011476Y010596D01*
X011572Y010635D01*
X013602Y010635D01*
X014366Y011399D01*
X014366Y011580D01*
X014336Y011610D01*
X014284Y011735D01*
X014284Y011871D01*
X014336Y011997D01*
X014433Y012093D01*
X014558Y012145D01*
X014694Y012145D01*
X014820Y012093D01*
X014916Y011997D01*
X014968Y011871D01*
X014968Y011735D01*
X014916Y011610D01*
X014886Y011580D01*
X014886Y011240D01*
X014847Y011144D01*
X014773Y011071D01*
X014096Y010393D01*
X015166Y010393D01*
X015269Y010351D01*
X017083Y008537D01*
X017268Y008537D01*
X017371Y008494D01*
X018837Y007028D01*
X018885Y007048D01*
X019116Y007048D01*
X019329Y006960D01*
X019492Y006797D01*
X019581Y006584D01*
X019581Y006353D01*
X019492Y006140D01*
X019329Y005977D01*
X019128Y005893D01*
X019506Y005893D01*
X020571Y006958D01*
X020571Y008403D01*
X020568Y008400D01*
X020532Y008379D01*
X020492Y008368D01*
X020194Y008368D01*
X020194Y008765D01*
X020039Y008765D01*
X019604Y008765D01*
X019604Y008506D01*
X019614Y008466D01*
X019635Y008430D01*
X019665Y008400D01*
X019701Y008379D01*
X019741Y008368D01*
X020039Y008368D01*
X020039Y008765D01*
X020039Y008920D01*
X020039Y009316D01*
X019741Y009316D01*
X019701Y009305D01*
X019665Y009284D01*
X019635Y009255D01*
X019614Y009218D01*
X019604Y009178D01*
X019604Y008920D01*
X020039Y008920D01*
X020194Y008920D01*
X020194Y009316D01*
X020492Y009316D01*
X020532Y009305D01*
X020568Y009284D01*
X020571Y009282D01*
X020571Y009447D01*
X020554Y009430D01*
X019679Y009430D01*
X019562Y009547D01*
X019562Y009624D01*
X019487Y009624D01*
X019461Y009598D01*
X019496Y009563D01*
X019496Y008886D01*
X019434Y008824D01*
X019492Y008766D01*
X019581Y008552D01*
X019581Y008322D01*
X019492Y008108D01*
X019329Y007945D01*
X019116Y007857D01*
X018885Y007857D01*
X018672Y007945D01*
X018509Y008108D01*
X018421Y008322D01*
X018421Y008552D01*
X018509Y008766D01*
X018567Y008824D01*
X018526Y008865D01*
X018429Y008768D01*
X017673Y008768D01*
X017556Y008886D01*
X017556Y008964D01*
X017395Y008964D01*
X017361Y008930D01*
X017147Y008841D01*
X016917Y008841D01*
X016703Y008930D01*
X016540Y009093D01*
X016452Y009306D01*
X016452Y009537D01*
X016540Y009750D01*
X016672Y009881D01*
X016672Y010644D01*
X015069Y012247D01*
X012633Y012247D01*
X012633Y012170D01*
X012564Y012101D01*
X012581Y012073D01*
X012592Y012032D01*
X012592Y011735D01*
X012195Y011735D01*
X012195Y011580D01*
X012592Y011580D01*
X012592Y011282D01*
X012581Y011241D01*
X012562Y011208D01*
X013205Y011208D01*
X013396Y011386D01*
X013396Y011416D01*
X013448Y011542D01*
X013545Y011638D01*
X013670Y011690D01*
X013806Y011690D01*
X013932Y011638D01*
X014028Y011542D01*
X014080Y011416D01*
X014080Y011280D01*
X014028Y011155D01*
X013932Y011058D01*
X013806Y011006D01*
X013752Y011006D01*
X013488Y010761D01*
X013455Y010728D01*
X013450Y010726D01*
X013447Y010723D01*
X013403Y010706D01*
X013359Y010688D01*
X013354Y010688D01*
X013350Y010687D01*
X013303Y010688D01*
X011056Y010688D01*
X010319Y009926D01*
X010319Y009507D01*
X010349Y009477D01*
X010401Y009351D01*
X010401Y009215D01*
X010349Y009090D01*
X010253Y008994D01*
X010127Y008942D01*
X010123Y008942D01*
X010143Y008894D01*
X010228Y008859D01*
X010334Y008753D01*
X010391Y008614D01*
X010391Y008464D01*
X010334Y008326D01*
X010297Y008289D01*
X010334Y008253D01*
X010391Y008114D01*
X010391Y007964D01*
X010334Y007826D01*
X010297Y007789D01*
X010334Y007753D01*
X010391Y007614D01*
X010391Y007464D01*
X010334Y007326D01*
X010297Y007289D01*
X010334Y007253D01*
X010391Y007114D01*
X010391Y006964D01*
X011681Y006964D01*
X011737Y006806D02*
X010314Y006806D01*
X010297Y006789D02*
X010334Y006826D01*
X010391Y006964D01*
X010388Y007123D02*
X011523Y007123D01*
X011737Y006647D02*
X010378Y006647D01*
X010391Y006614D02*
X010334Y006753D01*
X010297Y006789D01*
X010391Y006614D02*
X010391Y006587D01*
X010412Y006593D01*
X010681Y006593D01*
X010681Y006226D01*
X010776Y006226D01*
X010776Y006593D01*
X011045Y006593D01*
X011085Y006582D01*
X011102Y006572D01*
X011120Y006582D01*
X011160Y006593D01*
X011429Y006593D01*
X011429Y006226D01*
X011524Y006226D01*
X011524Y006593D01*
X011737Y006593D01*
X011524Y006489D02*
X011429Y006489D01*
X011429Y006330D02*
X011524Y006330D01*
X011429Y006226D02*
X011429Y006130D01*
X011022Y006130D01*
X010776Y006130D01*
X010776Y006226D01*
X011429Y006226D01*
X011429Y006172D02*
X010776Y006172D01*
X010776Y006330D02*
X010681Y006330D01*
X010681Y006489D02*
X010776Y006489D01*
X010513Y007281D02*
X010306Y007281D01*
X010381Y007440D02*
X010488Y007440D01*
X010488Y007598D02*
X010391Y007598D01*
X010330Y007757D02*
X010488Y007757D01*
X010488Y007915D02*
X010371Y007915D01*
X010391Y008074D02*
X010541Y008074D01*
X010529Y008232D02*
X010342Y008232D01*
X010361Y008391D02*
X010935Y008391D01*
X010935Y008549D02*
X011031Y008549D01*
X011031Y008708D02*
X010935Y008708D01*
X010539Y008708D02*
X010352Y008708D01*
X010391Y008549D02*
X010529Y008549D01*
X010211Y008866D02*
X011548Y008866D01*
X010562Y009025D02*
X010284Y009025D01*
X010388Y009183D02*
X010491Y009183D01*
X010491Y009342D02*
X010401Y009342D01*
X010326Y009500D02*
X010491Y009500D01*
X010491Y009659D02*
X010319Y009659D01*
X010319Y009817D02*
X010547Y009817D01*
X010367Y009976D02*
X010774Y009976D01*
X010962Y009976D02*
X011108Y009976D01*
X011108Y010134D02*
X010520Y010134D01*
X010673Y010293D02*
X011173Y010293D01*
X011332Y010451D02*
X010826Y010451D01*
X010980Y010610D02*
X011510Y010610D01*
X011519Y011208D02*
X011530Y011220D01*
X011530Y012094D01*
X011493Y012132D01*
X011530Y012170D01*
X011530Y013044D01*
X011513Y013062D01*
X011513Y013080D01*
X011531Y013080D01*
X011567Y013115D01*
X011602Y013080D01*
X011621Y013080D01*
X011621Y013062D01*
X011603Y013044D01*
X011603Y012170D01*
X011671Y012101D01*
X011655Y012073D01*
X011644Y012032D01*
X011644Y011735D01*
X012040Y011735D01*
X012040Y011580D01*
X011644Y011580D01*
X011644Y011282D01*
X011655Y011241D01*
X011674Y011208D01*
X011519Y011208D01*
X011530Y011244D02*
X011654Y011244D01*
X011644Y011402D02*
X011530Y011402D01*
X011530Y011561D02*
X011644Y011561D01*
X011530Y011719D02*
X012040Y011719D01*
X012195Y011719D02*
X014291Y011719D01*
X014287Y011878D02*
X012592Y011878D01*
X012591Y012036D02*
X014376Y012036D01*
X014876Y012036D02*
X015280Y012036D01*
X015122Y012195D02*
X012633Y012195D01*
X012118Y012607D02*
X011941Y012784D01*
X011603Y012829D02*
X011530Y012829D01*
X011530Y012987D02*
X011603Y012987D01*
X011603Y012670D02*
X011530Y012670D01*
X011530Y012512D02*
X011603Y012512D01*
X011603Y012353D02*
X011530Y012353D01*
X011530Y012195D02*
X011603Y012195D01*
X011645Y012036D02*
X011530Y012036D01*
X011530Y011878D02*
X011644Y011878D01*
X011193Y011480D02*
X011015Y011657D01*
X011013Y011654D01*
X010501Y012036D02*
X010418Y012036D01*
X010418Y012195D02*
X010501Y012195D01*
X010501Y012353D02*
X010011Y012353D01*
X010011Y012355D02*
X010418Y012355D01*
X010418Y012583D01*
X010407Y012624D01*
X010386Y012660D01*
X010356Y012690D01*
X010320Y012711D01*
X010280Y012721D01*
X010011Y012721D01*
X010011Y012355D01*
X009916Y012353D02*
X009204Y012353D01*
X009204Y012195D02*
X009510Y012195D01*
X009510Y012036D02*
X009204Y012036D01*
X009175Y011878D02*
X009468Y011878D01*
X009468Y011719D02*
X009140Y011719D01*
X009015Y011561D02*
X009468Y011561D01*
X009468Y011402D02*
X008857Y011402D01*
X008698Y011244D02*
X009468Y011244D01*
X009517Y011085D02*
X008540Y011085D01*
X008381Y010927D02*
X009032Y010927D01*
X008883Y010768D02*
X008223Y010768D01*
X008064Y010610D02*
X008851Y010610D01*
X008894Y010451D02*
X007906Y010451D01*
X008058Y010293D02*
X007747Y010293D01*
X007835Y010134D02*
X007589Y010134D01*
X007430Y009976D02*
X007788Y009976D01*
X007816Y009817D02*
X006584Y009817D01*
X006426Y009659D02*
X007947Y009659D01*
X008215Y009500D02*
X006267Y009500D01*
X006109Y009342D02*
X006692Y009342D01*
X006522Y009183D02*
X005950Y009183D01*
X005792Y009025D02*
X006446Y009025D01*
X006414Y008866D02*
X005692Y008866D01*
X005692Y008708D02*
X006416Y008708D01*
X007008Y008067D02*
X007117Y007958D01*
X008008Y007967D02*
X008017Y007958D01*
X008404Y007440D02*
X006249Y007440D01*
X006153Y007440D02*
X005692Y007440D01*
X005692Y007598D02*
X005747Y007598D01*
X005768Y007757D02*
X005692Y007757D01*
X005692Y007915D02*
X005706Y007915D01*
X005692Y008074D02*
X005706Y008074D01*
X005692Y008232D02*
X005706Y008232D01*
X005692Y008391D02*
X005706Y008391D01*
X005692Y008549D02*
X005747Y008549D01*
X005747Y007281D02*
X005692Y007281D01*
X005692Y007123D02*
X005753Y007123D01*
X005692Y006964D02*
X006562Y006964D01*
X006562Y006806D02*
X005692Y006806D01*
X005692Y006647D02*
X006562Y006647D01*
X006562Y006489D02*
X005692Y006489D01*
X005692Y006330D02*
X006669Y006330D01*
X006510Y006172D02*
X005692Y006172D01*
X005692Y006013D02*
X006441Y006013D01*
X006414Y005855D02*
X005692Y005855D01*
X005692Y005696D02*
X006421Y005696D01*
X006486Y005538D02*
X005673Y005538D01*
X005572Y005379D02*
X006619Y005379D01*
X006728Y005221D02*
X005413Y005221D01*
X005255Y005062D02*
X006728Y005062D01*
X006728Y004904D02*
X005096Y004904D01*
X004938Y004745D02*
X006728Y004745D01*
X006728Y004587D02*
X004779Y004587D01*
X004621Y004428D02*
X006800Y004428D01*
X006958Y004270D02*
X006385Y004270D01*
X006539Y004111D02*
X007117Y004111D01*
X007275Y003953D02*
X006604Y003953D01*
X006623Y003794D02*
X007434Y003794D01*
X007640Y003636D02*
X006607Y003636D01*
X007194Y003160D02*
X007545Y003160D01*
X007465Y003002D02*
X007267Y003002D01*
X007267Y002843D02*
X007432Y002843D01*
X007435Y002685D02*
X007267Y002685D01*
X007267Y002526D02*
X007501Y002526D01*
X007631Y002368D02*
X007267Y002368D01*
X006063Y002709D02*
X006043Y002689D01*
X005607Y002685D02*
X005521Y002685D01*
X005521Y002843D02*
X005607Y002843D01*
X005607Y003002D02*
X005521Y003002D01*
X005467Y003160D02*
X005681Y003160D01*
X005696Y003319D02*
X005295Y003319D01*
X005304Y003477D02*
X005546Y003477D01*
X005480Y003636D02*
X005218Y003636D01*
X005463Y003794D02*
X002050Y003794D01*
X001892Y003636D02*
X004706Y003636D01*
X004621Y003477D02*
X001733Y003477D01*
X001575Y003319D02*
X004630Y003319D01*
X004962Y002713D02*
X004967Y002708D01*
X005521Y002526D02*
X005607Y002526D01*
X005607Y002368D02*
X005521Y002368D01*
X005609Y002209D02*
X005420Y002209D01*
X005474Y002051D02*
X005510Y002051D01*
X004967Y001606D02*
X004167Y001606D01*
X005482Y003953D02*
X002209Y003953D01*
X002367Y004111D02*
X005548Y004111D01*
X005701Y004270D02*
X002526Y004270D01*
X006153Y007123D02*
X006249Y007123D01*
X006249Y007281D02*
X006153Y007281D01*
X007008Y006747D02*
X007117Y006856D01*
X008008Y006847D02*
X008017Y006856D01*
X008571Y007757D02*
X008856Y007757D01*
X008698Y007915D02*
X008571Y007915D01*
X008571Y008074D02*
X008618Y008074D01*
X008618Y008232D02*
X008571Y008232D01*
X008536Y008391D02*
X008618Y008391D01*
X008618Y008549D02*
X008534Y008549D01*
X008600Y008708D02*
X008618Y008708D01*
X008602Y008866D02*
X008618Y008866D01*
X008618Y009025D02*
X008570Y009025D01*
X008532Y009183D02*
X008494Y009183D01*
X008374Y009342D02*
X008324Y009342D01*
X008792Y009659D02*
X008933Y009659D01*
X008933Y009817D02*
X008633Y009817D01*
X008475Y009976D02*
X008933Y009976D01*
X008933Y010134D02*
X008425Y010134D01*
X008203Y010293D02*
X008933Y010293D01*
X009503Y010768D02*
X009517Y010768D01*
X009517Y010927D02*
X009354Y010927D01*
X009204Y012512D02*
X009510Y012512D01*
X009551Y012670D02*
X009204Y012670D01*
X009204Y012829D02*
X010501Y012829D01*
X010501Y012987D02*
X009204Y012987D01*
X009204Y013146D02*
X010602Y013146D01*
X010737Y013304D02*
X009204Y013304D01*
X009373Y013463D02*
X010737Y013463D01*
X010737Y013621D02*
X009569Y013621D01*
X009700Y013780D02*
X010737Y013780D01*
X010737Y013938D02*
X009791Y013938D01*
X009842Y014097D02*
X013652Y014097D01*
X013614Y014255D02*
X013092Y014255D01*
X013243Y014414D02*
X013614Y014414D01*
X013626Y014572D02*
X013275Y014572D01*
X013232Y014731D02*
X013669Y014731D01*
X013738Y014889D02*
X013029Y014889D01*
X012837Y014889D02*
X012183Y014889D01*
X012170Y015048D02*
X013830Y015048D01*
X013988Y015206D02*
X012938Y015206D01*
X012774Y014255D02*
X009880Y014255D01*
X009880Y014414D02*
X011924Y014414D01*
X011765Y014572D02*
X009867Y014572D01*
X009825Y014731D02*
X011655Y014731D01*
X011650Y014889D02*
X009755Y014889D01*
X009663Y015048D02*
X011650Y015048D01*
X011650Y015206D02*
X009505Y015206D01*
X009263Y015365D02*
X011650Y015365D01*
X011650Y015523D02*
X009204Y015523D01*
X009204Y015682D02*
X011650Y015682D01*
X011650Y015840D02*
X009204Y015840D01*
X009204Y015999D02*
X011650Y015999D01*
X011650Y016157D02*
X009204Y016157D01*
X009204Y016316D02*
X011650Y016316D01*
X011650Y016474D02*
X009204Y016474D01*
X009204Y016633D02*
X011650Y016633D01*
X011650Y016791D02*
X009204Y016791D01*
X009204Y016950D02*
X011650Y016950D01*
X011673Y017108D02*
X009204Y017108D01*
X009204Y017267D02*
X011808Y017267D01*
X011967Y017425D02*
X009204Y017425D01*
X009204Y017584D02*
X011646Y017584D01*
X011554Y017742D02*
X009204Y017742D01*
X009204Y017901D02*
X011554Y017901D01*
X011554Y018218D02*
X009204Y018218D01*
X009204Y018376D02*
X011564Y018376D01*
X011921Y018376D02*
X012017Y018376D01*
X012017Y018218D02*
X011921Y018218D01*
X011921Y018059D02*
X009204Y018059D01*
X009204Y018535D02*
X014964Y018535D01*
X015233Y018535D02*
X015386Y018535D01*
X016111Y018535D02*
X018152Y018535D01*
X018276Y018376D02*
X016911Y018376D01*
X016911Y018379D02*
X016900Y018420D01*
X016879Y018456D01*
X016850Y018485D01*
X016813Y018506D01*
X016773Y018517D01*
X016544Y018517D01*
X016544Y018111D01*
X016911Y018111D01*
X016911Y018379D01*
X016911Y018218D02*
X018400Y018218D01*
X018520Y018059D02*
X016544Y018059D01*
X016544Y017901D02*
X016448Y017901D01*
X016448Y017742D02*
X016544Y017742D01*
X016746Y017584D02*
X016103Y017584D01*
X016262Y017425D02*
X016707Y017425D01*
X016716Y017267D02*
X016303Y017267D01*
X016342Y017108D02*
X016774Y017108D01*
X017240Y017425D02*
X017277Y017425D01*
X017277Y017584D02*
X017240Y017584D01*
X017240Y017742D02*
X017277Y017742D01*
X017277Y017901D02*
X017240Y017901D01*
X017091Y017901D02*
X016911Y017901D01*
X016544Y018218D02*
X016448Y018218D01*
X016448Y018376D02*
X016544Y018376D01*
X017425Y017901D02*
X018627Y017901D01*
X018734Y017742D02*
X017672Y017742D01*
X017771Y017584D02*
X018841Y017584D01*
X018947Y017425D02*
X017810Y017425D01*
X017801Y017267D02*
X019054Y017267D01*
X019161Y017108D02*
X017743Y017108D01*
X017614Y016950D02*
X019268Y016950D01*
X019368Y016791D02*
X017446Y016791D01*
X018130Y016272D02*
X018650Y016272D01*
X019351Y015571D01*
X019646Y015840D02*
X019885Y015840D01*
X019799Y015999D02*
X019319Y015999D01*
X019160Y016157D02*
X019713Y016157D01*
X019626Y016316D02*
X019002Y016316D01*
X018843Y016474D02*
X019540Y016474D01*
X019454Y016633D02*
X018603Y016633D01*
X018625Y015840D02*
X018685Y015840D01*
X018625Y015682D02*
X018844Y015682D01*
X018951Y015523D02*
X018625Y015523D01*
X018625Y015365D02*
X018992Y015365D01*
X019150Y015206D02*
X018625Y015206D01*
X018390Y015048D02*
X020261Y015048D01*
X020193Y015206D02*
X019551Y015206D01*
X019709Y015365D02*
X020125Y015365D01*
X020058Y015523D02*
X019750Y015523D01*
X019750Y015682D02*
X019972Y015682D01*
X020329Y014889D02*
X019539Y014889D01*
X019499Y014929D02*
X019351Y014929D01*
X019351Y014571D01*
X019709Y014571D01*
X019709Y014719D01*
X019499Y014929D01*
X019351Y014929D02*
X019202Y014929D01*
X018992Y014719D01*
X018992Y014571D01*
X019351Y014571D01*
X019351Y014571D01*
X019709Y014571D01*
X019709Y014423D01*
X019499Y014213D01*
X019351Y014213D01*
X019351Y014571D01*
X019351Y014571D01*
X019351Y014571D01*
X019351Y014929D01*
X019351Y014889D02*
X019351Y014889D01*
X019351Y014731D02*
X019351Y014731D01*
X019351Y014572D02*
X019351Y014572D01*
X019351Y014571D02*
X019351Y014571D01*
X019351Y014213D01*
X019202Y014213D01*
X018992Y014423D01*
X018992Y014571D01*
X019351Y014571D01*
X019351Y014414D02*
X019351Y014414D01*
X019351Y014255D02*
X019351Y014255D01*
X019541Y014255D02*
X020600Y014255D01*
X020663Y014097D02*
X018390Y014097D01*
X018390Y014255D02*
X019160Y014255D01*
X019001Y014414D02*
X018390Y014414D01*
X018390Y014572D02*
X018992Y014572D01*
X019004Y014731D02*
X018390Y014731D01*
X018390Y014889D02*
X019162Y014889D01*
X019697Y014731D02*
X020396Y014731D01*
X020464Y014572D02*
X019709Y014572D01*
X019700Y014414D02*
X020532Y014414D01*
X020718Y013938D02*
X018390Y013938D01*
X018390Y013780D02*
X020773Y013780D01*
X020828Y013621D02*
X018390Y013621D01*
X018390Y013463D02*
X020883Y013463D01*
X020883Y013304D02*
X018390Y013304D01*
X018390Y013146D02*
X019332Y013146D01*
X019198Y013011D02*
X019198Y012815D01*
X019672Y012815D01*
X020146Y012815D01*
X020146Y013011D01*
X019868Y013289D01*
X019672Y013289D01*
X019672Y012815D01*
X019672Y012815D01*
X020146Y012815D01*
X020146Y012619D01*
X019868Y012341D01*
X019672Y012341D01*
X019672Y012815D01*
X019672Y012815D01*
X019672Y012815D01*
X019672Y013289D01*
X019476Y013289D01*
X019198Y013011D01*
X019198Y012987D02*
X018390Y012987D01*
X018363Y012829D02*
X019198Y012829D01*
X019198Y012815D02*
X019198Y012619D01*
X019476Y012341D01*
X019672Y012341D01*
X019672Y012815D01*
X019672Y012815D01*
X019198Y012815D01*
X019198Y012670D02*
X018223Y012670D01*
X018064Y012512D02*
X019305Y012512D01*
X019464Y012353D02*
X017906Y012353D01*
X017747Y012195D02*
X019323Y012195D01*
X019206Y012036D02*
X017589Y012036D01*
X017329Y012512D02*
X017250Y012512D01*
X017243Y012504D02*
X017273Y012534D01*
X017294Y012570D01*
X017305Y012611D01*
X017305Y012879D01*
X016938Y012879D01*
X016938Y012473D01*
X017167Y012473D01*
X017207Y012484D01*
X017243Y012504D01*
X017305Y012670D02*
X017488Y012670D01*
X017646Y012829D02*
X017305Y012829D01*
X017305Y012975D02*
X017305Y013243D01*
X017294Y013283D01*
X017273Y013320D01*
X017243Y013349D01*
X017207Y013370D01*
X017167Y013381D01*
X016938Y013381D01*
X016938Y012975D01*
X017305Y012975D01*
X017305Y012987D02*
X017805Y012987D01*
X017870Y013146D02*
X017305Y013146D01*
X017282Y013304D02*
X017870Y013304D01*
X017870Y013463D02*
X015279Y013463D01*
X015474Y013621D02*
X017870Y013621D01*
X017870Y013780D02*
X015605Y013780D01*
X015697Y013938D02*
X016863Y013938D01*
X016734Y014097D02*
X015747Y014097D01*
X015785Y014255D02*
X016452Y014255D01*
X016294Y014414D02*
X015785Y014414D01*
X015773Y014572D02*
X016183Y014572D01*
X016177Y014731D02*
X015730Y014731D01*
X015660Y014889D02*
X016177Y014889D01*
X016040Y015048D02*
X015569Y015048D01*
X015411Y015206D02*
X015942Y015206D01*
X016697Y014889D02*
X016932Y014889D01*
X016835Y015048D02*
X017870Y015048D01*
X017870Y014889D02*
X017585Y014889D01*
X017749Y014731D02*
X017870Y014731D01*
X017870Y014572D02*
X017822Y014572D01*
X017852Y014414D02*
X017870Y014414D01*
X017870Y014255D02*
X017848Y014255D01*
X017870Y014097D02*
X017783Y014097D01*
X017870Y013938D02*
X017654Y013938D01*
X016938Y013304D02*
X016842Y013304D01*
X016842Y013146D02*
X016938Y013146D01*
X016938Y012987D02*
X016842Y012987D01*
X016842Y012829D02*
X016938Y012829D01*
X016938Y012670D02*
X016842Y012670D01*
X016842Y012512D02*
X016938Y012512D01*
X016680Y011878D02*
X019157Y011878D01*
X019157Y011719D02*
X016615Y011719D01*
X016774Y011561D02*
X019220Y011561D01*
X019356Y011402D02*
X016932Y011402D01*
X017091Y011244D02*
X018514Y011244D01*
X018163Y011085D02*
X017249Y011085D01*
X017236Y011098D02*
X017236Y011098D01*
X017366Y010927D02*
X018046Y010927D01*
X018020Y010768D02*
X017392Y010768D01*
X017392Y010610D02*
X017416Y010610D01*
X017742Y010610D02*
X018067Y010610D01*
X017986Y010451D02*
X018266Y010451D01*
X019496Y010293D02*
X019562Y010293D01*
X019530Y010451D02*
X019603Y010451D01*
X019603Y010610D02*
X019530Y010610D01*
X019530Y010768D02*
X019603Y010768D01*
X019603Y010927D02*
X019530Y010927D01*
X019530Y011085D02*
X019603Y011085D01*
X019616Y011244D02*
X019517Y011244D01*
X019987Y011402D02*
X020883Y011402D01*
X020883Y011244D02*
X020620Y011244D01*
X020633Y011085D02*
X020883Y011085D01*
X020883Y010927D02*
X020633Y010927D01*
X020633Y010768D02*
X020883Y010768D01*
X020883Y010610D02*
X020633Y010610D01*
X020633Y010451D02*
X020883Y010451D01*
X020883Y010293D02*
X020671Y010293D01*
X020665Y009944D02*
X020851Y009759D01*
X020851Y006843D01*
X019622Y005613D01*
X018950Y005613D01*
X017900Y006663D01*
X016100Y006663D01*
X015724Y007039D01*
X015400Y007039D01*
X014931Y007281D02*
X013697Y007281D01*
X013722Y007440D02*
X014856Y007440D01*
X014845Y007598D02*
X013722Y007598D01*
X013722Y007757D02*
X014906Y007757D01*
X014866Y007915D02*
X013722Y007915D01*
X013669Y008074D02*
X014845Y008074D01*
X014894Y008232D02*
X013681Y008232D01*
X013681Y008549D02*
X014845Y008549D01*
X014876Y008391D02*
X013275Y008391D01*
X013275Y008549D02*
X013179Y008549D01*
X013179Y008708D02*
X013275Y008708D01*
X013671Y008708D02*
X014884Y008708D01*
X015026Y008866D02*
X012688Y008866D01*
X012868Y009429D02*
X012868Y009882D01*
X013100Y010113D01*
X015110Y010113D01*
X016967Y008257D01*
X017212Y008257D01*
X019001Y006468D01*
X019581Y006489D02*
X020101Y006489D01*
X020260Y006647D02*
X019554Y006647D01*
X019484Y006806D02*
X020418Y006806D01*
X020571Y006964D02*
X019320Y006964D01*
X018742Y007123D02*
X020571Y007123D01*
X020571Y007281D02*
X018584Y007281D01*
X018425Y007440D02*
X020571Y007440D01*
X020571Y007598D02*
X018267Y007598D01*
X018108Y007757D02*
X020571Y007757D01*
X020571Y007915D02*
X019256Y007915D01*
X019457Y008074D02*
X020571Y008074D01*
X020571Y008232D02*
X019543Y008232D01*
X019581Y008391D02*
X019681Y008391D01*
X019604Y008549D02*
X019581Y008549D01*
X019604Y008708D02*
X019516Y008708D01*
X019476Y008866D02*
X020039Y008866D01*
X020039Y008708D02*
X020194Y008708D01*
X020194Y008549D02*
X020039Y008549D01*
X020039Y008391D02*
X020194Y008391D01*
X020552Y008391D02*
X020571Y008391D01*
X020194Y009025D02*
X020039Y009025D01*
X020039Y009183D02*
X020194Y009183D01*
X020571Y009342D02*
X019496Y009342D01*
X019496Y009500D02*
X019609Y009500D01*
X019605Y009183D02*
X019496Y009183D01*
X019496Y009025D02*
X019604Y009025D01*
X020117Y009944D02*
X020118Y009946D01*
X020124Y011561D02*
X020883Y011561D01*
X020883Y011719D02*
X020187Y011719D01*
X020187Y011878D02*
X020883Y011878D01*
X020883Y012036D02*
X020138Y012036D01*
X020020Y012195D02*
X020883Y012195D01*
X020883Y012353D02*
X019880Y012353D01*
X019672Y012353D02*
X019672Y012353D01*
X019672Y012512D02*
X019672Y012512D01*
X019672Y012670D02*
X019672Y012670D01*
X019672Y012829D02*
X019672Y012829D01*
X019672Y012987D02*
X019672Y012987D01*
X019672Y013146D02*
X019672Y013146D01*
X020011Y013146D02*
X020883Y013146D01*
X020883Y012987D02*
X020146Y012987D01*
X020146Y012829D02*
X020883Y012829D01*
X020883Y012670D02*
X020146Y012670D01*
X020038Y012512D02*
X020883Y012512D01*
X017272Y015206D02*
X017177Y015206D01*
X017177Y015365D02*
X017272Y015365D01*
X016767Y014731D02*
X016712Y014731D01*
X015686Y013304D02*
X014872Y013304D01*
X014526Y013304D02*
X012397Y013304D01*
X012397Y013463D02*
X014120Y013463D01*
X013925Y013621D02*
X012397Y013621D01*
X012397Y013780D02*
X013793Y013780D01*
X013702Y013938D02*
X012397Y013938D01*
X012531Y013146D02*
X015248Y013146D01*
X015233Y013131D02*
X015233Y013131D01*
X015089Y012987D02*
X012633Y012987D01*
X011193Y012784D02*
X011015Y012607D01*
X010501Y012670D02*
X010376Y012670D01*
X010418Y012512D02*
X010501Y012512D01*
X010011Y012512D02*
X009916Y012512D01*
X009916Y012670D02*
X010011Y012670D01*
X012592Y011561D02*
X013467Y011561D01*
X013396Y011402D02*
X012592Y011402D01*
X012581Y011244D02*
X013243Y011244D01*
X013666Y010927D02*
X013894Y010927D01*
X013958Y011085D02*
X014052Y011085D01*
X014065Y011244D02*
X014211Y011244D01*
X014080Y011402D02*
X014366Y011402D01*
X014366Y011561D02*
X014009Y011561D01*
X014629Y010927D02*
X016390Y010927D01*
X016231Y011085D02*
X014788Y011085D01*
X014886Y011244D02*
X016073Y011244D01*
X015914Y011402D02*
X014886Y011402D01*
X014886Y011561D02*
X015756Y011561D01*
X015597Y011719D02*
X014961Y011719D01*
X014965Y011878D02*
X015439Y011878D01*
X014471Y010768D02*
X016548Y010768D01*
X016672Y010610D02*
X014312Y010610D01*
X014154Y010451D02*
X016672Y010451D01*
X016672Y010293D02*
X015327Y010293D01*
X015486Y010134D02*
X016672Y010134D01*
X016672Y009976D02*
X015644Y009976D01*
X015803Y009817D02*
X016608Y009817D01*
X016503Y009659D02*
X015961Y009659D01*
X016120Y009500D02*
X016452Y009500D01*
X016452Y009342D02*
X016278Y009342D01*
X016437Y009183D02*
X016503Y009183D01*
X016595Y009025D02*
X016608Y009025D01*
X016754Y008866D02*
X016857Y008866D01*
X016912Y008708D02*
X018485Y008708D01*
X018421Y008549D02*
X017071Y008549D01*
X017207Y008866D02*
X017576Y008866D01*
X017474Y008391D02*
X018421Y008391D01*
X018458Y008232D02*
X017633Y008232D01*
X017791Y008074D02*
X018544Y008074D01*
X018745Y007915D02*
X017950Y007915D01*
X017700Y006363D02*
X015900Y006363D01*
X015724Y006539D01*
X015400Y006539D01*
X015400Y006039D02*
X017524Y006039D01*
X018550Y005013D01*
X019160Y005013D01*
X019600Y004574D01*
X019600Y004313D01*
X019550Y004263D01*
X018961Y004385D02*
X018339Y004385D01*
X018458Y004428D02*
X016854Y004428D01*
X016854Y004270D02*
X018458Y004270D01*
X018458Y004587D02*
X017721Y004587D01*
X017925Y004745D02*
X018466Y004745D01*
X018264Y004904D02*
X018083Y004904D01*
X018733Y004587D02*
X018786Y004587D01*
X018892Y004428D02*
X018944Y004428D01*
X018750Y005313D02*
X019310Y005313D01*
X020250Y004374D01*
X020250Y003990D01*
X018750Y005313D02*
X017700Y006363D01*
X019365Y006013D02*
X019626Y006013D01*
X019505Y006172D02*
X019784Y006172D01*
X019943Y006330D02*
X019571Y006330D01*
X017917Y004111D02*
X016854Y004111D01*
X016854Y004128D02*
X016448Y004128D01*
X016448Y003761D01*
X016716Y003761D01*
X016756Y003772D01*
X016792Y003793D01*
X016822Y003822D01*
X016843Y003858D01*
X016854Y003899D01*
X016854Y004128D01*
X016854Y003953D02*
X017758Y003953D01*
X017709Y003794D02*
X016794Y003794D01*
X016448Y003794D02*
X016352Y003794D01*
X016352Y003953D02*
X016448Y003953D01*
X016448Y004111D02*
X016352Y004111D01*
X015815Y003636D02*
X017709Y003636D01*
X017283Y003477D02*
X016022Y003477D01*
X015977Y003522D02*
X015977Y003522D01*
X016181Y003319D02*
X017124Y003319D01*
X017002Y003160D02*
X016339Y003160D01*
X016498Y003002D02*
X017002Y003002D01*
X017002Y002843D02*
X016656Y002843D01*
X016840Y002264D02*
X015740Y003363D01*
X010050Y003363D01*
X009450Y002763D01*
X009450Y002513D01*
X009367Y003907D02*
X007717Y003907D01*
X007008Y004616D01*
X007008Y005830D01*
X007397Y005379D02*
X007619Y005379D01*
X007672Y005327D02*
X007508Y005490D01*
X007344Y005327D01*
X007288Y005303D01*
X007288Y004732D01*
X007833Y004187D01*
X008067Y004187D01*
X008047Y004207D01*
X008026Y004243D01*
X008015Y004284D01*
X008015Y004562D01*
X008353Y004562D01*
X008353Y004599D01*
X008353Y005015D01*
X008153Y005015D01*
X008113Y005004D01*
X008077Y004983D01*
X008047Y004953D01*
X008026Y004917D01*
X008015Y004877D01*
X008015Y004599D01*
X008353Y004599D01*
X008389Y004599D01*
X008389Y005015D01*
X008422Y005015D01*
X008348Y005088D01*
X008348Y005126D01*
X008328Y005126D01*
X008210Y005175D01*
X008142Y005243D01*
X008126Y005236D01*
X007890Y005236D01*
X007672Y005327D01*
X007288Y005221D02*
X008165Y005221D01*
X008374Y005062D02*
X007288Y005062D01*
X007288Y004904D02*
X008023Y004904D01*
X008015Y004745D02*
X007288Y004745D01*
X007433Y004587D02*
X008353Y004587D01*
X008353Y004745D02*
X008389Y004745D01*
X008389Y004904D02*
X008353Y004904D01*
X008015Y004428D02*
X007592Y004428D01*
X007750Y004270D02*
X008019Y004270D01*
X009367Y003907D02*
X009667Y004207D01*
X010728Y005430D02*
X010619Y005539D01*
X010719Y005439D02*
X010728Y005430D01*
X014674Y009025D02*
X015803Y009025D01*
X015774Y008866D02*
X015962Y008866D01*
X015915Y008708D02*
X016120Y008708D01*
X015645Y009183D02*
X014745Y009183D01*
X014745Y009342D02*
X015486Y009342D01*
X015328Y009500D02*
X014745Y009500D01*
X014745Y009659D02*
X015169Y009659D01*
X015011Y009817D02*
X014689Y009817D01*
X013735Y010768D02*
X013496Y010768D01*
X007692Y009342D02*
X007324Y009342D01*
X007494Y009183D02*
X007522Y009183D01*
X014980Y016145D02*
X015007Y016118D01*
X015503Y016118D01*
X015744Y016360D01*
X015817Y016433D01*
X015913Y016473D01*
X015942Y016473D01*
X015942Y016571D01*
X016043Y016672D01*
X016020Y016695D01*
X015865Y016850D01*
X015804Y016789D01*
X015678Y016737D01*
X015542Y016737D01*
X015417Y016789D01*
X015390Y016816D01*
X015062Y016816D01*
X015062Y016805D01*
X015051Y016764D01*
X015030Y016728D01*
X015001Y016699D01*
X014964Y016678D01*
X014924Y016667D01*
X014773Y016667D01*
X014773Y016816D01*
X014773Y016816D01*
X014773Y016667D01*
X014653Y016667D01*
X014653Y016295D01*
X014776Y016197D01*
X014855Y016197D01*
X014980Y016145D01*
X014951Y016157D02*
X015542Y016157D01*
X015700Y016316D02*
X014653Y016316D01*
X014653Y016474D02*
X015942Y016474D01*
X016003Y016633D02*
X014653Y016633D01*
X014773Y016791D02*
X014773Y016791D01*
X015058Y016791D02*
X015415Y016791D01*
X015806Y016791D02*
X015924Y016791D01*
X013283Y016791D02*
X012170Y016791D01*
X012170Y016767D02*
X012170Y016892D01*
X012293Y017016D01*
X013283Y017016D01*
X013283Y016749D01*
X013149Y016749D01*
X013023Y016697D01*
X012956Y016630D01*
X012956Y016650D01*
X012839Y016767D01*
X012170Y016767D01*
X012227Y016950D02*
X013283Y016950D01*
X012959Y016633D02*
X012956Y016633D01*
X012323Y017584D02*
X012291Y017584D01*
X012017Y017584D02*
X011921Y017584D01*
X011921Y017742D02*
X012017Y017742D01*
X012017Y017901D02*
X011921Y017901D01*
X015400Y005039D02*
X015400Y005039D01*
X015400Y004904D02*
X015400Y004904D01*
X015400Y004745D02*
X015400Y004745D01*
X015741Y004745D02*
X015904Y004745D01*
X015904Y004904D02*
X015884Y004904D01*
D34*
X018254Y003678D02*
X018964Y003678D01*
X019550Y004263D01*
X020250Y003990D02*
X020250Y003529D01*
X019691Y002971D01*
X018961Y002971D01*
X018051Y009224D02*
X017281Y009224D01*
X017192Y009261D02*
X017032Y009421D01*
X017193Y009261D02*
X017208Y009248D01*
X017224Y009238D01*
X017242Y009230D01*
X017261Y009226D01*
X017281Y009224D01*
X018051Y009972D02*
X017953Y010189D01*
X017579Y010307D01*
X017343Y012157D02*
X016477Y012157D01*
X017343Y012157D02*
X018130Y012945D01*
X018130Y015524D01*
X017225Y016232D02*
X017225Y016646D01*
X017028Y016843D01*
X016240Y016843D01*
X016043Y017039D01*
X016043Y017276D01*
X015843Y017476D01*
X014773Y017476D01*
X014773Y017666D02*
X015095Y017666D01*
X015177Y017748D01*
X015177Y018024D01*
X015099Y018102D01*
X015099Y018220D01*
X015571Y018220D01*
X015650Y018063D01*
X015748Y018063D02*
X015807Y018142D01*
X015571Y018220D01*
X015099Y018220D02*
X013996Y018220D01*
X012933Y018220D01*
X012736Y017866D01*
X012717Y018024D01*
X013091Y017472D02*
X011870Y017472D01*
X011713Y017315D01*
X011516Y017472D02*
X011519Y017476D01*
X013613Y017476D01*
X013363Y017476D01*
X013091Y017472D01*
X013613Y017476D02*
X013678Y017476D01*
X013613Y017276D02*
X012185Y017276D01*
X011910Y017000D01*
X011910Y014795D01*
X012146Y014559D01*
X012933Y014559D01*
X012638Y015504D02*
X012461Y015563D01*
X012638Y015504D02*
X014307Y015504D01*
X014193Y015499D01*
X014193Y016696D01*
X014393Y016696D02*
X014393Y016170D01*
X014787Y015855D01*
X014784Y015858D01*
X014787Y015855D02*
X014862Y015858D01*
X015610Y015858D01*
X015965Y016213D01*
X016417Y016213D01*
X016437Y016232D01*
X016417Y015504D02*
X014307Y015504D01*
X013217Y016407D02*
X013121Y016311D01*
X012461Y016311D01*
X012382Y016882D02*
X012576Y017076D01*
X013613Y017076D01*
X013015Y017076D01*
X013993Y017856D02*
X013996Y017859D01*
X013996Y018220D01*
X014773Y017076D02*
X015607Y017076D01*
X015610Y017079D01*
X015614Y017076D01*
X015607Y017076D01*
X015256Y016528D02*
X014980Y016528D01*
X014852Y016656D01*
X014773Y016886D01*
X016417Y015504D02*
X016437Y015484D01*
X016437Y014638D01*
X016673Y014402D01*
X017239Y014402D01*
X017258Y014382D01*
X017239Y014362D01*
X014626Y011803D02*
X014626Y011291D01*
X013710Y010375D01*
X011623Y010375D01*
X011368Y010120D01*
X011368Y009429D01*
X010059Y009283D02*
X010059Y010031D01*
X010945Y010948D01*
X013308Y010948D01*
X013738Y011348D01*
X009837Y008039D02*
X009374Y008039D01*
X009193Y008220D01*
X009193Y010623D01*
X008130Y009953D02*
X008878Y009205D01*
X008878Y008102D01*
X009441Y007539D01*
X009837Y007539D01*
D35*
X020433Y013378D03*
M02*
