G75*
%MOIN*%
%OFA0B0*%
%FSLAX24Y24*%
%IPPOS*%
%LPD*%
%AMOC8*
5,1,8,0,0,1.08239X$1,22.5*
%
%ADD10C,0.0000*%
%ADD11C,0.0040*%
%ADD12C,0.0079*%
%ADD13C,0.0060*%
%ADD14C,0.0030*%
D10*
X004154Y000307D02*
X009036Y000307D01*
X009090Y000309D01*
X009143Y000314D01*
X009196Y000323D01*
X009248Y000336D01*
X009300Y000352D01*
X009350Y000372D01*
X009398Y000395D01*
X009445Y000422D01*
X009490Y000451D01*
X009533Y000484D01*
X009573Y000519D01*
X009611Y000557D01*
X009646Y000597D01*
X009679Y000640D01*
X009708Y000685D01*
X009735Y000732D01*
X009758Y000780D01*
X009778Y000830D01*
X009794Y000882D01*
X009807Y000934D01*
X009816Y000987D01*
X009821Y001040D01*
X009823Y001094D01*
X009823Y002316D01*
X009825Y002370D01*
X009830Y002423D01*
X009839Y002476D01*
X009852Y002528D01*
X009868Y002580D01*
X009888Y002630D01*
X009911Y002678D01*
X009938Y002725D01*
X009967Y002770D01*
X010000Y002813D01*
X010035Y002853D01*
X010073Y002891D01*
X010113Y002926D01*
X010156Y002959D01*
X010201Y002988D01*
X010248Y003015D01*
X010296Y003038D01*
X010346Y003058D01*
X010398Y003074D01*
X010450Y003087D01*
X010503Y003096D01*
X010556Y003101D01*
X010610Y003103D01*
X010610Y003104D02*
X014626Y003104D01*
X014626Y003103D02*
X014680Y003101D01*
X014733Y003096D01*
X014786Y003087D01*
X014838Y003074D01*
X014890Y003058D01*
X014940Y003038D01*
X014988Y003015D01*
X015035Y002988D01*
X015080Y002959D01*
X015123Y002926D01*
X015163Y002891D01*
X015201Y002853D01*
X015236Y002813D01*
X015269Y002770D01*
X015298Y002725D01*
X015325Y002678D01*
X015348Y002630D01*
X015368Y002580D01*
X015384Y002528D01*
X015397Y002476D01*
X015406Y002423D01*
X015411Y002370D01*
X015413Y002316D01*
X015414Y002316D02*
X015414Y001094D01*
X015416Y001040D01*
X015421Y000987D01*
X015430Y000934D01*
X015443Y000882D01*
X015459Y000830D01*
X015479Y000780D01*
X015502Y000732D01*
X015529Y000685D01*
X015558Y000640D01*
X015591Y000597D01*
X015626Y000557D01*
X015664Y000519D01*
X015704Y000484D01*
X015747Y000451D01*
X015792Y000422D01*
X015839Y000395D01*
X015887Y000372D01*
X015937Y000352D01*
X015989Y000336D01*
X016041Y000323D01*
X016094Y000314D01*
X016147Y000309D01*
X016201Y000307D01*
X017140Y000307D01*
X017419Y000422D02*
X020492Y003496D01*
X021083Y005701D02*
X021083Y013496D01*
X018189Y018811D02*
X005374Y018811D01*
X008573Y017759D02*
X008573Y016184D01*
X008572Y016184D02*
X008574Y016158D01*
X008579Y016133D01*
X008587Y016109D01*
X008598Y016085D01*
X008613Y016064D01*
X008630Y016045D01*
X008649Y016028D01*
X008671Y016013D01*
X008694Y016002D01*
X008718Y015994D01*
X008743Y015989D01*
X008769Y015987D01*
X008795Y015989D01*
X008820Y015994D01*
X008844Y016002D01*
X008868Y016013D01*
X008889Y016028D01*
X008908Y016045D01*
X008925Y016064D01*
X008940Y016086D01*
X008951Y016109D01*
X008959Y016133D01*
X008964Y016158D01*
X008966Y016184D01*
X008966Y017759D01*
X008769Y017956D02*
X008743Y017954D01*
X008718Y017949D01*
X008694Y017941D01*
X008671Y017930D01*
X008649Y017915D01*
X008630Y017898D01*
X008613Y017879D01*
X008598Y017858D01*
X008587Y017834D01*
X008579Y017810D01*
X008574Y017785D01*
X008572Y017759D01*
X008769Y017956D02*
X008795Y017954D01*
X008820Y017949D01*
X008844Y017941D01*
X008868Y017930D01*
X008889Y017915D01*
X008908Y017898D01*
X008925Y017879D01*
X008940Y017857D01*
X008951Y017834D01*
X008959Y017810D01*
X008964Y017785D01*
X008966Y017759D01*
X007908Y014382D02*
X007910Y014441D01*
X007916Y014500D01*
X007926Y014558D01*
X007939Y014616D01*
X007957Y014673D01*
X007978Y014728D01*
X008003Y014782D01*
X008032Y014834D01*
X008064Y014883D01*
X008099Y014931D01*
X008137Y014976D01*
X008178Y015019D01*
X008222Y015059D01*
X008268Y015095D01*
X008317Y015129D01*
X008368Y015159D01*
X008421Y015186D01*
X008476Y015209D01*
X008531Y015228D01*
X008589Y015244D01*
X008647Y015256D01*
X008705Y015264D01*
X008764Y015268D01*
X008824Y015268D01*
X008883Y015264D01*
X008941Y015256D01*
X008999Y015244D01*
X009057Y015228D01*
X009112Y015209D01*
X009167Y015186D01*
X009220Y015159D01*
X009271Y015129D01*
X009320Y015095D01*
X009366Y015059D01*
X009410Y015019D01*
X009451Y014976D01*
X009489Y014931D01*
X009524Y014883D01*
X009556Y014834D01*
X009585Y014782D01*
X009610Y014728D01*
X009631Y014673D01*
X009649Y014616D01*
X009662Y014558D01*
X009672Y014500D01*
X009678Y014441D01*
X009680Y014382D01*
X009678Y014323D01*
X009672Y014264D01*
X009662Y014206D01*
X009649Y014148D01*
X009631Y014091D01*
X009610Y014036D01*
X009585Y013982D01*
X009556Y013930D01*
X009524Y013881D01*
X009489Y013833D01*
X009451Y013788D01*
X009410Y013745D01*
X009366Y013705D01*
X009320Y013669D01*
X009271Y013635D01*
X009220Y013605D01*
X009167Y013578D01*
X009112Y013555D01*
X009057Y013536D01*
X008999Y013520D01*
X008941Y013508D01*
X008883Y013500D01*
X008824Y013496D01*
X008764Y013496D01*
X008705Y013500D01*
X008647Y013508D01*
X008589Y013520D01*
X008531Y013536D01*
X008476Y013555D01*
X008421Y013578D01*
X008368Y013605D01*
X008317Y013635D01*
X008268Y013669D01*
X008222Y013705D01*
X008178Y013745D01*
X008137Y013788D01*
X008099Y013833D01*
X008064Y013881D01*
X008032Y013930D01*
X008003Y013982D01*
X007978Y014036D01*
X007957Y014091D01*
X007939Y014148D01*
X007926Y014206D01*
X007916Y014264D01*
X007910Y014323D01*
X007908Y014382D01*
X005375Y018812D02*
X005226Y018803D01*
X005078Y018791D01*
X004930Y018774D01*
X004783Y018754D01*
X004636Y018730D01*
X004490Y018702D01*
X004345Y018669D01*
X004201Y018634D01*
X004057Y018594D01*
X003915Y018550D01*
X003774Y018503D01*
X003634Y018452D01*
X003496Y018397D01*
X003359Y018338D01*
X003224Y018276D01*
X003091Y018210D01*
X002959Y018141D01*
X002830Y018068D01*
X002702Y017992D01*
X002576Y017913D01*
X002453Y017830D01*
X002332Y017743D01*
X002213Y017654D01*
X002096Y017562D01*
X001982Y017466D01*
X001871Y017367D01*
X001762Y017266D01*
X001657Y017161D01*
X001554Y017054D01*
X001453Y016944D01*
X001356Y016832D01*
X001262Y016717D01*
X001171Y016599D01*
X001083Y016479D01*
X000998Y016357D01*
X000917Y016232D01*
X000839Y016106D01*
X000765Y015977D01*
X000693Y015846D01*
X000626Y015714D01*
X000562Y015580D01*
X000501Y015444D01*
X000445Y015306D01*
X000392Y015167D01*
X000342Y015027D01*
X000297Y014885D01*
X000255Y014743D01*
X000217Y014599D01*
X000217Y014598D02*
X000217Y005307D01*
X002894Y004913D02*
X004272Y004913D01*
X005099Y005740D01*
X005099Y009084D01*
X005156Y009223D02*
X006301Y010368D01*
X006440Y010425D02*
X007046Y010425D01*
X008644Y012023D01*
X008778Y012079D02*
X008803Y012077D01*
X008827Y012073D01*
X008851Y012065D01*
X008873Y012054D01*
X008894Y012040D01*
X008912Y012023D01*
X008913Y012023D02*
X008919Y012016D01*
X008936Y011998D01*
X008950Y011977D01*
X008961Y011955D01*
X008969Y011931D01*
X008973Y011907D01*
X008975Y011882D01*
X008919Y011747D02*
X007261Y010089D01*
X007122Y010031D02*
X006516Y010031D01*
X005492Y009008D01*
X005492Y005664D01*
X005435Y005525D02*
X004487Y004577D01*
X004348Y004520D02*
X002894Y004520D01*
X002868Y004522D01*
X002843Y004527D01*
X002819Y004535D01*
X002795Y004546D01*
X002774Y004561D01*
X002755Y004578D01*
X002738Y004597D01*
X002723Y004619D01*
X002712Y004642D01*
X002704Y004666D01*
X002699Y004691D01*
X002697Y004717D01*
X002699Y004743D01*
X002704Y004768D01*
X002712Y004792D01*
X002723Y004816D01*
X002738Y004837D01*
X002755Y004856D01*
X002774Y004873D01*
X002796Y004888D01*
X002819Y004899D01*
X002843Y004907D01*
X002868Y004912D01*
X002894Y004914D01*
X004348Y004520D02*
X004374Y004522D01*
X004399Y004527D01*
X004423Y004535D01*
X004447Y004546D01*
X004468Y004561D01*
X004487Y004578D01*
X005434Y005525D02*
X005451Y005544D01*
X005466Y005565D01*
X005477Y005589D01*
X005485Y005613D01*
X005490Y005638D01*
X005492Y005664D01*
X021083Y013496D02*
X020963Y013857D01*
X020834Y014215D01*
X020697Y014570D01*
X020552Y014922D01*
X020398Y015270D01*
X020236Y015614D01*
X020066Y015955D01*
X019888Y016291D01*
X019702Y016623D01*
X019509Y016951D01*
X019307Y017273D01*
X019098Y017591D01*
X018882Y017904D01*
X018658Y018212D01*
X018427Y018515D01*
X018189Y018811D01*
X013813Y014382D02*
X013815Y014441D01*
X013821Y014500D01*
X013831Y014558D01*
X013844Y014616D01*
X013862Y014673D01*
X013883Y014728D01*
X013908Y014782D01*
X013937Y014834D01*
X013969Y014883D01*
X014004Y014931D01*
X014042Y014976D01*
X014083Y015019D01*
X014127Y015059D01*
X014173Y015095D01*
X014222Y015129D01*
X014273Y015159D01*
X014326Y015186D01*
X014381Y015209D01*
X014436Y015228D01*
X014494Y015244D01*
X014552Y015256D01*
X014610Y015264D01*
X014669Y015268D01*
X014729Y015268D01*
X014788Y015264D01*
X014846Y015256D01*
X014904Y015244D01*
X014962Y015228D01*
X015017Y015209D01*
X015072Y015186D01*
X015125Y015159D01*
X015176Y015129D01*
X015225Y015095D01*
X015271Y015059D01*
X015315Y015019D01*
X015356Y014976D01*
X015394Y014931D01*
X015429Y014883D01*
X015461Y014834D01*
X015490Y014782D01*
X015515Y014728D01*
X015536Y014673D01*
X015554Y014616D01*
X015567Y014558D01*
X015577Y014500D01*
X015583Y014441D01*
X015585Y014382D01*
X015583Y014323D01*
X015577Y014264D01*
X015567Y014206D01*
X015554Y014148D01*
X015536Y014091D01*
X015515Y014036D01*
X015490Y013982D01*
X015461Y013930D01*
X015429Y013881D01*
X015394Y013833D01*
X015356Y013788D01*
X015315Y013745D01*
X015271Y013705D01*
X015225Y013669D01*
X015176Y013635D01*
X015125Y013605D01*
X015072Y013578D01*
X015017Y013555D01*
X014962Y013536D01*
X014904Y013520D01*
X014846Y013508D01*
X014788Y013500D01*
X014729Y013496D01*
X014669Y013496D01*
X014610Y013500D01*
X014552Y013508D01*
X014494Y013520D01*
X014436Y013536D01*
X014381Y013555D01*
X014326Y013578D01*
X014273Y013605D01*
X014222Y013635D01*
X014173Y013669D01*
X014127Y013705D01*
X014083Y013745D01*
X014042Y013788D01*
X014004Y013833D01*
X013969Y013881D01*
X013937Y013930D01*
X013908Y013982D01*
X013883Y014036D01*
X013862Y014091D01*
X013844Y014148D01*
X013831Y014206D01*
X013821Y014264D01*
X013815Y014323D01*
X013813Y014382D01*
X008975Y011882D02*
X008973Y011857D01*
X008969Y011833D01*
X008961Y011809D01*
X008950Y011787D01*
X008936Y011766D01*
X008919Y011748D01*
X008778Y012079D02*
X008753Y012077D01*
X008729Y012073D01*
X008705Y012065D01*
X008683Y012054D01*
X008662Y012040D01*
X008644Y012023D01*
X007261Y010089D02*
X007242Y010072D01*
X007221Y010057D01*
X007197Y010046D01*
X007173Y010038D01*
X007148Y010033D01*
X007122Y010031D01*
X006440Y010425D02*
X006414Y010423D01*
X006389Y010418D01*
X006365Y010410D01*
X006341Y010399D01*
X006320Y010384D01*
X006301Y010367D01*
X005156Y009223D02*
X005139Y009204D01*
X005124Y009183D01*
X005113Y009159D01*
X005105Y009135D01*
X005100Y009110D01*
X005098Y009084D01*
X000217Y005307D02*
X000313Y005067D01*
X000415Y004830D01*
X000522Y004595D01*
X000635Y004362D01*
X000754Y004133D01*
X000878Y003906D01*
X001007Y003682D01*
X001141Y003462D01*
X001281Y003245D01*
X001426Y003031D01*
X001576Y002820D01*
X001731Y002614D01*
X001891Y002411D01*
X002056Y002212D01*
X002225Y002016D01*
X002399Y001825D01*
X002577Y001639D01*
X002760Y001456D01*
X002947Y001278D01*
X003138Y001104D01*
X003334Y000935D01*
X003533Y000771D01*
X003736Y000611D01*
X003943Y000457D01*
X004154Y000307D01*
X020492Y003496D02*
X020554Y003625D01*
X020614Y003756D01*
X020670Y003888D01*
X020723Y004022D01*
X020772Y004157D01*
X020818Y004293D01*
X020860Y004430D01*
X020899Y004569D01*
X020935Y004708D01*
X020967Y004848D01*
X020995Y004989D01*
X021020Y005130D01*
X021041Y005272D01*
X021058Y005415D01*
X021072Y005558D01*
X021082Y005701D01*
X017419Y000422D02*
X017390Y000396D01*
X017359Y000373D01*
X017326Y000354D01*
X017291Y000337D01*
X017254Y000324D01*
X017217Y000315D01*
X017179Y000309D01*
X017140Y000307D01*
D11*
X003667Y001817D02*
X003387Y001817D01*
X003527Y001864D02*
X003527Y001677D01*
X003667Y001817D01*
X003573Y001972D02*
X003667Y002065D01*
X003387Y002065D01*
X003387Y001972D02*
X003387Y002159D01*
X003527Y002266D02*
X003527Y002453D01*
X003573Y002561D02*
X003620Y002561D01*
X003667Y002608D01*
X003667Y002701D01*
X003620Y002748D01*
X003573Y002748D01*
X003527Y002701D01*
X003527Y002608D01*
X003573Y002561D01*
X003527Y002608D02*
X003480Y002561D01*
X003433Y002561D01*
X003387Y002608D01*
X003387Y002701D01*
X003433Y002748D01*
X003480Y002748D01*
X003527Y002701D01*
X003387Y002406D02*
X003667Y002406D01*
X003527Y002266D01*
X003915Y001107D02*
X004009Y001061D01*
X004102Y000967D01*
X003962Y000967D01*
X003915Y000920D01*
X003915Y000874D01*
X003962Y000827D01*
X004055Y000827D01*
X004102Y000874D01*
X004102Y000967D01*
X004210Y000874D02*
X004210Y001061D01*
X004257Y001107D01*
X004397Y001107D01*
X004397Y000827D01*
X004257Y000827D01*
X004210Y000874D01*
X004715Y000874D02*
X004762Y000827D01*
X004855Y000827D01*
X004902Y000874D01*
X004902Y000967D02*
X004809Y001014D01*
X004762Y001014D01*
X004715Y000967D01*
X004715Y000874D01*
X004902Y000967D02*
X004902Y001107D01*
X004715Y001107D01*
X005010Y001061D02*
X005010Y000874D01*
X005057Y000827D01*
X005197Y000827D01*
X005197Y001107D01*
X005057Y001107D01*
X005010Y001061D01*
X006585Y001627D02*
X006725Y001720D01*
X006585Y001814D01*
X006725Y001907D02*
X006725Y001627D01*
X006833Y001860D02*
X007020Y001673D01*
X007020Y001627D01*
X007128Y001627D02*
X007315Y001627D01*
X007128Y001814D01*
X007128Y001860D01*
X007175Y001907D01*
X007268Y001907D01*
X007315Y001860D01*
X007265Y002014D02*
X007265Y002294D01*
X007125Y002294D01*
X007078Y002247D01*
X007078Y002154D01*
X007125Y002107D01*
X007265Y002107D01*
X007171Y002107D02*
X007078Y002014D01*
X006970Y002014D02*
X006970Y002060D01*
X006783Y002247D01*
X006783Y002294D01*
X006970Y002294D01*
X007020Y001907D02*
X006833Y001907D01*
X006833Y001860D01*
X007213Y003859D02*
X007213Y004139D01*
X007353Y003999D01*
X007167Y003999D01*
X007461Y003999D02*
X007648Y003999D01*
X007508Y004139D01*
X007508Y003859D01*
X007756Y003859D02*
X007943Y003859D01*
X007756Y004046D01*
X007756Y004092D01*
X007803Y004139D01*
X007896Y004139D01*
X007943Y004092D01*
X008051Y004092D02*
X008051Y004046D01*
X008097Y003999D01*
X008191Y003999D01*
X008237Y004046D01*
X008237Y004092D01*
X008191Y004139D01*
X008097Y004139D01*
X008051Y004092D01*
X008097Y003999D02*
X008051Y003952D01*
X008051Y003906D01*
X008097Y003859D01*
X008191Y003859D01*
X008237Y003906D01*
X008237Y003952D01*
X008191Y003999D01*
X008345Y003859D02*
X008532Y003859D01*
X008532Y004139D01*
X008640Y004139D02*
X008640Y003859D01*
X008827Y003859D02*
X008827Y004139D01*
X008733Y004046D01*
X008640Y004139D01*
X008935Y004139D02*
X009121Y004139D01*
X009121Y003859D01*
X009229Y003859D02*
X009323Y003952D01*
X009276Y003952D02*
X009416Y003952D01*
X009416Y003859D02*
X009416Y004139D01*
X009276Y004139D01*
X009229Y004092D01*
X009229Y003999D01*
X009276Y003952D01*
X009121Y003999D02*
X009028Y003999D01*
X009519Y003859D02*
X009612Y003859D01*
X009566Y003859D02*
X009566Y004139D01*
X009612Y004139D02*
X009519Y004139D01*
X009552Y004377D02*
X009552Y004657D01*
X009645Y004564D01*
X009753Y004657D02*
X009940Y004657D01*
X009847Y004657D02*
X009847Y004377D01*
X009645Y004377D02*
X009458Y004377D01*
X010326Y004360D02*
X010326Y004266D01*
X010373Y004219D01*
X010560Y004406D01*
X010373Y004406D01*
X010326Y004360D01*
X010373Y004219D02*
X010560Y004219D01*
X010606Y004266D01*
X010606Y004360D01*
X010560Y004406D01*
X010560Y004514D02*
X010606Y004561D01*
X010606Y004654D01*
X010560Y004701D01*
X010373Y004514D01*
X010326Y004561D01*
X010326Y004654D01*
X010373Y004701D01*
X010560Y004701D01*
X010513Y004809D02*
X010326Y004809D01*
X010326Y004996D02*
X010466Y004996D01*
X010513Y004949D01*
X010513Y004809D01*
X010716Y004856D02*
X010716Y004949D01*
X010763Y004996D01*
X010856Y004996D01*
X010903Y004949D01*
X010903Y004902D01*
X010856Y004809D01*
X010996Y004809D01*
X010996Y004996D01*
X011114Y004984D02*
X011207Y004844D01*
X011300Y004984D01*
X011394Y004844D02*
X011114Y004844D01*
X011114Y004736D02*
X011114Y004549D01*
X011114Y004643D02*
X011394Y004643D01*
X011300Y004549D01*
X011543Y004500D02*
X011823Y004500D01*
X011823Y004640D01*
X011776Y004687D01*
X011683Y004687D01*
X011636Y004640D01*
X011636Y004500D01*
X011636Y004594D02*
X011543Y004687D01*
X011589Y004795D02*
X011636Y004795D01*
X011683Y004842D01*
X011683Y004935D01*
X011636Y004982D01*
X011589Y004982D01*
X011543Y004935D01*
X011543Y004842D01*
X011589Y004795D01*
X011683Y004842D02*
X011729Y004795D01*
X011776Y004795D01*
X011823Y004842D01*
X011823Y004935D01*
X011776Y004982D01*
X011729Y004982D01*
X011683Y004935D01*
X010996Y004654D02*
X010996Y004561D01*
X010949Y004514D01*
X010763Y004514D01*
X010716Y004561D01*
X010716Y004654D01*
X010763Y004701D01*
X010763Y004809D02*
X010716Y004856D01*
X010949Y004701D02*
X010996Y004654D01*
X010560Y004514D02*
X010373Y004514D01*
X010326Y004112D02*
X010326Y003925D01*
X010326Y004018D02*
X010606Y004018D01*
X010513Y003925D01*
X009349Y005492D02*
X009069Y005492D01*
X009162Y005492D02*
X009162Y005633D01*
X009209Y005679D01*
X009302Y005679D01*
X009349Y005633D01*
X009349Y005492D01*
X009162Y005586D02*
X009069Y005679D01*
X009069Y005787D02*
X009349Y005974D01*
X009349Y005787D02*
X009069Y005974D01*
X009086Y007494D02*
X009086Y007774D01*
X008993Y007774D02*
X009180Y007774D01*
X009027Y007963D02*
X009027Y008150D01*
X009073Y008258D02*
X009167Y008351D01*
X008887Y008351D01*
X008887Y008258D02*
X008887Y008445D01*
X008767Y008391D02*
X008487Y008391D01*
X008487Y008484D02*
X008487Y008297D01*
X008533Y008189D02*
X008487Y008143D01*
X008487Y008003D01*
X008767Y008003D01*
X008767Y008143D01*
X008720Y008189D01*
X008533Y008189D01*
X008673Y008297D02*
X008767Y008391D01*
X009027Y008553D02*
X009027Y008739D01*
X009073Y008847D02*
X009120Y008847D01*
X009167Y008894D01*
X009167Y008987D01*
X009120Y009034D01*
X009073Y009034D01*
X009027Y008987D01*
X009027Y008894D01*
X009073Y008847D01*
X009027Y008894D02*
X008980Y008847D01*
X008933Y008847D01*
X008887Y008894D01*
X008887Y008987D01*
X008933Y009034D01*
X008980Y009034D01*
X009027Y008987D01*
X008887Y008693D02*
X009167Y008693D01*
X009027Y008553D01*
X008887Y008103D02*
X009167Y008103D01*
X009027Y007963D01*
X008885Y007774D02*
X008698Y007494D01*
X008885Y007494D02*
X008698Y007774D01*
X010305Y007799D02*
X010305Y007612D01*
X010305Y007705D02*
X010585Y007705D01*
X010492Y007612D01*
X010538Y007907D02*
X010352Y007907D01*
X010538Y008093D01*
X010352Y008093D01*
X010305Y008047D01*
X010305Y007953D01*
X010352Y007907D01*
X010538Y007907D02*
X010585Y007953D01*
X010585Y008047D01*
X010538Y008093D01*
X010585Y008201D02*
X010305Y008201D01*
X010398Y008201D02*
X010492Y008341D01*
X010398Y008201D02*
X010305Y008341D01*
X010773Y007218D02*
X010773Y007032D01*
X010960Y007218D01*
X011007Y007218D01*
X011054Y007172D01*
X011054Y007078D01*
X011007Y007032D01*
X011007Y006924D02*
X010913Y006924D01*
X010867Y006877D01*
X010867Y006737D01*
X010867Y006830D02*
X010773Y006924D01*
X010773Y006737D02*
X011054Y006737D01*
X011054Y006877D01*
X011007Y006924D01*
X011368Y006895D02*
X011368Y006802D01*
X011415Y006755D01*
X011601Y006942D01*
X011415Y006942D01*
X011368Y006895D01*
X011415Y006755D02*
X011601Y006755D01*
X011648Y006802D01*
X011648Y006895D01*
X011601Y006942D01*
X011601Y007050D02*
X011415Y007050D01*
X011601Y007237D01*
X011415Y007237D01*
X011368Y007190D01*
X011368Y007096D01*
X011415Y007050D01*
X011601Y007050D02*
X011648Y007096D01*
X011648Y007190D01*
X011601Y007237D01*
X011758Y007237D02*
X011758Y007050D01*
X011758Y007143D02*
X012038Y007143D01*
X011944Y007050D01*
X011898Y006942D02*
X011851Y006895D01*
X011851Y006755D01*
X011758Y006755D02*
X012038Y006755D01*
X012038Y006895D01*
X011991Y006942D01*
X011898Y006942D01*
X011851Y006849D02*
X011758Y006942D01*
X012155Y006895D02*
X012155Y006802D01*
X012202Y006755D01*
X012389Y006942D01*
X012202Y006942D01*
X012155Y006895D01*
X012202Y006755D02*
X012389Y006755D01*
X012435Y006802D01*
X012435Y006895D01*
X012389Y006942D01*
X012389Y007050D02*
X012202Y007050D01*
X012389Y007237D01*
X012202Y007237D01*
X012155Y007190D01*
X012155Y007096D01*
X012202Y007050D01*
X012389Y007050D02*
X012435Y007096D01*
X012435Y007190D01*
X012389Y007237D01*
X012584Y007190D02*
X012584Y007096D01*
X012631Y007050D01*
X012584Y006942D02*
X012678Y006849D01*
X012678Y006895D02*
X012678Y006755D01*
X012584Y006755D02*
X012865Y006755D01*
X012865Y006895D01*
X012818Y006942D01*
X012725Y006942D01*
X012678Y006895D01*
X012818Y007050D02*
X012865Y007096D01*
X012865Y007190D01*
X012818Y007237D01*
X012771Y007237D01*
X012725Y007190D01*
X012678Y007237D01*
X012631Y007237D01*
X012584Y007190D01*
X012725Y007190D02*
X012725Y007143D01*
X013096Y007190D02*
X013376Y007190D01*
X013236Y007050D01*
X013236Y007237D01*
X013236Y006942D02*
X013190Y006895D01*
X013190Y006755D01*
X013190Y006849D02*
X013096Y006942D01*
X013236Y006942D02*
X013330Y006942D01*
X013376Y006895D01*
X013376Y006755D01*
X013096Y006755D01*
X013688Y006437D02*
X013968Y006437D01*
X013828Y006297D01*
X013828Y006484D01*
X013828Y006189D02*
X013828Y006002D01*
X013968Y006142D01*
X013688Y006142D01*
X013688Y005894D02*
X013688Y005707D01*
X013875Y005894D01*
X013921Y005894D01*
X013968Y005848D01*
X013968Y005754D01*
X013921Y005707D01*
X013921Y005600D02*
X013875Y005600D01*
X013828Y005553D01*
X013828Y005459D01*
X013875Y005413D01*
X013921Y005413D01*
X013968Y005459D01*
X013968Y005553D01*
X013921Y005600D01*
X013828Y005553D02*
X013781Y005600D01*
X013735Y005600D01*
X013688Y005553D01*
X013688Y005459D01*
X013735Y005413D01*
X013781Y005413D01*
X013828Y005459D01*
X013688Y005305D02*
X013688Y005118D01*
X013968Y005118D01*
X013968Y005010D02*
X013688Y005010D01*
X013688Y004823D02*
X013968Y004823D01*
X013875Y004917D01*
X013968Y005010D01*
X013968Y004716D02*
X013968Y004529D01*
X013688Y004529D01*
X013688Y004421D02*
X013781Y004328D01*
X013781Y004374D02*
X013781Y004234D01*
X013688Y004234D02*
X013968Y004234D01*
X013968Y004374D01*
X013921Y004421D01*
X013828Y004421D01*
X013781Y004374D01*
X013828Y004529D02*
X013828Y004622D01*
X013527Y004615D02*
X013480Y004569D01*
X013527Y004615D02*
X013527Y004709D01*
X013480Y004755D01*
X013434Y004755D01*
X013247Y004569D01*
X013247Y004755D01*
X013247Y004367D02*
X013527Y004367D01*
X013527Y004274D02*
X013527Y004461D01*
X013688Y004131D02*
X013688Y004038D01*
X013688Y004084D02*
X013968Y004084D01*
X013968Y004038D02*
X013968Y004131D01*
X015686Y004298D02*
X015686Y004392D01*
X015733Y004438D01*
X015733Y004546D02*
X015686Y004593D01*
X015686Y004686D01*
X015733Y004733D01*
X015780Y004733D01*
X015826Y004686D01*
X015826Y004546D01*
X015733Y004546D01*
X015826Y004546D02*
X015920Y004640D01*
X015967Y004733D01*
X015920Y004438D02*
X015967Y004392D01*
X015967Y004298D01*
X015920Y004251D01*
X015733Y004251D01*
X015686Y004298D01*
X016793Y004746D02*
X016839Y004793D01*
X016933Y004793D01*
X016886Y004839D01*
X016886Y004886D01*
X016933Y004933D01*
X017026Y004933D01*
X017026Y004793D02*
X016933Y004793D01*
X016933Y004638D02*
X016886Y004591D01*
X016886Y004498D01*
X016933Y004451D01*
X017120Y004638D01*
X016933Y004638D01*
X017120Y004638D02*
X017166Y004591D01*
X017166Y004498D01*
X017120Y004451D01*
X016933Y004451D01*
X016886Y004343D02*
X016886Y004157D01*
X016886Y004250D02*
X017166Y004250D01*
X017073Y004157D01*
X013838Y007612D02*
X013932Y007705D01*
X013651Y007705D01*
X013651Y007612D02*
X013651Y007799D01*
X013698Y007907D02*
X013885Y008093D01*
X013698Y008093D01*
X013651Y008047D01*
X013651Y007953D01*
X013698Y007907D01*
X013885Y007907D01*
X013932Y007953D01*
X013932Y008047D01*
X013885Y008093D01*
X013932Y008201D02*
X013651Y008201D01*
X013745Y008201D02*
X013838Y008341D01*
X013745Y008201D02*
X013651Y008341D01*
X012155Y006647D02*
X012155Y006460D01*
X012155Y006554D02*
X012435Y006554D01*
X012342Y006460D01*
X011648Y006554D02*
X011368Y006554D01*
X011368Y006647D02*
X011368Y006460D01*
X011555Y006460D02*
X011648Y006554D01*
X015758Y009033D02*
X015805Y008987D01*
X015898Y008987D01*
X015945Y009033D01*
X015758Y009220D01*
X015758Y009033D01*
X015945Y009033D02*
X015945Y009220D01*
X015898Y009267D01*
X015805Y009267D01*
X015758Y009220D01*
X016053Y009220D02*
X016053Y009033D01*
X016099Y008987D01*
X016193Y008987D01*
X016239Y009033D01*
X016053Y009220D01*
X016099Y009267D01*
X016193Y009267D01*
X016239Y009220D01*
X016239Y009033D01*
X016347Y008987D02*
X016534Y008987D01*
X016441Y008987D02*
X016441Y009267D01*
X016534Y009173D01*
X016416Y008827D02*
X016276Y008827D01*
X016229Y008780D01*
X016229Y008687D01*
X016276Y008640D01*
X016416Y008640D01*
X016416Y008547D02*
X016416Y008827D01*
X016323Y008640D02*
X016229Y008547D01*
X016121Y008593D02*
X016075Y008547D01*
X015981Y008547D01*
X015934Y008593D01*
X015934Y008780D01*
X015981Y008827D01*
X016075Y008827D01*
X016121Y008780D01*
X016121Y008734D01*
X016075Y008687D01*
X015934Y008687D01*
X017745Y008720D02*
X017745Y008626D01*
X017792Y008580D01*
X017978Y008767D01*
X017792Y008767D01*
X017745Y008720D01*
X017792Y008580D02*
X017978Y008580D01*
X018025Y008626D01*
X018025Y008720D01*
X017978Y008767D01*
X018143Y008720D02*
X018143Y008626D01*
X018189Y008580D01*
X018376Y008767D01*
X018189Y008767D01*
X018143Y008720D01*
X018189Y008580D02*
X018376Y008580D01*
X018423Y008626D01*
X018423Y008720D01*
X018376Y008767D01*
X018143Y008472D02*
X018143Y008285D01*
X018143Y008379D02*
X018423Y008379D01*
X018329Y008285D01*
X018376Y008177D02*
X018283Y008177D01*
X018236Y008131D01*
X018236Y007990D01*
X018143Y007990D02*
X018423Y007990D01*
X018423Y008131D01*
X018376Y008177D01*
X018236Y008084D02*
X018143Y008177D01*
X018025Y008084D02*
X017745Y008084D01*
X017745Y008177D02*
X017745Y007990D01*
X017932Y007990D02*
X018025Y008084D01*
X017978Y008285D02*
X017792Y008285D01*
X017978Y008472D01*
X017792Y008472D01*
X017745Y008425D01*
X017745Y008332D01*
X017792Y008285D01*
X017978Y008285D02*
X018025Y008332D01*
X018025Y008425D01*
X017978Y008472D01*
X020587Y008513D02*
X020587Y008653D01*
X020633Y008700D01*
X020820Y008700D01*
X020867Y008653D01*
X020867Y008513D01*
X020587Y008513D01*
X020633Y008808D02*
X020680Y008808D01*
X020727Y008855D01*
X020727Y008948D01*
X020680Y008995D01*
X020633Y008995D01*
X020587Y008948D01*
X020587Y008855D01*
X020633Y008808D01*
X020727Y008855D02*
X020773Y008808D01*
X020820Y008808D01*
X020867Y008855D01*
X020867Y008948D01*
X020820Y008995D01*
X020773Y008995D01*
X020727Y008948D01*
X020727Y009313D02*
X020727Y009500D01*
X020773Y009608D02*
X020867Y009701D01*
X020587Y009701D01*
X020587Y009608D02*
X020587Y009795D01*
X020727Y009903D02*
X020727Y010089D01*
X020773Y010197D02*
X020820Y010197D01*
X020867Y010244D01*
X020867Y010337D01*
X020820Y010384D01*
X020773Y010384D01*
X020727Y010337D01*
X020727Y010244D01*
X020773Y010197D01*
X020727Y010244D02*
X020680Y010197D01*
X020633Y010197D01*
X020587Y010244D01*
X020587Y010337D01*
X020633Y010384D01*
X020680Y010384D01*
X020727Y010337D01*
X020587Y010043D02*
X020867Y010043D01*
X020727Y009903D01*
X020587Y009453D02*
X020867Y009453D01*
X020727Y009313D01*
X020347Y011313D02*
X020207Y011313D01*
X020160Y011360D01*
X020160Y011547D01*
X020207Y011594D01*
X020347Y011594D01*
X020347Y011313D01*
X020052Y011313D02*
X020052Y011360D01*
X019865Y011547D01*
X019865Y011594D01*
X020052Y011594D01*
X019647Y011453D02*
X019460Y011453D01*
X019352Y011500D02*
X019259Y011594D01*
X019259Y011313D01*
X019352Y011313D02*
X019165Y011313D01*
X019057Y011453D02*
X018871Y011453D01*
X018763Y011407D02*
X018716Y011453D01*
X018623Y011453D01*
X018576Y011407D01*
X018576Y011360D01*
X018623Y011313D01*
X018716Y011313D01*
X018763Y011360D01*
X018763Y011407D01*
X018716Y011453D02*
X018763Y011500D01*
X018763Y011547D01*
X018716Y011594D01*
X018623Y011594D01*
X018576Y011547D01*
X018576Y011500D01*
X018623Y011453D01*
X018917Y011313D02*
X018917Y011594D01*
X019057Y011453D01*
X019507Y011313D02*
X019507Y011594D01*
X019647Y011453D01*
X017911Y012879D02*
X017724Y012879D01*
X017818Y012879D02*
X017818Y013159D01*
X017911Y013066D01*
X017616Y013112D02*
X017616Y012925D01*
X017429Y013112D01*
X017429Y012925D01*
X017476Y012879D01*
X017570Y012879D01*
X017616Y012925D01*
X017616Y013112D02*
X017570Y013159D01*
X017476Y013159D01*
X017429Y013112D01*
X017275Y013019D02*
X017275Y012925D01*
X017275Y012832D01*
X017322Y012785D01*
X017228Y012879D02*
X017275Y012925D01*
X017228Y012879D02*
X017182Y012879D01*
X017135Y012925D01*
X017135Y013019D01*
X017328Y012614D02*
X017328Y012334D01*
X017235Y012334D02*
X017422Y012334D01*
X017529Y012381D02*
X017576Y012334D01*
X017670Y012334D01*
X017716Y012381D01*
X017716Y012568D01*
X017670Y012614D01*
X017576Y012614D01*
X017529Y012568D01*
X017422Y012521D02*
X017328Y012614D01*
X013596Y012467D02*
X013409Y012467D01*
X013302Y012514D02*
X013208Y012607D01*
X013208Y012327D01*
X013115Y012327D02*
X013302Y012327D01*
X013456Y012327D02*
X013456Y012607D01*
X013596Y012467D01*
X013007Y012467D02*
X012820Y012467D01*
X012712Y012420D02*
X012666Y012467D01*
X012572Y012467D01*
X012525Y012420D01*
X012525Y012374D01*
X012572Y012327D01*
X012666Y012327D01*
X012712Y012374D01*
X012712Y012420D01*
X012666Y012467D02*
X012712Y012514D01*
X012712Y012561D01*
X012666Y012607D01*
X012572Y012607D01*
X012525Y012561D01*
X012525Y012514D01*
X012572Y012467D01*
X012867Y012327D02*
X012867Y012607D01*
X013007Y012467D01*
X013045Y012766D02*
X012905Y012766D01*
X012858Y012813D01*
X012858Y013000D01*
X012905Y013047D01*
X013045Y013047D01*
X013045Y012766D01*
X012750Y012813D02*
X012704Y012766D01*
X012610Y012766D01*
X012564Y012813D01*
X012564Y012860D01*
X012610Y012907D01*
X012657Y012907D01*
X012610Y012907D02*
X012564Y012953D01*
X012564Y013000D01*
X012610Y013047D01*
X012704Y013047D01*
X012750Y013000D01*
X012758Y011782D02*
X012898Y011782D01*
X012898Y011501D01*
X012758Y011501D01*
X012711Y011548D01*
X012711Y011735D01*
X012758Y011782D01*
X012604Y011642D02*
X012417Y011642D01*
X012463Y011782D02*
X012463Y011501D01*
X012504Y011342D02*
X012457Y011296D01*
X012457Y011249D01*
X012504Y011202D01*
X012598Y011202D01*
X012644Y011249D01*
X012644Y011296D01*
X012598Y011342D01*
X012504Y011342D01*
X012504Y011202D02*
X012457Y011156D01*
X012457Y011109D01*
X012504Y011062D01*
X012598Y011062D01*
X012644Y011109D01*
X012644Y011156D01*
X012598Y011202D01*
X012752Y011202D02*
X012939Y011202D01*
X012799Y011342D01*
X012799Y011062D01*
X013047Y011062D02*
X013234Y011062D01*
X013140Y011062D02*
X013140Y011342D01*
X013234Y011249D01*
X013341Y011202D02*
X013528Y011202D01*
X013388Y011342D01*
X013388Y011062D01*
X012604Y011642D02*
X012463Y011782D01*
X010864Y010626D02*
X010770Y010719D01*
X010770Y010439D01*
X010677Y010439D02*
X010864Y010439D01*
X010569Y010486D02*
X010382Y010672D01*
X010382Y010486D01*
X010429Y010439D01*
X010522Y010439D01*
X010569Y010486D01*
X010569Y010672D01*
X010522Y010719D01*
X010429Y010719D01*
X010382Y010672D01*
X010275Y010672D02*
X010228Y010719D01*
X010134Y010719D01*
X010088Y010672D01*
X010275Y010486D01*
X010228Y010439D01*
X010134Y010439D01*
X010088Y010486D01*
X010088Y010672D01*
X009980Y010626D02*
X009840Y010626D01*
X009793Y010579D01*
X009793Y010439D01*
X009980Y010439D02*
X009980Y010626D01*
X009840Y010868D02*
X009840Y011148D01*
X009980Y011008D01*
X009793Y011008D01*
X010088Y010915D02*
X010134Y010868D01*
X010228Y010868D01*
X010275Y010915D01*
X010275Y011102D01*
X010228Y011148D01*
X010134Y011148D01*
X010088Y011102D01*
X010275Y010672D02*
X010275Y010486D01*
X010260Y013383D02*
X010213Y013429D01*
X010213Y013616D01*
X010400Y013429D01*
X010353Y013383D01*
X010260Y013383D01*
X010400Y013429D02*
X010400Y013616D01*
X010353Y013663D01*
X010260Y013663D01*
X010213Y013616D01*
X010105Y013663D02*
X010105Y013383D01*
X010105Y013476D02*
X009965Y013569D01*
X010105Y013476D02*
X009965Y013383D01*
X010260Y013780D02*
X010213Y013827D01*
X010213Y013874D01*
X010260Y013920D01*
X010400Y013920D01*
X010400Y013827D01*
X010353Y013780D01*
X010260Y013780D01*
X010400Y013920D02*
X010306Y014014D01*
X010213Y014060D01*
X010507Y014014D02*
X010507Y013920D01*
X010554Y013874D01*
X010694Y013874D01*
X010601Y013874D02*
X010507Y013780D01*
X010601Y013663D02*
X010601Y013383D01*
X010694Y013383D02*
X010507Y013383D01*
X010694Y013569D02*
X010601Y013663D01*
X010694Y013780D02*
X010694Y014060D01*
X010554Y014060D01*
X010507Y014014D01*
X006359Y008831D02*
X006405Y008785D01*
X006405Y008598D01*
X006359Y008551D01*
X006265Y008551D01*
X006219Y008598D01*
X006111Y008598D02*
X006064Y008551D01*
X005971Y008551D01*
X005924Y008598D01*
X005924Y008645D01*
X005971Y008691D01*
X006017Y008691D01*
X005971Y008691D02*
X005924Y008738D01*
X005924Y008785D01*
X005971Y008831D01*
X006064Y008831D01*
X006111Y008785D01*
X006219Y008785D02*
X006265Y008831D01*
X006359Y008831D01*
X005663Y008365D02*
X005570Y008365D01*
X005523Y008318D01*
X005523Y008271D01*
X005570Y008224D01*
X005476Y008224D01*
X005430Y008178D01*
X005570Y008224D02*
X005663Y008224D01*
X005570Y008070D02*
X005523Y008023D01*
X005523Y007930D01*
X005570Y007883D01*
X005756Y008070D01*
X005570Y008070D01*
X005756Y008070D02*
X005803Y008023D01*
X005803Y007930D01*
X005756Y007883D01*
X005570Y007883D01*
X005523Y007775D02*
X005523Y007588D01*
X005523Y007682D02*
X005803Y007682D01*
X005710Y007588D01*
X006151Y007037D02*
X006245Y007037D01*
X006291Y006991D01*
X006399Y006991D02*
X006399Y006804D01*
X006446Y006757D01*
X006586Y006757D01*
X006586Y007037D01*
X006446Y007037D01*
X006399Y006991D01*
X006291Y006757D02*
X006104Y006944D01*
X006104Y006991D01*
X006151Y007037D01*
X006104Y006757D02*
X006291Y006757D01*
X006310Y006569D02*
X006263Y006569D01*
X006217Y006523D01*
X006217Y006429D01*
X006263Y006382D01*
X006310Y006382D01*
X006357Y006429D01*
X006357Y006523D01*
X006310Y006569D01*
X006357Y006523D02*
X006403Y006569D01*
X006450Y006569D01*
X006497Y006523D01*
X006497Y006429D01*
X006450Y006382D01*
X006403Y006382D01*
X006357Y006429D01*
X006357Y006275D02*
X006357Y006088D01*
X006497Y006228D01*
X006217Y006228D01*
X006217Y005980D02*
X006217Y005793D01*
X006217Y005887D02*
X006497Y005887D01*
X006403Y005793D01*
X006357Y005685D02*
X006357Y005498D01*
X006497Y005639D01*
X006217Y005639D01*
X016850Y017777D02*
X016803Y017824D01*
X016803Y017917D01*
X016756Y017870D01*
X016710Y017870D01*
X016663Y017917D01*
X016663Y018011D01*
X016803Y018011D02*
X016803Y017917D01*
X016958Y018104D02*
X017144Y017917D01*
X017144Y017870D01*
X017245Y017870D02*
X017292Y017870D01*
X017292Y017917D01*
X017245Y017917D01*
X017245Y017870D01*
X017446Y017870D02*
X017446Y018151D01*
X017586Y018011D01*
X017400Y018011D01*
X017144Y018151D02*
X016958Y018151D01*
X016958Y018104D01*
X017095Y018229D02*
X017095Y018275D01*
X016908Y018462D01*
X016908Y018509D01*
X017095Y018509D01*
X017203Y018462D02*
X017249Y018509D01*
X017343Y018509D01*
X017390Y018462D01*
X017390Y018275D01*
X017343Y018229D01*
X017249Y018229D01*
X017203Y018275D01*
D12*
X011704Y012843D02*
X011704Y012607D01*
X011665Y012607D01*
X011429Y012843D01*
X011429Y012371D01*
X011665Y012607D01*
X011704Y012607D02*
X011704Y012371D01*
X011704Y011893D02*
X011704Y011421D01*
X011468Y011657D01*
X011429Y011657D01*
X011429Y011421D01*
X011429Y011657D02*
X011429Y011893D01*
X011468Y011657D02*
X011704Y011893D01*
X008253Y007545D02*
X008017Y007545D01*
X008017Y007505D01*
X007780Y007269D01*
X008253Y007269D01*
X008017Y007505D01*
X008017Y007545D02*
X007780Y007545D01*
X007353Y007545D02*
X007117Y007545D01*
X007117Y007505D01*
X006880Y007269D01*
X007353Y007269D01*
X007117Y007505D01*
X007117Y007545D02*
X006880Y007545D01*
X005203Y002295D02*
X004967Y002295D01*
X004967Y002255D01*
X004730Y002019D01*
X005203Y002019D01*
X004967Y002255D01*
X004967Y002295D02*
X004730Y002295D01*
X004403Y002295D02*
X004167Y002059D01*
X004167Y002019D01*
X004403Y002019D01*
X004167Y002019D02*
X003930Y002019D01*
X004167Y002059D02*
X003930Y002295D01*
X004403Y002295D01*
X019429Y010557D02*
X019429Y010793D01*
X019468Y010793D01*
X019704Y010557D01*
X019704Y011030D01*
X019468Y010793D01*
X019429Y010793D02*
X019429Y011030D01*
X019880Y009531D02*
X020117Y009531D01*
X020117Y009492D01*
X019880Y009255D01*
X020353Y009255D01*
X020117Y009492D01*
X020117Y009531D02*
X020353Y009531D01*
D13*
X014783Y016686D02*
X014583Y016686D01*
X013803Y016686D02*
X013603Y016686D01*
X013603Y017866D02*
X013803Y017866D01*
X014583Y017866D02*
X014783Y017866D01*
D14*
X015054Y017916D02*
X015368Y017916D01*
X015368Y018073D02*
X015054Y017759D01*
X015211Y017759D02*
X015211Y018073D01*
X015054Y018073D02*
X015368Y017759D01*
X016906Y016812D02*
X016906Y016618D01*
X016955Y016570D01*
X017052Y016570D01*
X017100Y016618D01*
X017201Y016618D02*
X017249Y016570D01*
X017346Y016570D01*
X017395Y016618D01*
X017395Y016812D01*
X017346Y016860D01*
X017249Y016860D01*
X017201Y016812D01*
X017100Y016812D02*
X017100Y016764D01*
X017052Y016715D01*
X016906Y016715D01*
X016906Y016812D02*
X016955Y016860D01*
X017052Y016860D01*
X017100Y016812D01*
X015954Y016249D02*
X015954Y015959D01*
X015954Y016056D02*
X015809Y016056D01*
X015760Y016104D01*
X015760Y016201D01*
X015809Y016249D01*
X015954Y016249D01*
X015857Y016056D02*
X015760Y015959D01*
X015659Y015959D02*
X015466Y015959D01*
X015562Y015959D02*
X015562Y016249D01*
X015659Y016152D01*
X015364Y016201D02*
X015316Y016249D01*
X015219Y016249D01*
X015171Y016201D01*
X015171Y016152D01*
X015364Y015959D01*
X015171Y015959D01*
X015355Y015781D02*
X015355Y015490D01*
X015355Y015587D02*
X015210Y015684D01*
X015355Y015587D02*
X015210Y015490D01*
X015456Y015539D02*
X015456Y015732D01*
X015649Y015539D01*
X015601Y015490D01*
X015504Y015490D01*
X015456Y015539D01*
X015456Y015732D02*
X015504Y015781D01*
X015601Y015781D01*
X015649Y015732D01*
X015649Y015539D01*
X015750Y015490D02*
X015944Y015490D01*
X015847Y015490D02*
X015847Y015781D01*
X015944Y015684D01*
X016641Y015027D02*
X016593Y014979D01*
X016593Y014834D01*
X016786Y014834D02*
X016786Y015027D01*
X016641Y015027D01*
X016887Y015076D02*
X016887Y014882D01*
X016936Y014834D01*
X017032Y014834D01*
X017081Y014882D01*
X016887Y015076D01*
X016936Y015124D01*
X017032Y015124D01*
X017081Y015076D01*
X017081Y014882D01*
X017182Y014882D02*
X017230Y014834D01*
X017327Y014834D01*
X017376Y014882D01*
X017182Y015076D01*
X017182Y014882D01*
X017376Y014882D02*
X017376Y015076D01*
X017327Y015124D01*
X017230Y015124D01*
X017182Y015076D01*
X017477Y014834D02*
X017670Y014834D01*
X017573Y014834D02*
X017573Y015124D01*
X017670Y015027D01*
X018635Y015963D02*
X018780Y016059D01*
X018635Y016156D01*
X018605Y016313D02*
X018702Y016313D01*
X018750Y016361D01*
X018780Y016253D02*
X018780Y015963D01*
X018881Y016011D02*
X018929Y015963D01*
X019026Y015963D01*
X019075Y016011D01*
X018881Y016205D01*
X018881Y016011D01*
X019075Y016011D02*
X019075Y016205D01*
X019026Y016253D01*
X018929Y016253D01*
X018881Y016205D01*
X018851Y016313D02*
X019045Y016313D01*
X018948Y016313D02*
X018948Y016603D01*
X019045Y016507D01*
X019146Y016555D02*
X019146Y016458D01*
X019194Y016410D01*
X019340Y016410D01*
X019340Y016313D02*
X019340Y016603D01*
X019194Y016603D01*
X019146Y016555D01*
X019243Y016410D02*
X019146Y016313D01*
X019272Y016253D02*
X019272Y015963D01*
X019176Y015963D02*
X019369Y015963D01*
X019369Y016156D02*
X019272Y016253D01*
X018750Y016555D02*
X018702Y016603D01*
X018605Y016603D01*
X018557Y016555D01*
X018557Y016507D01*
X018605Y016458D01*
X018557Y016410D01*
X018557Y016361D01*
X018605Y016313D01*
X018605Y016458D02*
X018654Y016458D01*
X013170Y016968D02*
X013170Y017258D01*
X013073Y017161D01*
X012976Y017258D01*
X012976Y016968D01*
X012875Y016968D02*
X012875Y017258D01*
X012778Y017161D01*
X012682Y017258D01*
X012682Y016968D01*
X012580Y016968D02*
X012580Y017161D01*
X012484Y017258D01*
X012387Y017161D01*
X012387Y016968D01*
X012286Y017016D02*
X012286Y017065D01*
X012237Y017113D01*
X012141Y017113D01*
X012092Y017065D01*
X012092Y017016D01*
X012141Y016968D01*
X012237Y016968D01*
X012286Y017016D01*
X012237Y017113D02*
X012286Y017161D01*
X012286Y017210D01*
X012237Y017258D01*
X012141Y017258D01*
X012092Y017210D01*
X012092Y017161D01*
X012141Y017113D01*
X011991Y017113D02*
X011798Y017113D01*
X011696Y017113D02*
X011600Y017161D01*
X011551Y017161D01*
X011503Y017113D01*
X011503Y017016D01*
X011551Y016968D01*
X011648Y016968D01*
X011696Y017016D01*
X011696Y017113D02*
X011696Y017258D01*
X011503Y017258D01*
X011402Y017210D02*
X011353Y017258D01*
X011257Y017258D01*
X011208Y017210D01*
X011208Y017161D01*
X011402Y016968D01*
X011208Y016968D01*
X011107Y017016D02*
X011059Y016968D01*
X010962Y016968D01*
X010914Y017016D01*
X010914Y017210D01*
X010962Y017258D01*
X011059Y017258D01*
X011107Y017210D01*
X011107Y017016D01*
X011010Y017065D02*
X010914Y016968D01*
X010716Y016968D02*
X010716Y017258D01*
X010812Y017258D02*
X010619Y017258D01*
X010757Y017573D02*
X010853Y017573D01*
X010902Y017621D01*
X010902Y017670D01*
X010853Y017718D01*
X010757Y017718D01*
X010708Y017670D01*
X010708Y017621D01*
X010757Y017573D01*
X010757Y017718D02*
X010708Y017766D01*
X010708Y017815D01*
X010757Y017863D01*
X010853Y017863D01*
X010902Y017815D01*
X010902Y017766D01*
X010853Y017718D01*
X011003Y017621D02*
X011051Y017573D01*
X011148Y017573D01*
X011196Y017621D01*
X011196Y017815D01*
X011148Y017863D01*
X011051Y017863D01*
X011003Y017815D01*
X011030Y018049D02*
X011078Y018098D01*
X010885Y018291D01*
X010885Y018098D01*
X010933Y018049D01*
X011030Y018049D01*
X011078Y018098D02*
X011078Y018291D01*
X011030Y018340D01*
X010933Y018340D01*
X010885Y018291D01*
X010784Y018243D02*
X010784Y018049D01*
X010590Y018049D02*
X010590Y018194D01*
X010639Y018243D01*
X010784Y018243D01*
X011180Y018291D02*
X011180Y018098D01*
X011228Y018049D01*
X011325Y018049D01*
X011373Y018098D01*
X011180Y018291D01*
X011228Y018340D01*
X011325Y018340D01*
X011373Y018291D01*
X011373Y018098D01*
X011474Y018049D02*
X011668Y018049D01*
X011571Y018049D02*
X011571Y018340D01*
X011668Y018243D01*
X012772Y017597D02*
X012772Y017307D01*
X012869Y017307D02*
X012675Y017307D01*
X012580Y017113D02*
X012387Y017113D01*
X011991Y017113D02*
X011846Y017258D01*
X011846Y016968D01*
X011792Y016253D02*
X011792Y015963D01*
X011889Y015963D02*
X011695Y015963D01*
X011594Y016011D02*
X011401Y016205D01*
X011401Y016011D01*
X011449Y015963D01*
X011546Y015963D01*
X011594Y016011D01*
X011594Y016205D01*
X011546Y016253D01*
X011449Y016253D01*
X011401Y016205D01*
X011300Y016253D02*
X011300Y015963D01*
X011300Y016059D02*
X011154Y016156D01*
X011300Y016059D02*
X011154Y015963D01*
X011291Y015816D02*
X011291Y015526D01*
X011195Y015526D02*
X011388Y015526D01*
X011489Y015526D02*
X011683Y015526D01*
X011586Y015526D02*
X011586Y015816D01*
X011683Y015719D01*
X011784Y015671D02*
X011784Y015768D01*
X011832Y015816D01*
X011977Y015816D01*
X011977Y015526D01*
X011977Y015622D02*
X011832Y015622D01*
X011784Y015671D01*
X011881Y015622D02*
X011784Y015526D01*
X011388Y015719D02*
X011291Y015816D01*
X011792Y016253D02*
X011889Y016156D01*
X013018Y017307D02*
X012970Y017355D01*
X012970Y017597D01*
X012869Y017500D02*
X012772Y017597D01*
X013018Y017307D02*
X013115Y017307D01*
X013163Y017355D01*
X013163Y017597D01*
X017110Y010728D02*
X017400Y010728D01*
X017255Y010583D01*
X017255Y010776D01*
X017110Y010481D02*
X017110Y010288D01*
X017110Y010385D02*
X017400Y010385D01*
X017303Y010288D01*
X017255Y010187D02*
X017206Y010138D01*
X017206Y009993D01*
X017110Y009993D02*
X017400Y009993D01*
X017400Y010138D01*
X017351Y010187D01*
X017255Y010187D01*
X017206Y010090D02*
X017110Y010187D01*
M02*
