G75*
%MOIN*%
%OFA0B0*%
%FSLAX24Y24*%
%IPPOS*%
%LPD*%
%AMOC8*
5,1,8,0,0,1.08239X$1,22.5*
%
%ADD10C,0.0000*%
%ADD11C,0.0354*%
%ADD12C,0.0866*%
%ADD13C,0.0787*%
%ADD14C,0.1000*%
%ADD15C,0.0760*%
%ADD16OC8,0.0630*%
%ADD17C,0.0630*%
%ADD18C,0.0138*%
%ADD19R,0.0591X0.0512*%
%ADD20OC8,0.0399*%
%ADD21R,0.0472X0.0472*%
%ADD22C,0.0787*%
%ADD23C,0.1181*%
%ADD24C,0.0283*%
%ADD25C,0.0320*%
%ADD26C,0.0160*%
%ADD27C,0.0120*%
%ADD28C,0.0425*%
D10*
X004154Y000307D02*
X009036Y000307D01*
X009090Y000309D01*
X009143Y000314D01*
X009196Y000323D01*
X009248Y000336D01*
X009300Y000352D01*
X009350Y000372D01*
X009398Y000395D01*
X009445Y000422D01*
X009490Y000451D01*
X009533Y000484D01*
X009573Y000519D01*
X009611Y000557D01*
X009646Y000597D01*
X009679Y000640D01*
X009708Y000685D01*
X009735Y000732D01*
X009758Y000780D01*
X009778Y000830D01*
X009794Y000882D01*
X009807Y000934D01*
X009816Y000987D01*
X009821Y001040D01*
X009823Y001094D01*
X009823Y002316D01*
X009825Y002370D01*
X009830Y002423D01*
X009839Y002476D01*
X009852Y002528D01*
X009868Y002580D01*
X009888Y002630D01*
X009911Y002678D01*
X009938Y002725D01*
X009967Y002770D01*
X010000Y002813D01*
X010035Y002853D01*
X010073Y002891D01*
X010113Y002926D01*
X010156Y002959D01*
X010201Y002988D01*
X010248Y003015D01*
X010296Y003038D01*
X010346Y003058D01*
X010398Y003074D01*
X010450Y003087D01*
X010503Y003096D01*
X010556Y003101D01*
X010610Y003103D01*
X010610Y003104D02*
X014626Y003104D01*
X014626Y003103D02*
X014680Y003101D01*
X014733Y003096D01*
X014786Y003087D01*
X014838Y003074D01*
X014890Y003058D01*
X014940Y003038D01*
X014988Y003015D01*
X015035Y002988D01*
X015080Y002959D01*
X015123Y002926D01*
X015163Y002891D01*
X015201Y002853D01*
X015236Y002813D01*
X015269Y002770D01*
X015298Y002725D01*
X015325Y002678D01*
X015348Y002630D01*
X015368Y002580D01*
X015384Y002528D01*
X015397Y002476D01*
X015406Y002423D01*
X015411Y002370D01*
X015413Y002316D01*
X015414Y002316D02*
X015414Y001094D01*
X015416Y001040D01*
X015421Y000987D01*
X015430Y000934D01*
X015443Y000882D01*
X015459Y000830D01*
X015479Y000780D01*
X015502Y000732D01*
X015529Y000685D01*
X015558Y000640D01*
X015591Y000597D01*
X015626Y000557D01*
X015664Y000519D01*
X015704Y000484D01*
X015747Y000451D01*
X015792Y000422D01*
X015839Y000395D01*
X015887Y000372D01*
X015937Y000352D01*
X015989Y000336D01*
X016041Y000323D01*
X016094Y000314D01*
X016147Y000309D01*
X016201Y000307D01*
X017140Y000307D01*
X017419Y000422D02*
X020492Y003496D01*
X021083Y005701D02*
X021083Y013496D01*
X018189Y018811D02*
X005374Y018811D01*
X008573Y017759D02*
X008573Y016184D01*
X008572Y016184D02*
X008574Y016158D01*
X008579Y016133D01*
X008587Y016109D01*
X008598Y016085D01*
X008613Y016064D01*
X008630Y016045D01*
X008649Y016028D01*
X008671Y016013D01*
X008694Y016002D01*
X008718Y015994D01*
X008743Y015989D01*
X008769Y015987D01*
X008795Y015989D01*
X008820Y015994D01*
X008844Y016002D01*
X008868Y016013D01*
X008889Y016028D01*
X008908Y016045D01*
X008925Y016064D01*
X008940Y016086D01*
X008951Y016109D01*
X008959Y016133D01*
X008964Y016158D01*
X008966Y016184D01*
X008966Y017759D01*
X008769Y017956D02*
X008743Y017954D01*
X008718Y017949D01*
X008694Y017941D01*
X008671Y017930D01*
X008649Y017915D01*
X008630Y017898D01*
X008613Y017879D01*
X008598Y017858D01*
X008587Y017834D01*
X008579Y017810D01*
X008574Y017785D01*
X008572Y017759D01*
X008769Y017956D02*
X008795Y017954D01*
X008820Y017949D01*
X008844Y017941D01*
X008868Y017930D01*
X008889Y017915D01*
X008908Y017898D01*
X008925Y017879D01*
X008940Y017857D01*
X008951Y017834D01*
X008959Y017810D01*
X008964Y017785D01*
X008966Y017759D01*
X007908Y014382D02*
X007910Y014441D01*
X007916Y014500D01*
X007926Y014558D01*
X007939Y014616D01*
X007957Y014673D01*
X007978Y014728D01*
X008003Y014782D01*
X008032Y014834D01*
X008064Y014883D01*
X008099Y014931D01*
X008137Y014976D01*
X008178Y015019D01*
X008222Y015059D01*
X008268Y015095D01*
X008317Y015129D01*
X008368Y015159D01*
X008421Y015186D01*
X008476Y015209D01*
X008531Y015228D01*
X008589Y015244D01*
X008647Y015256D01*
X008705Y015264D01*
X008764Y015268D01*
X008824Y015268D01*
X008883Y015264D01*
X008941Y015256D01*
X008999Y015244D01*
X009057Y015228D01*
X009112Y015209D01*
X009167Y015186D01*
X009220Y015159D01*
X009271Y015129D01*
X009320Y015095D01*
X009366Y015059D01*
X009410Y015019D01*
X009451Y014976D01*
X009489Y014931D01*
X009524Y014883D01*
X009556Y014834D01*
X009585Y014782D01*
X009610Y014728D01*
X009631Y014673D01*
X009649Y014616D01*
X009662Y014558D01*
X009672Y014500D01*
X009678Y014441D01*
X009680Y014382D01*
X009678Y014323D01*
X009672Y014264D01*
X009662Y014206D01*
X009649Y014148D01*
X009631Y014091D01*
X009610Y014036D01*
X009585Y013982D01*
X009556Y013930D01*
X009524Y013881D01*
X009489Y013833D01*
X009451Y013788D01*
X009410Y013745D01*
X009366Y013705D01*
X009320Y013669D01*
X009271Y013635D01*
X009220Y013605D01*
X009167Y013578D01*
X009112Y013555D01*
X009057Y013536D01*
X008999Y013520D01*
X008941Y013508D01*
X008883Y013500D01*
X008824Y013496D01*
X008764Y013496D01*
X008705Y013500D01*
X008647Y013508D01*
X008589Y013520D01*
X008531Y013536D01*
X008476Y013555D01*
X008421Y013578D01*
X008368Y013605D01*
X008317Y013635D01*
X008268Y013669D01*
X008222Y013705D01*
X008178Y013745D01*
X008137Y013788D01*
X008099Y013833D01*
X008064Y013881D01*
X008032Y013930D01*
X008003Y013982D01*
X007978Y014036D01*
X007957Y014091D01*
X007939Y014148D01*
X007926Y014206D01*
X007916Y014264D01*
X007910Y014323D01*
X007908Y014382D01*
X005375Y018812D02*
X005226Y018803D01*
X005078Y018791D01*
X004930Y018774D01*
X004783Y018754D01*
X004636Y018730D01*
X004490Y018702D01*
X004345Y018669D01*
X004201Y018634D01*
X004057Y018594D01*
X003915Y018550D01*
X003774Y018503D01*
X003634Y018452D01*
X003496Y018397D01*
X003359Y018338D01*
X003224Y018276D01*
X003091Y018210D01*
X002959Y018141D01*
X002830Y018068D01*
X002702Y017992D01*
X002576Y017913D01*
X002453Y017830D01*
X002332Y017743D01*
X002213Y017654D01*
X002096Y017562D01*
X001982Y017466D01*
X001871Y017367D01*
X001762Y017266D01*
X001657Y017161D01*
X001554Y017054D01*
X001453Y016944D01*
X001356Y016832D01*
X001262Y016717D01*
X001171Y016599D01*
X001083Y016479D01*
X000998Y016357D01*
X000917Y016232D01*
X000839Y016106D01*
X000765Y015977D01*
X000693Y015846D01*
X000626Y015714D01*
X000562Y015580D01*
X000501Y015444D01*
X000445Y015306D01*
X000392Y015167D01*
X000342Y015027D01*
X000297Y014885D01*
X000255Y014743D01*
X000217Y014599D01*
X000217Y014598D02*
X000217Y005307D01*
X002894Y004913D02*
X004272Y004913D01*
X005099Y005740D01*
X005099Y009084D01*
X005156Y009223D02*
X006301Y010368D01*
X006440Y010425D02*
X007046Y010425D01*
X008644Y012023D01*
X008778Y012079D02*
X008803Y012077D01*
X008827Y012073D01*
X008851Y012065D01*
X008873Y012054D01*
X008894Y012040D01*
X008912Y012023D01*
X008913Y012023D02*
X008919Y012016D01*
X008936Y011998D01*
X008950Y011977D01*
X008961Y011955D01*
X008969Y011931D01*
X008973Y011907D01*
X008975Y011882D01*
X008919Y011747D02*
X007261Y010089D01*
X007122Y010031D02*
X006516Y010031D01*
X005492Y009008D01*
X005492Y005664D01*
X005435Y005525D02*
X004487Y004577D01*
X004348Y004520D02*
X002894Y004520D01*
X002868Y004522D01*
X002843Y004527D01*
X002819Y004535D01*
X002795Y004546D01*
X002774Y004561D01*
X002755Y004578D01*
X002738Y004597D01*
X002723Y004619D01*
X002712Y004642D01*
X002704Y004666D01*
X002699Y004691D01*
X002697Y004717D01*
X002699Y004743D01*
X002704Y004768D01*
X002712Y004792D01*
X002723Y004816D01*
X002738Y004837D01*
X002755Y004856D01*
X002774Y004873D01*
X002796Y004888D01*
X002819Y004899D01*
X002843Y004907D01*
X002868Y004912D01*
X002894Y004914D01*
X004348Y004520D02*
X004374Y004522D01*
X004399Y004527D01*
X004423Y004535D01*
X004447Y004546D01*
X004468Y004561D01*
X004487Y004578D01*
X005434Y005525D02*
X005451Y005544D01*
X005466Y005565D01*
X005477Y005589D01*
X005485Y005613D01*
X005490Y005638D01*
X005492Y005664D01*
X021083Y013496D02*
X020963Y013857D01*
X020834Y014215D01*
X020697Y014570D01*
X020552Y014922D01*
X020398Y015270D01*
X020236Y015614D01*
X020066Y015955D01*
X019888Y016291D01*
X019702Y016623D01*
X019509Y016951D01*
X019307Y017273D01*
X019098Y017591D01*
X018882Y017904D01*
X018658Y018212D01*
X018427Y018515D01*
X018189Y018811D01*
X013813Y014382D02*
X013815Y014441D01*
X013821Y014500D01*
X013831Y014558D01*
X013844Y014616D01*
X013862Y014673D01*
X013883Y014728D01*
X013908Y014782D01*
X013937Y014834D01*
X013969Y014883D01*
X014004Y014931D01*
X014042Y014976D01*
X014083Y015019D01*
X014127Y015059D01*
X014173Y015095D01*
X014222Y015129D01*
X014273Y015159D01*
X014326Y015186D01*
X014381Y015209D01*
X014436Y015228D01*
X014494Y015244D01*
X014552Y015256D01*
X014610Y015264D01*
X014669Y015268D01*
X014729Y015268D01*
X014788Y015264D01*
X014846Y015256D01*
X014904Y015244D01*
X014962Y015228D01*
X015017Y015209D01*
X015072Y015186D01*
X015125Y015159D01*
X015176Y015129D01*
X015225Y015095D01*
X015271Y015059D01*
X015315Y015019D01*
X015356Y014976D01*
X015394Y014931D01*
X015429Y014883D01*
X015461Y014834D01*
X015490Y014782D01*
X015515Y014728D01*
X015536Y014673D01*
X015554Y014616D01*
X015567Y014558D01*
X015577Y014500D01*
X015583Y014441D01*
X015585Y014382D01*
X015583Y014323D01*
X015577Y014264D01*
X015567Y014206D01*
X015554Y014148D01*
X015536Y014091D01*
X015515Y014036D01*
X015490Y013982D01*
X015461Y013930D01*
X015429Y013881D01*
X015394Y013833D01*
X015356Y013788D01*
X015315Y013745D01*
X015271Y013705D01*
X015225Y013669D01*
X015176Y013635D01*
X015125Y013605D01*
X015072Y013578D01*
X015017Y013555D01*
X014962Y013536D01*
X014904Y013520D01*
X014846Y013508D01*
X014788Y013500D01*
X014729Y013496D01*
X014669Y013496D01*
X014610Y013500D01*
X014552Y013508D01*
X014494Y013520D01*
X014436Y013536D01*
X014381Y013555D01*
X014326Y013578D01*
X014273Y013605D01*
X014222Y013635D01*
X014173Y013669D01*
X014127Y013705D01*
X014083Y013745D01*
X014042Y013788D01*
X014004Y013833D01*
X013969Y013881D01*
X013937Y013930D01*
X013908Y013982D01*
X013883Y014036D01*
X013862Y014091D01*
X013844Y014148D01*
X013831Y014206D01*
X013821Y014264D01*
X013815Y014323D01*
X013813Y014382D01*
X008975Y011882D02*
X008973Y011857D01*
X008969Y011833D01*
X008961Y011809D01*
X008950Y011787D01*
X008936Y011766D01*
X008919Y011748D01*
X008778Y012079D02*
X008753Y012077D01*
X008729Y012073D01*
X008705Y012065D01*
X008683Y012054D01*
X008662Y012040D01*
X008644Y012023D01*
X007261Y010089D02*
X007242Y010072D01*
X007221Y010057D01*
X007197Y010046D01*
X007173Y010038D01*
X007148Y010033D01*
X007122Y010031D01*
X006440Y010425D02*
X006414Y010423D01*
X006389Y010418D01*
X006365Y010410D01*
X006341Y010399D01*
X006320Y010384D01*
X006301Y010367D01*
X005156Y009223D02*
X005139Y009204D01*
X005124Y009183D01*
X005113Y009159D01*
X005105Y009135D01*
X005100Y009110D01*
X005098Y009084D01*
X000217Y005307D02*
X000313Y005067D01*
X000415Y004830D01*
X000522Y004595D01*
X000635Y004362D01*
X000754Y004133D01*
X000878Y003906D01*
X001007Y003682D01*
X001141Y003462D01*
X001281Y003245D01*
X001426Y003031D01*
X001576Y002820D01*
X001731Y002614D01*
X001891Y002411D01*
X002056Y002212D01*
X002225Y002016D01*
X002399Y001825D01*
X002577Y001639D01*
X002760Y001456D01*
X002947Y001278D01*
X003138Y001104D01*
X003334Y000935D01*
X003533Y000771D01*
X003736Y000611D01*
X003943Y000457D01*
X004154Y000307D01*
X020492Y003496D02*
X020554Y003625D01*
X020614Y003756D01*
X020670Y003888D01*
X020723Y004022D01*
X020772Y004157D01*
X020818Y004293D01*
X020860Y004430D01*
X020899Y004569D01*
X020935Y004708D01*
X020967Y004848D01*
X020995Y004989D01*
X021020Y005130D01*
X021041Y005272D01*
X021058Y005415D01*
X021072Y005558D01*
X021082Y005701D01*
X017419Y000422D02*
X017390Y000396D01*
X017359Y000373D01*
X017326Y000354D01*
X017291Y000337D01*
X017254Y000324D01*
X017217Y000315D01*
X017179Y000309D01*
X017140Y000307D01*
D11*
X015577Y005039D02*
X015223Y005039D01*
X015223Y005539D02*
X015577Y005539D01*
X015577Y006039D02*
X015223Y006039D01*
X015223Y006539D02*
X015577Y006539D01*
X015577Y007039D02*
X015223Y007039D01*
X015223Y007539D02*
X015577Y007539D01*
X015577Y008039D02*
X015223Y008039D01*
X015223Y008539D02*
X015577Y008539D01*
X014368Y009252D02*
X014368Y009606D01*
X013868Y009606D02*
X013868Y009252D01*
X013368Y009252D02*
X013368Y009606D01*
X012868Y009606D02*
X012868Y009252D01*
X012368Y009252D02*
X012368Y009606D01*
X011868Y009606D02*
X011868Y009252D01*
X011368Y009252D02*
X011368Y009606D01*
X010868Y009606D02*
X010868Y009252D01*
X010014Y008539D02*
X009660Y008539D01*
X009660Y008039D02*
X010014Y008039D01*
X010014Y007539D02*
X009660Y007539D01*
X009660Y007039D02*
X010014Y007039D01*
X010014Y006539D02*
X009660Y006539D01*
X009660Y006039D02*
X010014Y006039D01*
X010014Y005539D02*
X009660Y005539D01*
X009660Y005039D02*
X010014Y005039D01*
D12*
X004008Y005830D03*
X001008Y005830D03*
X001008Y008830D03*
X004008Y008830D03*
D13*
X006235Y011390D03*
X007008Y008830D03*
X008008Y008830D03*
X008008Y005830D03*
X007008Y005830D03*
X017258Y014382D03*
X017258Y017374D03*
X006235Y017374D03*
X004366Y016448D03*
X002366Y016448D03*
D14*
X002815Y014515D03*
X002815Y012546D03*
X002815Y010578D03*
D15*
X006043Y003791D03*
X008012Y002807D03*
X006043Y001823D03*
X008012Y000839D03*
X017032Y007453D03*
X017032Y009421D03*
X019001Y008437D03*
X019001Y006468D03*
D16*
X019672Y012815D03*
D17*
X019672Y011815D03*
D18*
X018755Y004341D02*
X018686Y004272D01*
X018686Y004498D01*
X018848Y004660D01*
X019074Y004660D01*
X019236Y004498D01*
X019236Y004272D01*
X019074Y004110D01*
X018848Y004110D01*
X018686Y004272D01*
X018790Y004314D01*
X018790Y004456D01*
X018890Y004556D01*
X019032Y004556D01*
X019132Y004456D01*
X019132Y004314D01*
X019032Y004214D01*
X018890Y004214D01*
X018790Y004314D01*
X018893Y004357D01*
X018893Y004413D01*
X018933Y004453D01*
X018989Y004453D01*
X019029Y004413D01*
X019029Y004357D01*
X018989Y004317D01*
X018933Y004317D01*
X018893Y004357D01*
X018048Y003634D02*
X017979Y003565D01*
X017979Y003791D01*
X018141Y003953D01*
X018367Y003953D01*
X018529Y003791D01*
X018529Y003565D01*
X018367Y003403D01*
X018141Y003403D01*
X017979Y003565D01*
X018083Y003607D01*
X018083Y003749D01*
X018183Y003849D01*
X018325Y003849D01*
X018425Y003749D01*
X018425Y003607D01*
X018325Y003507D01*
X018183Y003507D01*
X018083Y003607D01*
X018186Y003650D01*
X018186Y003706D01*
X018226Y003746D01*
X018282Y003746D01*
X018322Y003706D01*
X018322Y003650D01*
X018282Y003610D01*
X018226Y003610D01*
X018186Y003650D01*
X017341Y002927D02*
X017272Y002858D01*
X017272Y003084D01*
X017434Y003246D01*
X017660Y003246D01*
X017822Y003084D01*
X017822Y002858D01*
X017660Y002696D01*
X017434Y002696D01*
X017272Y002858D01*
X017376Y002900D01*
X017376Y003042D01*
X017476Y003142D01*
X017618Y003142D01*
X017718Y003042D01*
X017718Y002900D01*
X017618Y002800D01*
X017476Y002800D01*
X017376Y002900D01*
X017479Y002943D01*
X017479Y002999D01*
X017519Y003039D01*
X017575Y003039D01*
X017615Y002999D01*
X017615Y002943D01*
X017575Y002903D01*
X017519Y002903D01*
X017479Y002943D01*
X016634Y002220D02*
X016565Y002151D01*
X016565Y002377D01*
X016727Y002539D01*
X016953Y002539D01*
X017115Y002377D01*
X017115Y002151D01*
X016953Y001989D01*
X016727Y001989D01*
X016565Y002151D01*
X016669Y002193D01*
X016669Y002335D01*
X016769Y002435D01*
X016911Y002435D01*
X017011Y002335D01*
X017011Y002193D01*
X016911Y002093D01*
X016769Y002093D01*
X016669Y002193D01*
X016772Y002236D01*
X016772Y002292D01*
X016812Y002332D01*
X016868Y002332D01*
X016908Y002292D01*
X016908Y002236D01*
X016868Y002196D01*
X016812Y002196D01*
X016772Y002236D01*
X015927Y001513D02*
X015858Y001444D01*
X015858Y001670D01*
X016020Y001832D01*
X016246Y001832D01*
X016408Y001670D01*
X016408Y001444D01*
X016246Y001282D01*
X016020Y001282D01*
X015858Y001444D01*
X015962Y001486D01*
X015962Y001628D01*
X016062Y001728D01*
X016204Y001728D01*
X016304Y001628D01*
X016304Y001486D01*
X016204Y001386D01*
X016062Y001386D01*
X015962Y001486D01*
X016065Y001529D01*
X016065Y001585D01*
X016105Y001625D01*
X016161Y001625D01*
X016201Y001585D01*
X016201Y001529D01*
X016161Y001489D01*
X016105Y001489D01*
X016065Y001529D01*
X016634Y000806D02*
X016565Y000737D01*
X016565Y000963D01*
X016727Y001125D01*
X016953Y001125D01*
X017115Y000963D01*
X017115Y000737D01*
X016953Y000575D01*
X016727Y000575D01*
X016565Y000737D01*
X016669Y000779D01*
X016669Y000921D01*
X016769Y001021D01*
X016911Y001021D01*
X017011Y000921D01*
X017011Y000779D01*
X016911Y000679D01*
X016769Y000679D01*
X016669Y000779D01*
X016772Y000822D01*
X016772Y000878D01*
X016812Y000918D01*
X016868Y000918D01*
X016908Y000878D01*
X016908Y000822D01*
X016868Y000782D01*
X016812Y000782D01*
X016772Y000822D01*
X017341Y001513D02*
X017272Y001444D01*
X017272Y001670D01*
X017434Y001832D01*
X017660Y001832D01*
X017822Y001670D01*
X017822Y001444D01*
X017660Y001282D01*
X017434Y001282D01*
X017272Y001444D01*
X017376Y001486D01*
X017376Y001628D01*
X017476Y001728D01*
X017618Y001728D01*
X017718Y001628D01*
X017718Y001486D01*
X017618Y001386D01*
X017476Y001386D01*
X017376Y001486D01*
X017479Y001529D01*
X017479Y001585D01*
X017519Y001625D01*
X017575Y001625D01*
X017615Y001585D01*
X017615Y001529D01*
X017575Y001489D01*
X017519Y001489D01*
X017479Y001529D01*
X018048Y002220D02*
X017979Y002151D01*
X017979Y002377D01*
X018141Y002539D01*
X018367Y002539D01*
X018529Y002377D01*
X018529Y002151D01*
X018367Y001989D01*
X018141Y001989D01*
X017979Y002151D01*
X018083Y002193D01*
X018083Y002335D01*
X018183Y002435D01*
X018325Y002435D01*
X018425Y002335D01*
X018425Y002193D01*
X018325Y002093D01*
X018183Y002093D01*
X018083Y002193D01*
X018186Y002236D01*
X018186Y002292D01*
X018226Y002332D01*
X018282Y002332D01*
X018322Y002292D01*
X018322Y002236D01*
X018282Y002196D01*
X018226Y002196D01*
X018186Y002236D01*
X018755Y002927D02*
X018686Y002858D01*
X018686Y003084D01*
X018848Y003246D01*
X019074Y003246D01*
X019236Y003084D01*
X019236Y002858D01*
X019074Y002696D01*
X018848Y002696D01*
X018686Y002858D01*
X018790Y002900D01*
X018790Y003042D01*
X018890Y003142D01*
X019032Y003142D01*
X019132Y003042D01*
X019132Y002900D01*
X019032Y002800D01*
X018890Y002800D01*
X018790Y002900D01*
X018893Y002943D01*
X018893Y002999D01*
X018933Y003039D01*
X018989Y003039D01*
X019029Y002999D01*
X019029Y002943D01*
X018989Y002903D01*
X018933Y002903D01*
X018893Y002943D01*
X019462Y003634D02*
X019393Y003565D01*
X019393Y003791D01*
X019555Y003953D01*
X019781Y003953D01*
X019943Y003791D01*
X019943Y003565D01*
X019781Y003403D01*
X019555Y003403D01*
X019393Y003565D01*
X019497Y003607D01*
X019497Y003749D01*
X019597Y003849D01*
X019739Y003849D01*
X019839Y003749D01*
X019839Y003607D01*
X019739Y003507D01*
X019597Y003507D01*
X019497Y003607D01*
X019600Y003650D01*
X019600Y003706D01*
X019640Y003746D01*
X019696Y003746D01*
X019736Y003706D01*
X019736Y003650D01*
X019696Y003610D01*
X019640Y003610D01*
X019600Y003650D01*
D19*
X008896Y006924D03*
X008896Y007672D03*
D20*
X019351Y014571D03*
X019351Y015571D03*
D21*
X019625Y010638D03*
X020451Y010638D03*
D22*
X002815Y014515D02*
X002815Y014554D01*
D23*
X002815Y014515D02*
X002366Y014515D01*
X002366Y016448D01*
X002100Y014515D02*
X002815Y014515D01*
X002100Y014515D02*
X001008Y013423D01*
X001008Y008830D01*
X001008Y005830D01*
X004008Y005830D02*
X004008Y008830D01*
X004008Y009385D01*
X002815Y010578D01*
X002815Y012546D02*
X003716Y012546D01*
X006235Y015065D01*
X006235Y017374D01*
D24*
X010065Y013137D03*
X012781Y011956D03*
X013738Y011348D03*
X014626Y011803D03*
X016477Y012157D03*
X018380Y010793D03*
X017579Y010307D03*
X020124Y008145D03*
X017816Y005146D03*
X016400Y005539D03*
X010059Y009283D03*
X008764Y010200D03*
X009193Y010623D03*
X008130Y009953D03*
X012933Y014559D03*
X014787Y015855D03*
X015256Y016528D03*
X015610Y017079D03*
X015099Y018220D03*
X013217Y016407D03*
X012382Y016882D03*
X007637Y004587D03*
X009450Y002513D03*
X006861Y001213D03*
X004962Y003408D03*
X004150Y003413D03*
D25*
X004962Y003408D02*
X004962Y003818D01*
X006251Y005107D01*
X006251Y008073D01*
X007008Y008830D01*
X008008Y008830D01*
X008468Y008830D01*
X010432Y010793D01*
X017003Y010793D01*
X017017Y010808D01*
X017052Y010808D01*
X017067Y010793D01*
X017046Y010793D01*
X017032Y010807D01*
X017032Y013472D01*
X017258Y013699D01*
X017258Y014382D01*
X019402Y011815D02*
X018380Y010793D01*
X017067Y010793D01*
X017032Y010807D02*
X017032Y009421D01*
X018400Y008054D01*
X018400Y006790D01*
X017816Y006207D01*
X017816Y005146D01*
X019367Y005146D01*
X019668Y004845D01*
X019668Y003678D01*
X019672Y011815D02*
X019402Y011815D01*
D26*
X002304Y002229D02*
X001651Y003059D01*
X001520Y003264D01*
X002540Y004283D01*
X003878Y004283D01*
X003915Y004320D01*
X004431Y004320D01*
X004433Y004322D01*
X004566Y004377D01*
X004570Y004377D01*
X005517Y005325D01*
X005534Y005342D01*
X005632Y005439D01*
X005635Y005442D01*
X005635Y005446D01*
X005689Y005579D01*
X005692Y005581D01*
X005692Y008925D01*
X006599Y009831D01*
X007205Y009831D01*
X007207Y009834D01*
X007340Y009889D01*
X007344Y009889D01*
X009002Y011547D01*
X009012Y011557D01*
X009116Y011661D01*
X009119Y011665D01*
X009119Y011670D01*
X009171Y011795D01*
X009175Y011799D01*
X009175Y011879D01*
X009204Y011907D01*
X009204Y013368D01*
X009213Y013370D01*
X009461Y013513D01*
X009663Y013715D01*
X009806Y013963D01*
X009880Y014239D01*
X009880Y014525D01*
X009806Y014801D01*
X009663Y015049D01*
X009461Y015251D01*
X009213Y015394D01*
X009204Y015396D01*
X009204Y018611D01*
X018092Y018611D01*
X018498Y018092D01*
X019337Y016846D01*
X020056Y015527D01*
X020647Y014145D01*
X020883Y013463D01*
X020883Y005709D01*
X020849Y005345D01*
X020707Y004620D01*
X020468Y003921D01*
X020326Y003612D01*
X020213Y003499D01*
X020213Y003903D01*
X020028Y004088D01*
X020028Y004917D01*
X019973Y005049D01*
X019872Y005150D01*
X019571Y005451D01*
X019439Y005506D01*
X018176Y005506D01*
X018176Y006058D01*
X018436Y006317D01*
X018509Y006140D01*
X018672Y005977D01*
X018885Y005888D01*
X019116Y005888D01*
X019329Y005977D01*
X019492Y006140D01*
X019581Y006353D01*
X019581Y006584D01*
X019492Y006797D01*
X019329Y006960D01*
X019116Y007048D01*
X018885Y007048D01*
X018760Y006997D01*
X018760Y007909D01*
X018885Y007857D01*
X019116Y007857D01*
X019329Y007945D01*
X019492Y008108D01*
X019581Y008322D01*
X019581Y008552D01*
X019492Y008766D01*
X019329Y008929D01*
X019116Y009017D01*
X018885Y009017D01*
X018672Y008929D01*
X018509Y008766D01*
X018421Y008552D01*
X018421Y008542D01*
X017612Y009350D01*
X017612Y009537D01*
X017524Y009750D01*
X017392Y009881D01*
X017392Y010015D01*
X017511Y009965D01*
X017647Y009965D01*
X017749Y010008D01*
X018615Y010008D01*
X018710Y010047D01*
X018784Y010120D01*
X019042Y010378D01*
X019188Y010378D01*
X019188Y010319D01*
X019306Y010202D01*
X019944Y010202D01*
X020061Y010319D01*
X020061Y010365D01*
X020067Y010341D01*
X020088Y010305D01*
X020118Y010275D01*
X020154Y010254D01*
X020194Y010244D01*
X020413Y010244D01*
X020413Y010600D01*
X020490Y010600D01*
X020490Y010677D01*
X020846Y010677D01*
X020846Y010896D01*
X020836Y010936D01*
X020815Y010972D01*
X020785Y011002D01*
X020749Y011023D01*
X020709Y011033D01*
X020490Y011033D01*
X020490Y010677D01*
X020413Y010677D01*
X020413Y011033D01*
X020194Y011033D01*
X020154Y011023D01*
X020118Y011002D01*
X020088Y010972D01*
X020067Y010936D01*
X020061Y010912D01*
X020061Y010958D01*
X019944Y011075D01*
X019306Y011075D01*
X019188Y010958D01*
X019188Y010898D01*
X018995Y010898D01*
X019447Y011351D01*
X019569Y011300D01*
X019774Y011300D01*
X019964Y011378D01*
X020108Y011523D01*
X020187Y011713D01*
X020187Y011917D01*
X020108Y012107D01*
X019964Y012252D01*
X019774Y012330D01*
X019569Y012330D01*
X019380Y012252D01*
X019284Y012156D01*
X019198Y012120D01*
X018231Y011153D01*
X017392Y011153D01*
X017392Y013323D01*
X017462Y013394D01*
X017462Y013394D01*
X017564Y013495D01*
X017618Y013627D01*
X017618Y013902D01*
X017762Y014046D01*
X017852Y014264D01*
X017852Y014500D01*
X017762Y014718D01*
X017595Y014885D01*
X017376Y014976D01*
X017140Y014976D01*
X017064Y014944D01*
X016737Y015271D01*
X016737Y017192D01*
X016746Y017162D01*
X016786Y017084D01*
X016837Y017014D01*
X016899Y016953D01*
X016969Y016902D01*
X017046Y016862D01*
X017129Y016835D01*
X017215Y016822D01*
X017240Y016822D01*
X017240Y017356D01*
X017277Y017356D01*
X017277Y017392D01*
X017811Y017392D01*
X017811Y017417D01*
X017797Y017503D01*
X017770Y017586D01*
X017731Y017664D01*
X017680Y017734D01*
X017618Y017795D01*
X017548Y017846D01*
X017470Y017886D01*
X017388Y017913D01*
X017302Y017926D01*
X017277Y017926D01*
X017277Y017392D01*
X017240Y017392D01*
X017240Y017926D01*
X017215Y017926D01*
X017129Y017913D01*
X017046Y017886D01*
X016969Y017846D01*
X016899Y017795D01*
X016837Y017734D01*
X016786Y017664D01*
X016746Y017586D01*
X016724Y017516D01*
X016697Y017580D01*
X016624Y017653D01*
X015836Y018441D01*
X015741Y018480D01*
X015322Y018480D01*
X015292Y018510D01*
X015167Y018562D01*
X015031Y018562D01*
X014905Y018510D01*
X014809Y018414D01*
X014757Y018288D01*
X014757Y018152D01*
X014809Y018027D01*
X014905Y017931D01*
X015031Y017879D01*
X015167Y017879D01*
X015292Y017931D01*
X015322Y017960D01*
X015581Y017960D01*
X016217Y017325D01*
X016217Y015112D01*
X016256Y015016D01*
X016696Y014576D01*
X016665Y014500D01*
X016665Y014264D01*
X016755Y014046D01*
X016898Y013902D01*
X016898Y013848D01*
X016828Y013778D01*
X016727Y013676D01*
X016672Y013544D01*
X016672Y012445D01*
X016670Y012447D01*
X016544Y012499D01*
X016409Y012499D01*
X016283Y012447D01*
X016187Y012351D01*
X016135Y012225D01*
X016135Y012191D01*
X015484Y011570D01*
X015481Y011569D01*
X015446Y011534D01*
X015411Y011501D01*
X015410Y011498D01*
X015345Y011433D01*
X014301Y011433D01*
X014238Y011495D01*
X014165Y011569D01*
X014070Y011608D01*
X013961Y011608D01*
X013932Y011638D01*
X013806Y011690D01*
X013670Y011690D01*
X013545Y011638D01*
X013448Y011542D01*
X013396Y011416D01*
X013396Y011280D01*
X013448Y011155D01*
X013450Y011153D01*
X010360Y011153D01*
X010228Y011098D01*
X010126Y010997D01*
X008403Y009274D01*
X008344Y009333D01*
X008126Y009424D01*
X007890Y009424D01*
X007672Y009333D01*
X007528Y009190D01*
X007488Y009190D01*
X007344Y009333D01*
X007126Y009424D01*
X006890Y009424D01*
X006672Y009333D01*
X006505Y009166D01*
X006414Y008948D01*
X006414Y008745D01*
X005946Y008277D01*
X005891Y008144D01*
X005891Y005256D01*
X004758Y004124D01*
X004657Y004022D01*
X004602Y003890D01*
X004602Y003337D01*
X004657Y003204D01*
X004758Y003103D01*
X004891Y003048D01*
X005034Y003048D01*
X005166Y003103D01*
X005268Y003204D01*
X005322Y003337D01*
X005322Y003669D01*
X005463Y003810D01*
X005463Y003676D01*
X005552Y003463D01*
X005715Y003300D01*
X005928Y003211D01*
X006159Y003211D01*
X006372Y003300D01*
X006535Y003463D01*
X006623Y003676D01*
X006623Y003907D01*
X006603Y003955D01*
X007525Y004877D01*
X008091Y004877D01*
X007853Y004640D01*
X007775Y004561D01*
X007732Y004458D01*
X007732Y003319D01*
X007683Y003299D01*
X007520Y003136D01*
X007432Y002922D01*
X007432Y002692D01*
X007520Y002479D01*
X007683Y002315D01*
X007897Y002227D01*
X007991Y002227D01*
X007951Y002187D01*
X007499Y002187D01*
X007396Y002144D01*
X007317Y002066D01*
X006807Y001555D01*
X006793Y001555D01*
X006668Y001503D01*
X006571Y001407D01*
X006519Y001281D01*
X006519Y001145D01*
X006571Y001020D01*
X006668Y000924D01*
X006793Y000872D01*
X006929Y000872D01*
X007055Y000924D01*
X007151Y001020D01*
X007203Y001145D01*
X007203Y001159D01*
X007671Y001627D01*
X008122Y001627D01*
X008225Y001670D01*
X008904Y002348D01*
X008947Y002451D01*
X008947Y004491D01*
X009020Y004564D01*
X009020Y002608D01*
X009062Y002505D01*
X009108Y002459D01*
X009108Y002445D01*
X009146Y002354D01*
X009021Y002354D01*
X009021Y000507D01*
X008437Y000507D01*
X008473Y000556D01*
X008511Y000632D01*
X008537Y000712D01*
X008551Y000796D01*
X008551Y000800D01*
X008050Y000800D01*
X008050Y000877D01*
X007974Y000877D01*
X007974Y001377D01*
X007970Y001377D01*
X007886Y001364D01*
X007805Y001338D01*
X007730Y001299D01*
X007661Y001249D01*
X007601Y001190D01*
X007551Y001121D01*
X007513Y001045D01*
X007486Y000965D01*
X007473Y000881D01*
X007473Y000877D01*
X007974Y000877D01*
X007974Y000800D01*
X007473Y000800D01*
X007473Y000796D01*
X007486Y000712D01*
X007513Y000632D01*
X007551Y000556D01*
X007587Y000507D01*
X004219Y000507D01*
X003841Y000783D01*
X003037Y001468D01*
X002304Y002229D01*
X002304Y002229D01*
X002324Y002209D02*
X005609Y002209D01*
X005552Y002151D02*
X005463Y001938D01*
X005463Y001707D01*
X005552Y001494D01*
X005715Y001331D01*
X005928Y001243D01*
X006159Y001243D01*
X006372Y001331D01*
X006535Y001494D01*
X006623Y001707D01*
X006623Y001938D01*
X006535Y002151D01*
X006372Y002315D01*
X006159Y002403D01*
X005928Y002403D01*
X005715Y002315D01*
X005552Y002151D01*
X005510Y002051D02*
X002476Y002051D01*
X002629Y001892D02*
X005463Y001892D01*
X005463Y001734D02*
X002781Y001734D01*
X002934Y001575D02*
X005518Y001575D01*
X005629Y001417D02*
X003097Y001417D01*
X003283Y001258D02*
X005891Y001258D01*
X006196Y001258D02*
X006519Y001258D01*
X006538Y001100D02*
X003469Y001100D01*
X003655Y000941D02*
X006650Y000941D01*
X006861Y001213D02*
X007555Y001907D01*
X008067Y001907D01*
X008667Y002507D01*
X008667Y004607D01*
X009267Y005207D01*
X009267Y005357D01*
X009449Y005539D01*
X009837Y005539D01*
X009837Y006039D02*
X010201Y006039D01*
X010374Y006213D01*
X010374Y008929D01*
X010059Y009283D01*
X010285Y010007D02*
X010667Y010007D01*
X010868Y009805D01*
X010868Y009429D01*
X010285Y010007D02*
X008345Y008067D01*
X008345Y006464D01*
X008642Y006167D01*
X008642Y005482D01*
X008317Y005157D01*
X007409Y005157D01*
X006043Y003791D01*
X005696Y003319D02*
X005315Y003319D01*
X005322Y003477D02*
X005546Y003477D01*
X005480Y003636D02*
X005322Y003636D01*
X005447Y003794D02*
X005463Y003794D01*
X005223Y003160D02*
X007545Y003160D01*
X007465Y003002D02*
X001696Y003002D01*
X001586Y003160D02*
X004701Y003160D01*
X004610Y003319D02*
X001575Y003319D01*
X001733Y003477D02*
X004602Y003477D01*
X004602Y003636D02*
X001892Y003636D01*
X002050Y003794D02*
X004602Y003794D01*
X004628Y003953D02*
X002209Y003953D01*
X002367Y004111D02*
X004746Y004111D01*
X004904Y004270D02*
X002526Y004270D01*
X001821Y002843D02*
X007432Y002843D01*
X007435Y002685D02*
X001946Y002685D01*
X002070Y002526D02*
X007501Y002526D01*
X007631Y002368D02*
X006244Y002368D01*
X006477Y002209D02*
X007973Y002209D01*
X008448Y001892D02*
X009021Y001892D01*
X009021Y001734D02*
X008289Y001734D01*
X008138Y001364D02*
X008054Y001377D01*
X008050Y001377D01*
X008050Y000877D01*
X008551Y000877D01*
X008551Y000881D01*
X008537Y000965D01*
X008511Y001045D01*
X008473Y001121D01*
X008423Y001190D01*
X008363Y001249D01*
X008294Y001299D01*
X008219Y001338D01*
X008138Y001364D01*
X008050Y001258D02*
X007974Y001258D01*
X007974Y001100D02*
X008050Y001100D01*
X008050Y000941D02*
X007974Y000941D01*
X007673Y001258D02*
X007302Y001258D01*
X007184Y001100D02*
X007540Y001100D01*
X007483Y000941D02*
X007072Y000941D01*
X007475Y000783D02*
X003842Y000783D01*
X004059Y000624D02*
X007517Y000624D01*
X007460Y001417D02*
X009021Y001417D01*
X009021Y001575D02*
X007619Y001575D01*
X007144Y001892D02*
X006623Y001892D01*
X006623Y001734D02*
X006985Y001734D01*
X006827Y001575D02*
X006569Y001575D01*
X006581Y001417D02*
X006457Y001417D01*
X006577Y002051D02*
X007302Y002051D01*
X008012Y002807D02*
X008012Y004402D01*
X008996Y005387D01*
X008996Y006824D01*
X008896Y006924D01*
X008896Y007672D02*
X008896Y008110D01*
X009326Y008539D01*
X009837Y008539D01*
X008788Y009659D02*
X008313Y009659D01*
X008324Y009663D02*
X008420Y009759D01*
X008472Y009885D01*
X008472Y010021D01*
X008420Y010146D01*
X008418Y010148D01*
X008851Y010579D01*
X008851Y010555D01*
X008903Y010430D01*
X008999Y010334D01*
X009125Y010282D01*
X009261Y010282D01*
X009387Y010334D01*
X009483Y010430D01*
X009535Y010555D01*
X009535Y010691D01*
X009517Y010734D01*
X010168Y011378D01*
X010887Y011386D01*
X010938Y011386D01*
X010939Y011386D01*
X010940Y011386D01*
X010987Y011406D01*
X011033Y011425D01*
X011034Y011426D01*
X011036Y011427D01*
X011071Y011463D01*
X012490Y012882D01*
X012563Y012955D01*
X012603Y013051D01*
X012603Y013421D01*
X014284Y011774D01*
X014284Y011735D01*
X014336Y011610D01*
X014433Y011513D01*
X014558Y011461D01*
X014694Y011461D01*
X014820Y011513D01*
X014916Y011610D01*
X014968Y011735D01*
X014968Y011871D01*
X014916Y011997D01*
X014820Y012093D01*
X014694Y012145D01*
X014649Y012145D01*
X012957Y013802D01*
X012957Y014097D01*
X013154Y014294D01*
X013155Y014298D01*
X013223Y014365D01*
X013275Y014491D01*
X013275Y014627D01*
X013223Y014753D01*
X013127Y014849D01*
X013001Y014901D01*
X012865Y014901D01*
X012740Y014849D01*
X012643Y014753D01*
X012603Y014654D01*
X012603Y015081D01*
X013120Y015598D01*
X014560Y015598D01*
X014593Y015565D01*
X014719Y015513D01*
X014855Y015513D01*
X014980Y015565D01*
X015076Y015662D01*
X015128Y015787D01*
X015128Y015913D01*
X015465Y015913D01*
X015561Y015953D01*
X015758Y016150D01*
X015831Y016223D01*
X015870Y016318D01*
X015870Y016855D01*
X015900Y016885D01*
X015952Y017011D01*
X015952Y017147D01*
X015900Y017272D01*
X015804Y017368D01*
X015678Y017420D01*
X015542Y017420D01*
X015417Y017368D01*
X015321Y017272D01*
X015269Y017147D01*
X015269Y017011D01*
X015321Y016885D01*
X015350Y016855D01*
X015350Y016478D01*
X015306Y016433D01*
X013558Y016433D01*
X013558Y016475D01*
X013506Y016601D01*
X013410Y016697D01*
X013285Y016749D01*
X013149Y016749D01*
X013023Y016697D01*
X012927Y016601D01*
X012875Y016475D01*
X012875Y016433D01*
X012763Y016433D01*
X012668Y016394D01*
X012595Y016320D01*
X011768Y015494D01*
X011728Y015398D01*
X011728Y013407D01*
X010573Y012261D01*
X009913Y012261D01*
X009862Y012261D01*
X009862Y012261D01*
X009861Y012261D01*
X009814Y012242D01*
X009766Y012222D01*
X009766Y012222D01*
X009766Y012222D01*
X009730Y012186D01*
X007983Y010449D01*
X007983Y010449D01*
X007946Y010412D01*
X007910Y010376D01*
X007910Y010376D01*
X007910Y010376D01*
X007890Y010328D01*
X007870Y010281D01*
X007870Y010280D01*
X007870Y010229D01*
X007870Y010177D01*
X007870Y010176D01*
X007840Y010146D01*
X007788Y010021D01*
X007788Y009885D01*
X007840Y009759D01*
X007936Y009663D01*
X008062Y009611D01*
X008198Y009611D01*
X008324Y009663D01*
X008444Y009817D02*
X008946Y009817D01*
X009105Y009976D02*
X008472Y009976D01*
X008425Y010134D02*
X009263Y010134D01*
X009288Y010293D02*
X009422Y010293D01*
X009492Y010451D02*
X009580Y010451D01*
X009535Y010610D02*
X009739Y010610D01*
X009897Y010768D02*
X009551Y010768D01*
X009712Y010927D02*
X010056Y010927D01*
X010126Y010997D02*
X010126Y010997D01*
X010214Y011085D02*
X009872Y011085D01*
X010032Y011244D02*
X013412Y011244D01*
X013396Y011402D02*
X010978Y011402D01*
X011169Y011561D02*
X013467Y011561D01*
X014173Y011561D02*
X014385Y011561D01*
X014291Y011719D02*
X011327Y011719D01*
X011486Y011878D02*
X014179Y011878D01*
X014017Y012036D02*
X011644Y012036D01*
X011803Y012195D02*
X013855Y012195D01*
X013693Y012353D02*
X011961Y012353D01*
X012120Y012512D02*
X013531Y012512D01*
X013370Y012670D02*
X012278Y012670D01*
X012437Y012829D02*
X013208Y012829D01*
X013046Y012987D02*
X012576Y012987D01*
X012603Y013146D02*
X012884Y013146D01*
X012722Y013304D02*
X012603Y013304D01*
X012980Y013780D02*
X013793Y013780D01*
X013830Y013715D02*
X014033Y013513D01*
X014280Y013370D01*
X014556Y013296D01*
X014842Y013296D01*
X015118Y013370D01*
X015366Y013513D01*
X015568Y013715D01*
X015711Y013963D01*
X015785Y014239D01*
X015785Y014525D01*
X015711Y014801D01*
X015568Y015049D01*
X015366Y015251D01*
X015118Y015394D01*
X014842Y015468D01*
X014556Y015468D01*
X014280Y015394D01*
X014033Y015251D01*
X013830Y015049D01*
X013688Y014801D01*
X013614Y014525D01*
X013614Y014239D01*
X013688Y013963D01*
X013830Y013715D01*
X013925Y013621D02*
X013142Y013621D01*
X013304Y013463D02*
X014120Y013463D01*
X014526Y013304D02*
X013465Y013304D01*
X013627Y013146D02*
X016672Y013146D01*
X016672Y013304D02*
X014872Y013304D01*
X015279Y013463D02*
X016672Y013463D01*
X016704Y013621D02*
X015474Y013621D01*
X015605Y013780D02*
X016830Y013780D01*
X016828Y013778D02*
X016828Y013778D01*
X016863Y013938D02*
X015697Y013938D01*
X015747Y014097D02*
X016734Y014097D01*
X016668Y014255D02*
X015785Y014255D01*
X015785Y014414D02*
X016665Y014414D01*
X016695Y014572D02*
X015773Y014572D01*
X015730Y014731D02*
X016542Y014731D01*
X016383Y014889D02*
X015660Y014889D01*
X015569Y015048D02*
X016243Y015048D01*
X016217Y015206D02*
X015411Y015206D01*
X015169Y015365D02*
X016217Y015365D01*
X016217Y015523D02*
X014878Y015523D01*
X014695Y015523D02*
X013044Y015523D01*
X012886Y015365D02*
X014230Y015365D01*
X013988Y015206D02*
X012727Y015206D01*
X012603Y015048D02*
X013830Y015048D01*
X013738Y014889D02*
X013029Y014889D01*
X012837Y014889D02*
X012603Y014889D01*
X012603Y014731D02*
X012634Y014731D01*
X013115Y014255D02*
X013614Y014255D01*
X013614Y014414D02*
X013243Y014414D01*
X013275Y014572D02*
X013626Y014572D01*
X013669Y014731D02*
X013232Y014731D01*
X012957Y014097D02*
X013652Y014097D01*
X013702Y013938D02*
X012957Y013938D01*
X011728Y013938D02*
X009791Y013938D01*
X009842Y014097D02*
X011728Y014097D01*
X011728Y014255D02*
X009880Y014255D01*
X009880Y014414D02*
X011728Y014414D01*
X011728Y014572D02*
X009867Y014572D01*
X009825Y014731D02*
X011728Y014731D01*
X011728Y014889D02*
X009755Y014889D01*
X009663Y015048D02*
X011728Y015048D01*
X011728Y015206D02*
X009505Y015206D01*
X009263Y015365D02*
X011728Y015365D01*
X011797Y015523D02*
X009204Y015523D01*
X009204Y015682D02*
X011956Y015682D01*
X012114Y015840D02*
X009204Y015840D01*
X009204Y015999D02*
X012273Y015999D01*
X012431Y016157D02*
X009204Y016157D01*
X009204Y016316D02*
X012590Y016316D01*
X012875Y016474D02*
X009204Y016474D01*
X009204Y016633D02*
X012959Y016633D01*
X013474Y016633D02*
X015350Y016633D01*
X015350Y016791D02*
X009204Y016791D01*
X009204Y016950D02*
X015294Y016950D01*
X015269Y017108D02*
X009204Y017108D01*
X009204Y017267D02*
X015318Y017267D01*
X015902Y017267D02*
X016217Y017267D01*
X016217Y017108D02*
X015952Y017108D01*
X015927Y016950D02*
X016217Y016950D01*
X016217Y016791D02*
X015870Y016791D01*
X015870Y016633D02*
X016217Y016633D01*
X016217Y016474D02*
X015870Y016474D01*
X015869Y016316D02*
X016217Y016316D01*
X016217Y016157D02*
X015765Y016157D01*
X015607Y015999D02*
X016217Y015999D01*
X016217Y015840D02*
X015128Y015840D01*
X015085Y015682D02*
X016217Y015682D01*
X016737Y015682D02*
X018951Y015682D01*
X018951Y015736D02*
X018951Y015405D01*
X019185Y015171D01*
X019516Y015171D01*
X019750Y015405D01*
X019750Y015736D01*
X019516Y015970D01*
X019185Y015970D01*
X018951Y015736D01*
X019055Y015840D02*
X016737Y015840D01*
X016737Y015999D02*
X019799Y015999D01*
X019713Y016157D02*
X016737Y016157D01*
X016737Y016316D02*
X019626Y016316D01*
X019540Y016474D02*
X016737Y016474D01*
X016737Y016633D02*
X019454Y016633D01*
X019368Y016791D02*
X016737Y016791D01*
X016737Y016950D02*
X016903Y016950D01*
X016774Y017108D02*
X016737Y017108D01*
X016746Y017584D02*
X016694Y017584D01*
X016845Y017742D02*
X016535Y017742D01*
X016377Y017901D02*
X017091Y017901D01*
X017240Y017901D02*
X017277Y017901D01*
X017425Y017901D02*
X018627Y017901D01*
X018520Y018059D02*
X016218Y018059D01*
X016060Y018218D02*
X018400Y018218D01*
X018276Y018376D02*
X015901Y018376D01*
X015641Y017901D02*
X015219Y017901D01*
X014978Y017901D02*
X009204Y017901D01*
X009204Y018059D02*
X014796Y018059D01*
X014757Y018218D02*
X009204Y018218D01*
X009204Y018376D02*
X014793Y018376D01*
X014964Y018535D02*
X009204Y018535D01*
X009204Y017742D02*
X015800Y017742D01*
X015958Y017584D02*
X009204Y017584D01*
X009204Y017425D02*
X016117Y017425D01*
X017240Y017425D02*
X017277Y017425D01*
X017277Y017356D02*
X017811Y017356D01*
X017811Y017331D01*
X017797Y017245D01*
X017770Y017162D01*
X017731Y017084D01*
X017680Y017014D01*
X017618Y016953D01*
X017548Y016902D01*
X017470Y016862D01*
X017388Y016835D01*
X017302Y016822D01*
X017277Y016822D01*
X017277Y017356D01*
X017277Y017267D02*
X017240Y017267D01*
X017240Y017108D02*
X017277Y017108D01*
X017277Y016950D02*
X017240Y016950D01*
X017614Y016950D02*
X019268Y016950D01*
X019161Y017108D02*
X017743Y017108D01*
X017801Y017267D02*
X019054Y017267D01*
X018947Y017425D02*
X017810Y017425D01*
X017771Y017584D02*
X018841Y017584D01*
X018734Y017742D02*
X017672Y017742D01*
X017277Y017742D02*
X017240Y017742D01*
X017240Y017584D02*
X017277Y017584D01*
X018152Y018535D02*
X015233Y018535D01*
X015347Y016474D02*
X013558Y016474D01*
X011728Y013780D02*
X009700Y013780D01*
X009569Y013621D02*
X011728Y013621D01*
X011728Y013463D02*
X009373Y013463D01*
X009204Y013304D02*
X011624Y013304D01*
X011464Y013146D02*
X009204Y013146D01*
X009204Y012987D02*
X011305Y012987D01*
X011145Y012829D02*
X009204Y012829D01*
X009204Y012670D02*
X010985Y012670D01*
X010826Y012512D02*
X009204Y012512D01*
X009204Y012353D02*
X010666Y012353D01*
X009739Y012195D02*
X009204Y012195D01*
X009204Y012036D02*
X009579Y012036D01*
X009420Y011878D02*
X009175Y011878D01*
X009140Y011719D02*
X009260Y011719D01*
X009101Y011561D02*
X009015Y011561D01*
X008942Y011402D02*
X008857Y011402D01*
X008782Y011244D02*
X008698Y011244D01*
X008623Y011085D02*
X008540Y011085D01*
X008464Y010927D02*
X008381Y010927D01*
X008304Y010768D02*
X008223Y010768D01*
X008145Y010610D02*
X008064Y010610D01*
X007985Y010451D02*
X007906Y010451D01*
X007875Y010293D02*
X007747Y010293D01*
X007870Y010280D02*
X007870Y010280D01*
X007870Y010177D02*
X007870Y010177D01*
X007835Y010134D02*
X007589Y010134D01*
X007430Y009976D02*
X007788Y009976D01*
X007816Y009817D02*
X006584Y009817D01*
X006426Y009659D02*
X007947Y009659D01*
X007692Y009342D02*
X007324Y009342D01*
X006692Y009342D02*
X006109Y009342D01*
X006267Y009500D02*
X008629Y009500D01*
X008471Y009342D02*
X008324Y009342D01*
X008563Y010293D02*
X009098Y010293D01*
X008894Y010451D02*
X008723Y010451D01*
X006522Y009183D02*
X005950Y009183D01*
X005792Y009025D02*
X006446Y009025D01*
X006414Y008866D02*
X005692Y008866D01*
X005692Y008708D02*
X006377Y008708D01*
X006218Y008549D02*
X005692Y008549D01*
X005692Y008391D02*
X006060Y008391D01*
X005927Y008232D02*
X005692Y008232D01*
X005692Y008074D02*
X005891Y008074D01*
X005891Y007915D02*
X005692Y007915D01*
X005692Y007757D02*
X005891Y007757D01*
X005891Y007598D02*
X005692Y007598D01*
X005692Y007440D02*
X005891Y007440D01*
X005891Y007281D02*
X005692Y007281D01*
X005692Y007123D02*
X005891Y007123D01*
X005891Y006964D02*
X005692Y006964D01*
X005692Y006806D02*
X005891Y006806D01*
X005891Y006647D02*
X005692Y006647D01*
X005692Y006489D02*
X005891Y006489D01*
X005891Y006330D02*
X005692Y006330D01*
X005692Y006172D02*
X005891Y006172D01*
X005891Y006013D02*
X005692Y006013D01*
X005692Y005855D02*
X005891Y005855D01*
X005891Y005696D02*
X005692Y005696D01*
X005673Y005538D02*
X005891Y005538D01*
X005891Y005379D02*
X005572Y005379D01*
X005413Y005221D02*
X005855Y005221D01*
X005697Y005062D02*
X005255Y005062D01*
X005096Y004904D02*
X005538Y004904D01*
X005380Y004745D02*
X004938Y004745D01*
X004779Y004587D02*
X005221Y004587D01*
X005063Y004428D02*
X004621Y004428D01*
X006391Y003319D02*
X007731Y003319D01*
X007732Y003477D02*
X006541Y003477D01*
X006607Y003636D02*
X007732Y003636D01*
X007732Y003794D02*
X006623Y003794D01*
X006604Y003953D02*
X007732Y003953D01*
X007732Y004111D02*
X006759Y004111D01*
X006918Y004270D02*
X007732Y004270D01*
X007732Y004428D02*
X007076Y004428D01*
X007235Y004587D02*
X007800Y004587D01*
X007959Y004745D02*
X007393Y004745D01*
X008947Y004428D02*
X009020Y004428D01*
X009020Y004270D02*
X008947Y004270D01*
X008947Y004111D02*
X009020Y004111D01*
X009020Y003953D02*
X008947Y003953D01*
X008947Y003794D02*
X009020Y003794D01*
X009020Y003636D02*
X008947Y003636D01*
X008947Y003477D02*
X009020Y003477D01*
X009020Y003319D02*
X008947Y003319D01*
X008947Y003160D02*
X009020Y003160D01*
X009020Y003002D02*
X008947Y003002D01*
X008947Y002843D02*
X009020Y002843D01*
X009020Y002685D02*
X008947Y002685D01*
X008947Y002526D02*
X009054Y002526D01*
X009140Y002368D02*
X008912Y002368D01*
X009021Y002209D02*
X008765Y002209D01*
X008606Y002051D02*
X009021Y002051D01*
X009450Y002513D02*
X009300Y002663D01*
X009300Y004790D01*
X009549Y005039D01*
X009837Y005039D01*
X005843Y002368D02*
X002195Y002368D01*
X008351Y001258D02*
X009021Y001258D01*
X009021Y001100D02*
X008484Y001100D01*
X008541Y000941D02*
X009021Y000941D01*
X009021Y000783D02*
X008549Y000783D01*
X008507Y000624D02*
X009021Y000624D01*
X015650Y002074D02*
X015650Y004413D01*
X016000Y004763D01*
X016000Y007413D01*
X015874Y007539D01*
X015400Y007539D01*
X015400Y008039D02*
X015874Y008039D01*
X016350Y007563D01*
X016350Y007063D01*
X016800Y006613D01*
X016800Y004563D01*
X016250Y004013D01*
X016250Y002143D01*
X016300Y002093D01*
X015950Y001739D02*
X015950Y004213D01*
X016400Y004663D01*
X016400Y005539D01*
X017400Y004863D02*
X017400Y006413D01*
X018000Y007013D01*
X018000Y007850D01*
X017250Y008600D01*
X016850Y008600D01*
X015086Y010363D01*
X013750Y010363D01*
X013368Y009982D01*
X013368Y009429D01*
X013868Y009429D02*
X013868Y009882D01*
X014000Y010013D01*
X014936Y010013D01*
X016700Y008250D01*
X017100Y008250D01*
X017650Y007700D01*
X017650Y007163D01*
X017100Y006613D01*
X017100Y004363D01*
X016900Y004163D01*
X016900Y002923D01*
X017020Y002803D01*
X017547Y002971D02*
X017547Y004716D01*
X017400Y004863D01*
X017821Y004786D02*
X017888Y004786D01*
X018650Y004786D01*
X018618Y004754D01*
X018961Y004411D01*
X018935Y004385D01*
X018592Y004728D01*
X018458Y004594D01*
X018458Y004222D01*
X018028Y004222D01*
X017827Y004021D01*
X017827Y004772D01*
X017821Y004786D01*
X017827Y004745D02*
X018627Y004745D01*
X018733Y004587D02*
X018786Y004587D01*
X018892Y004428D02*
X018944Y004428D01*
X018458Y004428D02*
X017827Y004428D01*
X017827Y004270D02*
X018458Y004270D01*
X018458Y004587D02*
X017827Y004587D01*
X017827Y004111D02*
X017917Y004111D01*
X018176Y005538D02*
X020867Y005538D01*
X020882Y005696D02*
X018176Y005696D01*
X018176Y005855D02*
X020883Y005855D01*
X020883Y006013D02*
X019365Y006013D01*
X019505Y006172D02*
X020883Y006172D01*
X020883Y006330D02*
X019571Y006330D01*
X019581Y006489D02*
X020883Y006489D01*
X020883Y006647D02*
X019554Y006647D01*
X019484Y006806D02*
X020883Y006806D01*
X020883Y006964D02*
X019320Y006964D01*
X018760Y007123D02*
X020883Y007123D01*
X020883Y007281D02*
X018760Y007281D01*
X018760Y007440D02*
X020883Y007440D01*
X020883Y007598D02*
X018760Y007598D01*
X018760Y007757D02*
X020883Y007757D01*
X020883Y007915D02*
X019256Y007915D01*
X019457Y008074D02*
X020883Y008074D01*
X020883Y008232D02*
X019543Y008232D01*
X019581Y008391D02*
X020883Y008391D01*
X020883Y008549D02*
X019581Y008549D01*
X019516Y008708D02*
X020883Y008708D01*
X020883Y008866D02*
X019392Y008866D01*
X018609Y008866D02*
X018096Y008866D01*
X017938Y009025D02*
X020883Y009025D01*
X020883Y009183D02*
X017779Y009183D01*
X017621Y009342D02*
X020883Y009342D01*
X020883Y009500D02*
X017612Y009500D01*
X017561Y009659D02*
X020883Y009659D01*
X020883Y009817D02*
X017456Y009817D01*
X017486Y009976D02*
X017392Y009976D01*
X017672Y009976D02*
X020883Y009976D01*
X020883Y010134D02*
X018797Y010134D01*
X018956Y010293D02*
X019215Y010293D01*
X019188Y010927D02*
X019023Y010927D01*
X019181Y011085D02*
X020883Y011085D01*
X020883Y010927D02*
X020838Y010927D01*
X020846Y010768D02*
X020883Y010768D01*
X020883Y010610D02*
X020490Y010610D01*
X020490Y010600D02*
X020846Y010600D01*
X020846Y010381D01*
X020836Y010341D01*
X020815Y010305D01*
X020785Y010275D01*
X020749Y010254D01*
X020709Y010244D01*
X020490Y010244D01*
X020490Y010600D01*
X020490Y010451D02*
X020413Y010451D01*
X020413Y010293D02*
X020490Y010293D01*
X020802Y010293D02*
X020883Y010293D01*
X020883Y010451D02*
X020846Y010451D01*
X020490Y010768D02*
X020413Y010768D01*
X020413Y010927D02*
X020490Y010927D01*
X020065Y010927D02*
X020061Y010927D01*
X019987Y011402D02*
X020883Y011402D01*
X020883Y011244D02*
X019340Y011244D01*
X018797Y011719D02*
X017392Y011719D01*
X017392Y011561D02*
X018639Y011561D01*
X018480Y011402D02*
X017392Y011402D01*
X017392Y011244D02*
X018322Y011244D01*
X018956Y011878D02*
X017392Y011878D01*
X017392Y012036D02*
X019114Y012036D01*
X019323Y012195D02*
X017392Y012195D01*
X017392Y012353D02*
X019464Y012353D01*
X019476Y012341D02*
X019198Y012619D01*
X019198Y012815D01*
X019672Y012815D01*
X020146Y012815D01*
X020146Y013011D01*
X019868Y013289D01*
X019672Y013289D01*
X019672Y012815D01*
X019672Y012815D01*
X020146Y012815D01*
X020146Y012619D01*
X019868Y012341D01*
X019672Y012341D01*
X019672Y012815D01*
X019672Y012815D01*
X019672Y012815D01*
X019672Y013289D01*
X019476Y013289D01*
X019198Y013011D01*
X019198Y012815D01*
X019672Y012815D01*
X019672Y012341D01*
X019476Y012341D01*
X019672Y012353D02*
X019672Y012353D01*
X019672Y012512D02*
X019672Y012512D01*
X019672Y012670D02*
X019672Y012670D01*
X019672Y012815D02*
X019672Y012815D01*
X019672Y012829D02*
X019672Y012829D01*
X019672Y012987D02*
X019672Y012987D01*
X019672Y013146D02*
X019672Y013146D01*
X020011Y013146D02*
X020883Y013146D01*
X020883Y013304D02*
X017392Y013304D01*
X017392Y013146D02*
X019332Y013146D01*
X019198Y012987D02*
X017392Y012987D01*
X017392Y012829D02*
X019198Y012829D01*
X019198Y012670D02*
X017392Y012670D01*
X017392Y012512D02*
X019305Y012512D01*
X019880Y012353D02*
X020883Y012353D01*
X020883Y012195D02*
X020020Y012195D01*
X020138Y012036D02*
X020883Y012036D01*
X020883Y011878D02*
X020187Y011878D01*
X020187Y011719D02*
X020883Y011719D01*
X020883Y011561D02*
X020124Y011561D01*
X020038Y012512D02*
X020883Y012512D01*
X020883Y012670D02*
X020146Y012670D01*
X020146Y012829D02*
X020883Y012829D01*
X020883Y012987D02*
X020146Y012987D01*
X020828Y013621D02*
X017616Y013621D01*
X017618Y013780D02*
X020773Y013780D01*
X020718Y013938D02*
X017654Y013938D01*
X017783Y014097D02*
X020663Y014097D01*
X020600Y014255D02*
X019541Y014255D01*
X019499Y014213D02*
X019351Y014213D01*
X019351Y014571D01*
X019709Y014571D01*
X019709Y014719D01*
X019499Y014929D01*
X019351Y014929D01*
X019351Y014571D01*
X019351Y014571D01*
X019709Y014571D01*
X019709Y014423D01*
X019499Y014213D01*
X019351Y014213D02*
X019351Y014571D01*
X019351Y014571D01*
X019351Y014571D01*
X019351Y014929D01*
X019202Y014929D01*
X018992Y014719D01*
X018992Y014571D01*
X019351Y014571D01*
X019351Y014571D01*
X018992Y014571D01*
X018992Y014423D01*
X019202Y014213D01*
X019351Y014213D01*
X019351Y014255D02*
X019351Y014255D01*
X019351Y014414D02*
X019351Y014414D01*
X019351Y014572D02*
X019351Y014572D01*
X019351Y014731D02*
X019351Y014731D01*
X019351Y014889D02*
X019351Y014889D01*
X019539Y014889D02*
X020329Y014889D01*
X020396Y014731D02*
X019697Y014731D01*
X019709Y014572D02*
X020464Y014572D01*
X020532Y014414D02*
X019700Y014414D01*
X019160Y014255D02*
X017848Y014255D01*
X017852Y014414D02*
X019001Y014414D01*
X018992Y014572D02*
X017822Y014572D01*
X017749Y014731D02*
X019004Y014731D01*
X019162Y014889D02*
X017585Y014889D01*
X016960Y015048D02*
X020261Y015048D01*
X020193Y015206D02*
X019551Y015206D01*
X019709Y015365D02*
X020125Y015365D01*
X020058Y015523D02*
X019750Y015523D01*
X019750Y015682D02*
X019972Y015682D01*
X019885Y015840D02*
X019646Y015840D01*
X019150Y015206D02*
X016802Y015206D01*
X016737Y015365D02*
X018992Y015365D01*
X018951Y015523D02*
X016737Y015523D01*
X017531Y013463D02*
X020883Y013463D01*
X020100Y010293D02*
X020034Y010293D01*
X018485Y008708D02*
X018255Y008708D01*
X018413Y008549D02*
X018421Y008549D01*
X018496Y006172D02*
X018290Y006172D01*
X018176Y006013D02*
X018636Y006013D01*
X019643Y005379D02*
X020852Y005379D01*
X020825Y005221D02*
X019802Y005221D01*
X019960Y005062D02*
X020793Y005062D01*
X020762Y004904D02*
X020028Y004904D01*
X020028Y004745D02*
X020731Y004745D01*
X020695Y004587D02*
X020028Y004587D01*
X020028Y004428D02*
X020641Y004428D01*
X020587Y004270D02*
X020028Y004270D01*
X020028Y004111D02*
X020533Y004111D01*
X020478Y003953D02*
X020163Y003953D01*
X020213Y003794D02*
X020409Y003794D01*
X020336Y003636D02*
X020213Y003636D01*
X016133Y001557D02*
X015950Y001739D01*
X015473Y011561D02*
X014867Y011561D01*
X014961Y011719D02*
X015640Y011719D01*
X015806Y011878D02*
X014965Y011878D01*
X014876Y012036D02*
X015972Y012036D01*
X016135Y012195D02*
X014598Y012195D01*
X014436Y012353D02*
X016189Y012353D01*
X016672Y012512D02*
X014274Y012512D01*
X014113Y012670D02*
X016672Y012670D01*
X016672Y012829D02*
X013951Y012829D01*
X013789Y012987D02*
X016672Y012987D01*
D27*
X016477Y012157D02*
X015628Y011348D01*
X015453Y011173D01*
X014193Y011173D01*
X014018Y011348D01*
X013738Y011348D01*
X014626Y011803D02*
X012697Y013693D01*
X012697Y014205D01*
X012933Y014441D01*
X012933Y014559D01*
X012343Y015189D02*
X013012Y015858D01*
X014711Y015858D01*
X014787Y015855D01*
X015414Y016173D02*
X015610Y016370D01*
X015610Y017079D01*
X015414Y016173D02*
X013177Y016173D01*
X013217Y016213D01*
X013217Y016407D01*
X013177Y016173D02*
X012815Y016173D01*
X011988Y015346D01*
X011988Y013299D01*
X010680Y012001D01*
X009913Y012001D01*
X008130Y010228D01*
X008130Y009953D01*
X009193Y010623D02*
X009193Y010780D01*
X010060Y011637D01*
X010886Y011646D01*
X012343Y013102D01*
X012343Y015189D01*
X012382Y016882D02*
X012106Y016882D01*
X011516Y017472D01*
X015099Y018220D02*
X015689Y018220D01*
X016477Y017433D01*
X016477Y015164D01*
X017258Y014382D01*
X018934Y010638D02*
X018563Y010268D01*
X017697Y010268D01*
X017579Y010307D01*
X018934Y010638D02*
X019625Y010638D01*
X017020Y002803D02*
X017559Y002264D01*
X018254Y002264D01*
X017547Y001557D02*
X016836Y001557D01*
X016300Y002093D01*
X015650Y002074D02*
X015650Y001890D01*
X015600Y001840D01*
X015600Y001163D01*
X015914Y000850D01*
X016840Y000850D01*
D28*
X020433Y013378D03*
M02*
